<svg width="118" height="150" viewBox="0 0 118 150" fill="none" xmlns="http://www.w3.org/2000/svg">
<g clip-path="url(#clip0)">
<path d="M9.01361 63.6432C9.01361 63.6432 -1.53257 93.4137 1.46627 98.2312C4.46511 103.049 14.1019 100.935 14.1019 100.935V114.029C14.1019 114.029 14.2484 128.128 28.6057 128.128C42.963 128.128 42.0588 128.278 43.8962 128.298C50.0761 128.371 53.361 131.023 55.0929 139.244C55.6872 142.073 59.6346 143.876 59.6346 143.876H108.611L102.126 104.546C102.126 104.546 100.28 92.9999 106.358 85.5683C112.435 78.1368 122.259 54.9158 112.435 31.3865C102.611 7.85727 71.5653 -9.08507 39.9897 7.85387C8.41418 24.7928 9.01361 63.6432 9.01361 63.6432Z" stroke="white" stroke-width="2" stroke-miterlimit="10" stroke-linecap="round" stroke-linejoin="round"/>
<path d="M64.5614 28.8917L77.9821 18.3081L79.7514 33.7417L97.2574 33.5714L86.277 45.9873L98.3677 58.7388L79.7548 59.5119L76.504 75.877L63.9143 64.8489L48.7719 74.4227L49.6966 59.5136H31.6831L43.5082 47.0823L33.2907 31.0102L49.6881 33.5645L52.4502 18.3081L64.5614 28.8917Z" stroke="white" stroke-width="2" stroke-miterlimit="10" stroke-linecap="round" stroke-linejoin="round"/>
<path d="M114.151 143.071C114.151 139.718 111.431 137 108.076 137C104.72 137 102 139.718 102 143.071C102 146.425 104.72 149.143 108.076 149.143C111.431 149.143 114.151 146.425 114.151 143.071Z" fill="#1CCB62"/>
<path d="M111.133 143.094C111.133 141.512 109.85 140.229 108.267 140.229C106.684 140.229 105.401 141.512 105.401 143.094C105.401 144.677 106.684 145.959 108.267 145.959C109.85 145.959 111.133 144.677 111.133 143.094Z" stroke="#151515" stroke-width="3"/>
<path d="M114.151 143.071C114.151 139.718 111.431 137 108.076 137C104.72 137 102 139.718 102 143.071C102 146.425 104.72 149.143 108.076 149.143C111.431 149.143 114.151 146.425 114.151 143.071Z" stroke="#151515"/>
<path d="M31.1515 127.071C31.1515 123.718 28.4313 121 25.0757 121C21.7202 121 19 123.718 19 127.071C19 130.425 21.7202 133.143 25.0757 133.143C28.4313 133.143 31.1515 130.425 31.1515 127.071Z" fill="#1CCB62"/>
<path d="M28.1328 127.094C28.1328 125.512 26.8497 124.229 25.2669 124.229C23.6841 124.229 22.401 125.512 22.401 127.094C22.401 128.677 23.6841 129.959 25.2669 129.959C26.8497 129.959 28.1328 128.677 28.1328 127.094Z" stroke="#151515" stroke-width="3"/>
<path d="M31.1515 127.071C31.1515 123.718 28.4313 121 25.0757 121C21.7202 121 19 123.718 19 127.071C19 130.425 21.7202 133.143 25.0757 133.143C28.4313 133.143 31.1515 130.425 31.1515 127.071Z" stroke="#151515"/>
<path d="M21.1515 35.0714C21.1515 31.7183 18.4313 29 15.0757 29C11.7202 29 9 31.7183 9 35.0714C9 38.4246 11.7202 41.1429 15.0757 41.1429C18.4313 41.1429 21.1515 38.4246 21.1515 35.0714Z" fill="#1CCB62"/>
<path d="M18.1328 35.0942C18.1328 33.5118 16.8497 32.229 15.2669 32.229C13.6841 32.229 12.401 33.5118 12.401 35.0942C12.401 36.6765 13.6841 37.9593 15.2669 37.9593C16.8497 37.9593 18.1328 36.6765 18.1328 35.0942Z" stroke="#151515" stroke-width="3"/>
<path d="M21.1515 35.0714C21.1515 31.7183 18.4313 29 15.0757 29C11.7202 29 9 31.7183 9 35.0714C9 38.4246 11.7202 41.1429 15.0757 41.1429C18.4313 41.1429 21.1515 38.4246 21.1515 35.0714Z" stroke="#151515"/>
<path d="M110.151 19.0714C110.151 15.7183 107.431 13 104.076 13C100.72 13 98 15.7183 98 19.0714C98 22.4246 100.72 25.1429 104.076 25.1429C107.431 25.1429 110.151 22.4246 110.151 19.0714Z" fill="#1CCB62"/>
<path d="M107.133 19.0942C107.133 17.5118 105.85 16.229 104.267 16.229C102.684 16.229 101.401 17.5118 101.401 19.0942C101.401 20.6766 102.684 21.9593 104.267 21.9593C105.85 21.9593 107.133 20.6766 107.133 19.0942Z" stroke="#151515" stroke-width="3"/>
<path d="M110.151 19.0714C110.151 15.7183 107.431 13 104.076 13C100.72 13 98 15.7183 98 19.0714C98 22.4246 100.72 25.1429 104.076 25.1429C107.431 25.1429 110.151 22.4246 110.151 19.0714Z" stroke="#151515"/>
</g>
<defs>
<clipPath id="clip0">
<rect width="117.49" height="150" fill="white"/>
</clipPath>
</defs>
</svg>
