<svg width="151" height="169" viewBox="0 0 151 169" fill="none" xmlns="http://www.w3.org/2000/svg">
<path d="M95.0383 124.797C95.058 139.546 100.94 148.134 112.686 150.561C130.303 154.202 141.108 133.403 131.869 121.761" stroke="white" stroke-width="2" stroke-linecap="round" stroke-linejoin="round"/>
<path d="M133.863 124.749C144.635 119.974 149.97 113.108 149.867 104.152C149.764 95.1955 147.185 89.5117 142.129 87.1003" stroke="white" stroke-width="2" stroke-linecap="round" stroke-linejoin="round"/>
<path d="M74.9341 11.2904C77.8029 5.79529 82.4064 3.04773 88.7446 3.04773C98.2518 3.04773 107.781 6.38079 114.313 12.8166C117.868 16.3188 119.973 19.7592 120.626 23.1377" stroke="white" stroke-width="2" stroke-linecap="round" stroke-linejoin="round"/>
<path d="M102.349 43.2278C103.199 51.1362 106.285 56.8388 111.607 60.3357C116.928 63.8327 122.981 65.4222 129.764 65.1045" stroke="white" stroke-width="2" stroke-linecap="round" stroke-linejoin="round"/>
<path d="M75.1412 11.3181C74.253 5.61845 69.5526 2.86466 61.0401 3.05674C48.2714 3.34485 34.588 9.67172 29.2427 23.1377" stroke="white" stroke-width="2" stroke-linecap="round" stroke-linejoin="round"/>
<path d="M29.2426 23.1377C14.3578 26.1722 5.58314 34.9772 2.91856 49.5525C0.253984 64.1279 2.01812 75.505 8.21098 83.6837" stroke="white" stroke-width="2" stroke-linecap="round" stroke-linejoin="round"/>
<path d="M32.8979 50.5332C45.6667 50.405 52.9774 45.5347 54.8299 35.9222" stroke="white" stroke-width="2" stroke-linecap="round" stroke-linejoin="round"/>
<path d="M17.9664 121.871C14.1217 130.309 13.5876 137.063 16.3642 142.133C20.5292 149.738 28.6573 155.071 38.3808 154.608" stroke="white" stroke-width="2" stroke-linecap="round" stroke-linejoin="round"/>
<path d="M74.9341 12.1796V160.131C78.7853 165.193 84.6196 167.482 92.437 166.998C104.163 166.272 110.411 155.82 111.487 150.39" stroke="white" stroke-width="2" stroke-linecap="round" stroke-linejoin="round"/>
<path d="M111.487 99.845C131.066 98.9822 143.015 91.3205 147.335 76.8598C153.815 55.1687 146.989 36.0854 136.74 29.0281C131.996 25.7612 125.733 23.4799 120.708 23.3444" stroke="white" stroke-width="2" stroke-linecap="round" stroke-linejoin="round"/>
<path d="M49.3471 81.9896C39.9993 73.6355 29.1154 72.0672 16.6954 77.2844C-1.93465 85.1103 -1.67259 111.206 9.8409 118.019C12.5976 119.651 15.3131 120.898 17.9874 121.761" stroke="white" stroke-width="2" stroke-linecap="round" stroke-linejoin="round"/>
<path d="M32.8979 101.671C41.0894 102.949 46.8496 106.357 50.1785 111.897C53.5074 117.436 55.0495 123.768 54.8047 130.893" stroke="white" stroke-width="2" stroke-linecap="round" stroke-linejoin="round"/>
<path d="M74.9341 158.262C70.8829 164.063 65.3342 167.105 58.2878 167.389C47.7182 167.814 40.2135 163.99 38.3809 154.636" stroke="white" stroke-width="2" stroke-linecap="round" stroke-linejoin="round"/>
<path d="M81.0099 7.09532C81.0099 3.74216 78.2897 1.02389 74.9341 1.02389C71.5786 1.02389 68.8584 3.74216 68.8584 7.09532C68.8584 10.4485 71.5786 13.1667 74.9341 13.1667C78.2897 13.1667 81.0099 10.4485 81.0099 7.09532Z" fill="#C2C2C2"/>
<path d="M79.4909 7.09536C79.4909 4.58049 77.4508 2.54178 74.9341 2.54178C72.4175 2.54178 70.3773 4.58049 70.3773 7.09536C70.3773 9.61022 72.4175 11.6489 74.9341 11.6489C77.4508 11.6489 79.4909 9.61022 79.4909 7.09536Z" stroke="#151515" stroke-width="1.5"/>
<path d="M81.0099 7.09532C81.0099 3.74216 78.2897 1.02389 74.9341 1.02389C71.5786 1.02389 68.8584 3.74216 68.8584 7.09532C68.8584 10.4485 71.5786 13.1667 74.9341 13.1667C78.2897 13.1667 81.0099 10.4485 81.0099 7.09532Z" stroke="#151515"/>
<path d="M81.0099 160.905C81.0099 157.552 78.2897 154.833 74.9341 154.833C71.5786 154.833 68.8584 157.552 68.8584 160.905C68.8584 164.258 71.5786 166.976 74.9341 166.976C78.2897 166.976 81.0099 164.258 81.0099 160.905Z" fill="#C2C2C2"/>
<path d="M79.4909 160.905C79.4909 158.39 77.4508 156.351 74.9341 156.351C72.4175 156.351 70.3773 158.39 70.3773 160.905C70.3773 163.42 72.4175 165.458 74.9341 165.458C77.4508 165.458 79.4909 163.42 79.4909 160.905Z" stroke="#151515" stroke-width="1.5"/>
<path d="M81.0099 160.905C81.0099 157.552 78.2897 154.833 74.9341 154.833C71.5786 154.833 68.8584 157.552 68.8584 160.905C68.8584 164.258 71.5786 166.976 74.9341 166.976C78.2897 166.976 81.0099 164.258 81.0099 160.905Z" stroke="#151515"/>
<path d="M123.54 100.191C123.54 96.8374 120.82 94.1191 117.464 94.1191C114.109 94.1191 111.389 96.8374 111.389 100.191C111.389 103.544 114.109 106.262 117.464 106.262C120.82 106.262 123.54 103.544 123.54 100.191Z" fill="#C2C2C2"/>
<path d="M122.021 100.191C122.021 97.6756 119.981 95.6369 117.464 95.6369C114.948 95.6369 112.907 97.6756 112.907 100.191C112.907 102.705 114.948 104.744 117.464 104.744C119.981 104.744 122.021 102.705 122.021 100.191Z" stroke="#151515" stroke-width="1.5"/>
<path d="M123.54 100.191C123.54 96.8374 120.82 94.1191 117.464 94.1191C114.109 94.1191 111.389 96.8374 111.389 100.191C111.389 103.544 114.109 106.262 117.464 106.262C120.82 106.262 123.54 103.544 123.54 100.191Z" stroke="#151515"/>
<path d="M147.843 33.4048C147.843 30.0516 145.123 27.3333 141.767 27.3333C138.412 27.3333 135.692 30.0516 135.692 33.4048C135.692 36.7579 138.412 39.4762 141.767 39.4762C145.123 39.4762 147.843 36.7579 147.843 33.4048Z" fill="#C2C2C2"/>
<path d="M146.324 33.4048C146.324 30.8899 144.284 28.8512 141.767 28.8512C139.251 28.8512 137.21 30.8899 137.21 33.4048C137.21 35.9197 139.251 37.9584 141.767 37.9584C144.284 37.9584 146.324 35.9197 146.324 33.4048Z" stroke="#151515" stroke-width="1.5"/>
<path d="M147.843 33.4048C147.843 30.0516 145.123 27.3333 141.767 27.3333C138.412 27.3333 135.692 30.0516 135.692 33.4048C135.692 36.7579 138.412 39.4762 141.767 39.4762C145.123 39.4762 147.843 36.7579 147.843 33.4048Z" stroke="#151515"/>
<path d="M22.2777 122.452C22.2777 119.099 19.5575 116.381 16.202 116.381C12.8464 116.381 10.1262 119.099 10.1262 122.452C10.1262 125.806 12.8464 128.524 16.202 128.524C19.5575 128.524 22.2777 125.806 22.2777 122.452Z" fill="#C2C2C2"/>
<path d="M20.7588 122.452C20.7588 119.938 18.7186 117.899 16.2019 117.899C13.6853 117.899 11.6451 119.938 11.6451 122.452C11.6451 124.967 13.6853 127.006 16.2019 127.006C18.7186 127.006 20.7588 124.967 20.7588 122.452Z" stroke="#151515" stroke-width="1.5"/>
<path d="M22.2777 122.452C22.2777 119.099 19.5575 116.381 16.202 116.381C12.8464 116.381 10.1262 119.099 10.1262 122.452C10.1262 125.806 12.8464 128.524 16.202 128.524C19.5575 128.524 22.2777 125.806 22.2777 122.452Z" stroke="#151515"/>
<path d="M36.4545 49.5953C36.4545 46.2422 33.7343 43.5239 30.3787 43.5239C27.0232 43.5239 24.303 46.2422 24.303 49.5953C24.303 52.9485 27.0232 55.6667 30.3787 55.6667C33.7343 55.6667 36.4545 52.9485 36.4545 49.5953Z" fill="#1CCB62"/>
<path d="M33.4358 49.6181C33.4358 48.0357 32.1527 46.7529 30.5699 46.7529C28.9871 46.7529 27.704 48.0357 27.704 49.6181C27.704 51.2005 28.9871 52.4833 30.5699 52.4833C32.1527 52.4833 33.4358 51.2005 33.4358 49.6181Z" stroke="#151515" stroke-width="3"/>
<path d="M36.4545 49.5953C36.4545 46.2422 33.7343 43.5239 30.3787 43.5239C27.0232 43.5239 24.303 46.2422 24.303 49.5953C24.303 52.9485 27.0232 55.6667 30.3787 55.6667C33.7343 55.6667 36.4545 52.9485 36.4545 49.5953Z" stroke="#151515"/>
<path d="M80.9335 6.98155C80.9335 3.62839 78.2133 0.91012 74.8578 0.91012C71.5022 0.91012 68.782 3.62839 68.782 6.98155C68.782 10.3347 71.5022 13.053 74.8578 13.053C78.2133 13.053 80.9335 10.3347 80.9335 6.98155Z" fill="#1CCB62"/>
<path d="M77.9148 7.00434C77.9148 5.42195 76.6317 4.13917 75.0489 4.13917C73.4661 4.13917 72.183 5.42195 72.183 7.00434C72.183 8.58673 73.4661 9.86951 75.0489 9.86951C76.6317 9.86951 77.9148 8.58673 77.9148 7.00434Z" stroke="#151515" stroke-width="3"/>
<path d="M80.9335 6.98155C80.9335 3.62839 78.2133 0.91012 74.8578 0.91012C71.5022 0.91012 68.782 3.62839 68.782 6.98155C68.782 10.3347 71.5022 13.053 74.8578 13.053C78.2133 13.053 80.9335 10.3347 80.9335 6.98155Z" stroke="#151515"/>
<path d="M147.805 32.768C147.805 29.4149 145.085 26.6966 141.729 26.6966C138.374 26.6966 135.653 29.4149 135.653 32.768C135.653 36.1212 138.374 38.8395 141.729 38.8395C145.085 38.8395 147.805 36.1212 147.805 32.768Z" fill="#1CCB62"/>
<path d="M144.786 32.7908C144.786 31.2084 143.503 29.9257 141.92 29.9257C140.337 29.9257 139.054 31.2084 139.054 32.7908C139.054 34.3732 140.337 35.656 141.92 35.656C143.503 35.656 144.786 34.3732 144.786 32.7908Z" stroke="#151515" stroke-width="3"/>
<path d="M147.805 32.768C147.805 29.4149 145.085 26.6966 141.729 26.6966C138.374 26.6966 135.653 29.4149 135.653 32.768C135.653 36.1212 138.374 38.8395 141.729 38.8395C145.085 38.8395 147.805 36.1212 147.805 32.768Z" stroke="#151515"/>
<path d="M122.967 100.577C122.967 97.2239 120.247 94.5056 116.891 94.5056C113.536 94.5056 110.815 97.2239 110.815 100.577C110.815 103.93 113.536 106.648 116.891 106.648C120.247 106.648 122.967 103.93 122.967 100.577Z" fill="#1CCB62"/>
<path d="M119.948 100.6C119.948 99.0174 118.665 97.7346 117.082 97.7346C115.5 97.7346 114.216 99.0174 114.216 100.6C114.216 102.182 115.5 103.465 117.082 103.465C118.665 103.465 119.948 102.182 119.948 100.6Z" stroke="#151515" stroke-width="3"/>
<path d="M122.967 100.577C122.967 97.2239 120.247 94.5056 116.891 94.5056C113.536 94.5056 110.815 97.2239 110.815 100.577C110.815 103.93 113.536 106.648 116.891 106.648C120.247 106.648 122.967 103.93 122.967 100.577Z" stroke="#151515"/>
<path d="M80.9335 160.746C80.9335 157.392 78.2133 154.674 74.8578 154.674C71.5022 154.674 68.782 157.392 68.782 160.746C68.782 164.099 71.5022 166.817 74.8578 166.817C78.2133 166.817 80.9335 164.099 80.9335 160.746Z" fill="#1CCB62"/>
<path d="M77.9148 160.768C77.9148 159.186 76.6317 157.903 75.0489 157.903C73.4661 157.903 72.183 159.186 72.183 160.768C72.183 162.351 73.4661 163.634 75.0489 163.634C76.6317 163.634 77.9148 162.351 77.9148 160.768Z" stroke="#151515" stroke-width="3"/>
<path d="M80.9335 160.746C80.9335 157.392 78.2133 154.674 74.8578 154.674C71.5022 154.674 68.782 157.392 68.782 160.746C68.782 164.099 71.5022 166.817 74.8578 166.817C78.2133 166.817 80.9335 164.099 80.9335 160.746Z" stroke="#151515"/>
<path d="M22.6599 122.543C22.6599 119.19 19.9397 116.472 16.5842 116.472C13.2286 116.472 10.5084 119.19 10.5084 122.543C10.5084 125.897 13.2286 128.615 16.5842 128.615C19.9397 128.615 22.6599 125.897 22.6599 122.543Z" fill="#1CCB62"/>
<path d="M19.6413 122.566C19.6413 120.984 18.3581 119.701 16.7753 119.701C15.1925 119.701 13.9094 120.984 13.9094 122.566C13.9094 124.148 15.1925 125.431 16.7753 125.431C18.3581 125.431 19.6413 124.148 19.6413 122.566Z" stroke="#151515" stroke-width="3"/>
<path d="M22.6599 122.543C22.6599 119.19 19.9397 116.472 16.5842 116.472C13.2286 116.472 10.5084 119.19 10.5084 122.543C10.5084 125.897 13.2286 128.615 16.5842 128.615C19.9397 128.615 22.6599 125.897 22.6599 122.543Z" stroke="#151515"/>
</svg>
