<svg width="150" height="170" viewBox="0 0 150 170" fill="none" xmlns="http://www.w3.org/2000/svg">
<path d="M98.968 14.07C91.6748 10.1076 83.3267 7.67493 74.4118 7.41451C64.868 7.13573 54.6747 9.34647 44.4309 14.8351C21.5607 27.0889 10.3415 47.2677 10.7734 75.3713C3.13407 96.9069 0.399989 109.418 2.57116 112.903C4.74232 116.389 9.31888 117.367 16.3008 115.837V130.045C16.4072 140.244 21.6605 145.344 32.0606 145.344C47.6607 145.344 46.6866 145.507 48.676 145.53C55.3916 145.61 58.9612 148.485 60.8415 157.408C61.2726 159.455 62.9177 161.13 65.7769 162.434L118.994 162.427L111.947 119.754C110.61 111.403 112.143 104.538 116.546 99.1614C121.04 93.6731 127.419 80.2542 127.673 64.1935" stroke="white" stroke-width="2" stroke-linecap="round" stroke-linejoin="round"/>
<path d="M74.0157 42.4999C78.1035 42.4999 81.4173 39.1907 81.4173 35.1086C81.4173 31.0265 78.1035 27.7173 74.0157 27.7173C69.928 27.7173 66.6142 31.0265 66.6142 35.1086C66.6142 39.1907 69.928 42.4999 74.0157 42.4999Z" stroke="white" stroke-width="2" stroke-linecap="round" stroke-linejoin="round"/>
<path d="M74.0157 66.5216C78.1035 66.5216 81.4173 63.2124 81.4173 59.1303C81.4173 55.0482 78.1035 51.739 74.0157 51.739C69.928 51.739 66.6142 55.0482 66.6142 59.1303C66.6142 63.2124 69.928 66.5216 74.0157 66.5216Z" stroke="white" stroke-width="2" stroke-linecap="round" stroke-linejoin="round"/>
<path d="M98.0708 42.4999C102.159 42.4999 105.472 39.1907 105.472 35.1086C105.472 31.0265 102.159 27.7173 98.0708 27.7173C93.983 27.7173 90.6693 31.0265 90.6693 35.1086C90.6693 39.1907 93.983 42.4999 98.0708 42.4999Z" stroke="white" stroke-width="2" stroke-linecap="round" stroke-linejoin="round"/>
<path d="M98.0708 66.5216C102.159 66.5216 105.472 63.2124 105.472 59.1303C105.472 55.0482 102.159 51.739 98.0708 51.739C93.983 51.739 90.6693 55.0482 90.6693 59.1303C90.6693 63.2124 93.983 66.5216 98.0708 66.5216Z" stroke="white" stroke-width="2" stroke-linecap="round" stroke-linejoin="round"/>
<path d="M122.126 42.4999C126.214 42.4999 129.527 39.1907 129.527 35.1086C129.527 31.0265 126.214 27.7173 122.126 27.7173C118.038 27.7173 114.724 31.0265 114.724 35.1086C114.724 39.1907 118.038 42.4999 122.126 42.4999Z" stroke="white" stroke-width="2" stroke-linecap="round" stroke-linejoin="round"/>
<path d="M122.126 66.5216C126.214 66.5216 129.527 63.2124 129.527 59.1303C129.527 55.0482 126.214 51.739 122.126 51.739C118.038 51.739 114.724 55.0482 114.724 59.1303C114.724 63.2124 118.038 66.5216 122.126 66.5216Z" stroke="white" stroke-width="2" stroke-linecap="round" stroke-linejoin="round"/>
<path d="M74.1915 27.5186V7.83154" stroke="white" stroke-width="2" stroke-linecap="round" stroke-linejoin="round"/>
<path d="M66.8613 59.1304H40.7086" stroke="white" stroke-width="2" stroke-linecap="round" stroke-linejoin="round"/>
<path d="M141.871 59.1304H129.527" stroke="white" stroke-width="2" stroke-linecap="round" stroke-linejoin="round"/>
<path d="M141.591 35.1086H129.527" stroke="white" stroke-width="2" stroke-linecap="round" stroke-linejoin="round"/>
<path d="M98.7939 27.5831V14.9561" stroke="white" stroke-width="2" stroke-linecap="round" stroke-linejoin="round"/>
<path d="M98.1323 67.0786C98.1323 114.074 98.1323 138.276 98.1323 139.684C98.1323 141.796 98.0114 143.481 95.4452 143.481C92.879 143.481 92.8608 143.481 91.0644 143.481C89.268 143.481 87.5002 145.027 87.5002 146.822C87.5002 148.018 87.5002 153.193 87.5002 162.346" stroke="white" stroke-width="2" stroke-linecap="round" stroke-linejoin="round"/>
<path d="M66.9068 34.9111C60.9238 34.9111 57.2504 34.9111 55.8866 34.9111C53.8408 34.9111 51.8665 36.9157 51.8665 38.3326C51.8665 39.2771 51.8665 41.649 51.8665 45.4483" stroke="white" stroke-width="2" stroke-linecap="round" stroke-linejoin="round"/>
<path d="M57.3621 46.1957C57.3621 43.1341 54.8768 40.6522 51.8109 40.6522C48.7451 40.6522 46.2598 43.1341 46.2598 46.1957C46.2598 49.2572 48.7451 51.7391 51.8109 51.7391C54.8768 51.7391 57.3621 49.2572 57.3621 46.1957Z" fill="#C2C2C2"/>
<path d="M55.9743 46.1957C55.9743 43.8995 54.1103 42.0381 51.8109 42.0381C49.5116 42.0381 47.6476 43.8995 47.6476 46.1957C47.6476 48.4918 49.5116 50.3533 51.8109 50.3533C54.1103 50.3533 55.9743 48.4918 55.9743 46.1957Z" stroke="#151515" stroke-width="1.5"/>
<path d="M57.3621 46.1957C57.3621 43.1341 54.8768 40.6522 51.8109 40.6522C48.7451 40.6522 46.2598 43.1341 46.2598 46.1957C46.2598 49.2572 48.7451 51.7391 51.8109 51.7391C54.8768 51.7391 57.3621 49.2572 57.3621 46.1957Z" stroke="#151515"/>
<path d="M57.5822 46.2516C57.5822 42.8984 54.862 40.1801 51.5065 40.1801C48.1509 40.1801 45.4307 42.8984 45.4307 46.2516C45.4307 49.6047 48.1509 52.323 51.5065 52.323C54.862 52.323 57.5822 49.6047 57.5822 46.2516Z" fill="#1CCB62"/>
<path d="M54.5635 46.2742C54.5635 44.6919 53.2804 43.4091 51.6976 43.4091C50.1148 43.4091 48.8317 44.6919 48.8317 46.2742C48.8317 47.8566 50.1148 49.1394 51.6976 49.1394C53.2804 49.1394 54.5635 47.8566 54.5635 46.2742Z" stroke="#151515" stroke-width="3"/>
<path d="M57.5822 46.2516C57.5822 42.8984 54.862 40.1801 51.5065 40.1801C48.1509 40.1801 45.4307 42.8984 45.4307 46.2516C45.4307 49.6047 48.1509 52.323 51.5065 52.323C54.862 52.323 57.5822 49.6047 57.5822 46.2516Z" stroke="#151515"/>
<path d="M46.2598 59.1303C46.2598 56.0688 43.7744 53.5869 40.7086 53.5869C37.6428 53.5869 35.1574 56.0688 35.1574 59.1303C35.1574 62.1919 37.6428 64.6738 40.7086 64.6738C43.7744 64.6738 46.2598 62.1919 46.2598 59.1303Z" fill="#C2C2C2"/>
<path d="M44.872 59.1304C44.872 56.8342 43.008 54.9727 40.7086 54.9727C38.4093 54.9727 36.5453 56.8342 36.5453 59.1304C36.5453 61.4265 38.4093 63.288 40.7086 63.288C43.008 63.288 44.872 61.4265 44.872 59.1304Z" stroke="#151515" stroke-width="1.5"/>
<path d="M46.2598 59.1303C46.2598 56.0688 43.7744 53.5869 40.7086 53.5869C37.6428 53.5869 35.1574 56.0688 35.1574 59.1303C35.1574 62.1919 37.6428 64.6738 40.7086 64.6738C43.7744 64.6738 46.2598 62.1919 46.2598 59.1303Z" stroke="#151515"/>
<path d="M148.031 59.1303C148.031 56.0688 145.546 53.5869 142.48 53.5869C139.414 53.5869 136.929 56.0688 136.929 59.1303C136.929 62.1919 139.414 64.6738 142.48 64.6738C145.546 64.6738 148.031 62.1919 148.031 59.1303Z" fill="#C2C2C2"/>
<path d="M146.644 59.1304C146.644 56.8342 144.779 54.9727 142.48 54.9727C140.181 54.9727 138.317 56.8342 138.317 59.1304C138.317 61.4265 140.181 63.288 142.48 63.288C144.779 63.288 146.644 61.4265 146.644 59.1304Z" stroke="#151515" stroke-width="1.5"/>
<path d="M148.031 59.1303C148.031 56.0688 145.546 53.5869 142.48 53.5869C139.414 53.5869 136.929 56.0688 136.929 59.1303C136.929 62.1919 139.414 64.6738 142.48 64.6738C145.546 64.6738 148.031 62.1919 148.031 59.1303Z" stroke="#151515"/>
<path d="M46.3526 59.385C46.3526 56.0318 43.6324 53.3135 40.2768 53.3135C36.9213 53.3135 34.2011 56.0318 34.2011 59.385C34.2011 62.7381 36.9213 65.4564 40.2768 65.4564C43.6324 65.4564 46.3526 62.7381 46.3526 59.385Z" fill="#1CCB62"/>
<path d="M43.3339 59.4077C43.3339 57.8253 42.0508 56.5425 40.468 56.5425C38.8852 56.5425 37.6021 57.8253 37.6021 59.4077C37.6021 60.99 38.8852 62.2728 40.468 62.2728C42.0508 62.2728 43.3339 60.99 43.3339 59.4077Z" stroke="#151515" stroke-width="3"/>
<path d="M46.3526 59.385C46.3526 56.0318 43.6324 53.3135 40.2768 53.3135C36.9213 53.3135 34.2011 56.0318 34.2011 59.385C34.2011 62.7381 36.9213 65.4564 40.2768 65.4564C43.6324 65.4564 46.3526 62.7381 46.3526 59.385Z" stroke="#151515"/>
<path d="M148.031 35.1086C148.031 32.047 145.546 29.5651 142.48 29.5651C139.414 29.5651 136.929 32.047 136.929 35.1086C136.929 38.1702 139.414 40.6521 142.48 40.6521C145.546 40.6521 148.031 38.1702 148.031 35.1086Z" fill="#C2C2C2"/>
<path d="M146.644 35.1086C146.644 32.8124 144.779 30.951 142.48 30.951C140.181 30.951 138.317 32.8124 138.317 35.1086C138.317 37.4048 140.181 39.2662 142.48 39.2662C144.779 39.2662 146.644 37.4048 146.644 35.1086Z" stroke="#151515" stroke-width="1.5"/>
<path d="M148.031 35.1086C148.031 32.047 145.546 29.5651 142.48 29.5651C139.414 29.5651 136.929 32.047 136.929 35.1086C136.929 38.1702 139.414 40.6521 142.48 40.6521C145.546 40.6521 148.031 38.1702 148.031 35.1086Z" stroke="#151515"/>
<path d="M104.547 14.7826C104.547 11.721 102.062 9.23909 98.9959 9.23909C95.9301 9.23909 93.4448 11.721 93.4448 14.7826C93.4448 17.8441 95.9301 20.326 98.9959 20.326C102.062 20.326 104.547 17.8441 104.547 14.7826Z" fill="#C2C2C2"/>
<path d="M103.159 14.7826C103.159 12.4864 101.295 10.625 98.9959 10.625C96.6966 10.625 94.8326 12.4864 94.8326 14.7826C94.8326 17.0788 96.6966 18.9402 98.9959 18.9402C101.295 18.9402 103.159 17.0788 103.159 14.7826Z" stroke="#151515" stroke-width="1.5"/>
<path d="M104.547 14.7826C104.547 11.721 102.062 9.23909 98.9959 9.23909C95.9301 9.23909 93.4448 11.721 93.4448 14.7826C93.4448 17.8441 95.9301 20.326 98.9959 20.326C102.062 20.326 104.547 17.8441 104.547 14.7826Z" stroke="#151515"/>
<path d="M92.5195 162.609C92.5195 159.547 90.0342 157.065 86.9684 157.065C83.9025 157.065 81.4172 159.547 81.4172 162.609C81.4172 165.67 83.9025 168.152 86.9684 168.152C90.0342 168.152 92.5195 165.67 92.5195 162.609Z" fill="#C2C2C2"/>
<path d="M91.1318 162.609C91.1318 160.312 89.2677 158.451 86.9684 158.451C84.669 158.451 82.805 160.312 82.805 162.609C82.805 164.905 84.669 166.766 86.9684 166.766C89.2677 166.766 91.1318 164.905 91.1318 162.609Z" stroke="#151515" stroke-width="1.5"/>
<path d="M92.5195 162.609C92.5195 159.547 90.0342 157.065 86.9684 157.065C83.9025 157.065 81.4172 159.547 81.4172 162.609C81.4172 165.67 83.9025 168.152 86.9684 168.152C90.0342 168.152 92.5195 165.67 92.5195 162.609Z" stroke="#151515"/>
<path d="M79.5668 7.39121C79.5668 4.32963 77.0815 1.84773 74.0156 1.84773C70.9498 1.84773 68.4645 4.32963 68.4645 7.39121C68.4645 10.4528 70.9498 12.9347 74.0156 12.9347C77.0815 12.9347 79.5668 10.4528 79.5668 7.39121Z" fill="#C2C2C2"/>
<path d="M78.179 7.39122C78.179 5.09504 76.315 3.23361 74.0156 3.23361C71.7163 3.23361 69.8523 5.09504 69.8523 7.39122C69.8523 9.6874 71.7163 11.5488 74.0156 11.5488C76.315 11.5488 78.179 9.6874 78.179 7.39122Z" stroke="#151515" stroke-width="1.5"/>
<path d="M79.5668 7.39121C79.5668 4.32963 77.0815 1.84773 74.0156 1.84773C70.9498 1.84773 68.4645 4.32963 68.4645 7.39121C68.4645 10.4528 70.9498 12.9347 74.0156 12.9347C77.0815 12.9347 79.5668 10.4528 79.5668 7.39121Z" stroke="#151515"/>
<path d="M80.5538 7.07725C80.5538 3.72409 77.8336 1.00582 74.478 1.00582C71.1225 1.00582 68.4023 3.72409 68.4023 7.07725C68.4023 10.4304 71.1225 13.1487 74.478 13.1487C77.8336 13.1487 80.5538 10.4304 80.5538 7.07725Z" fill="#1CCB62"/>
<path d="M77.535 7.10004C77.535 5.51766 76.2519 4.23488 74.6691 4.23488C73.0863 4.23488 71.8032 5.51766 71.8032 7.10004C71.8032 8.68243 73.0863 9.96521 74.6691 9.96521C76.2519 9.96521 77.535 8.68243 77.535 7.10004Z" stroke="#151515" stroke-width="3"/>
<path d="M80.5538 7.07725C80.5538 3.72409 77.8336 1.00582 74.478 1.00582C71.1225 1.00582 68.4023 3.72409 68.4023 7.07725C68.4023 10.4304 71.1225 13.1487 74.478 13.1487C77.8336 13.1487 80.5538 10.4304 80.5538 7.07725Z" stroke="#151515"/>
<path d="M104.696 14.1188C104.696 10.7656 101.976 8.04732 98.6201 8.04732C95.2645 8.04732 92.5443 10.7656 92.5443 14.1188C92.5443 17.4719 95.2645 20.1902 98.6201 20.1902C101.976 20.1902 104.696 17.4719 104.696 14.1188Z" fill="#1CCB62"/>
<path d="M101.677 14.1415C101.677 12.5592 100.394 11.2764 98.8112 11.2764C97.2284 11.2764 95.9453 12.5592 95.9453 14.1415C95.9453 15.7239 97.2284 17.0067 98.8112 17.0067C100.394 17.0067 101.677 15.7239 101.677 14.1415Z" stroke="#151515" stroke-width="3"/>
<path d="M104.696 14.1188C104.696 10.7656 101.976 8.04732 98.6201 8.04732C95.2645 8.04732 92.5443 10.7656 92.5443 14.1188C92.5443 17.4719 95.2645 20.1902 98.6201 20.1902C101.976 20.1902 104.696 17.4719 104.696 14.1188Z" stroke="#151515"/>
<path d="M148.956 35.243C148.956 31.8899 146.236 29.1716 142.88 29.1716C139.525 29.1716 136.805 31.8899 136.805 35.243C136.805 38.5962 139.525 41.3145 142.88 41.3145C146.236 41.3145 148.956 38.5962 148.956 35.243Z" fill="#1CCB62"/>
<path d="M145.937 35.2657C145.937 33.6833 144.654 32.4005 143.072 32.4005C141.489 32.4005 140.206 33.6833 140.206 35.2657C140.206 36.8481 141.489 38.1309 143.072 38.1309C144.654 38.1309 145.937 36.8481 145.937 35.2657Z" stroke="#151515" stroke-width="3"/>
<path d="M148.956 35.243C148.956 31.8899 146.236 29.1716 142.88 29.1716C139.525 29.1716 136.805 31.8899 136.805 35.243C136.805 38.5962 139.525 41.3145 142.88 41.3145C146.236 41.3145 148.956 38.5962 148.956 35.243Z" stroke="#151515"/>
<path d="M148.956 59.385C148.956 56.0318 146.236 53.3135 142.88 53.3135C139.525 53.3135 136.805 56.0318 136.805 59.385C136.805 62.7381 139.525 65.4564 142.88 65.4564C146.236 65.4564 148.956 62.7381 148.956 59.385Z" fill="#1CCB62"/>
<path d="M145.937 59.4077C145.937 57.8253 144.654 56.5425 143.072 56.5425C141.489 56.5425 140.206 57.8253 140.206 59.4077C140.206 60.99 141.489 62.2728 143.072 62.2728C144.654 62.2728 145.937 60.99 145.937 59.4077Z" stroke="#151515" stroke-width="3"/>
<path d="M148.956 59.385C148.956 56.0318 146.236 53.3135 142.88 53.3135C139.525 53.3135 136.805 56.0318 136.805 59.385C136.805 62.7381 139.525 65.4564 142.88 65.4564C146.236 65.4564 148.956 62.7381 148.956 59.385Z" stroke="#151515"/>
<path d="M93.6307 162.994C93.6307 159.641 90.9105 156.923 87.555 156.923C84.1994 156.923 81.4792 159.641 81.4792 162.994C81.4792 166.348 84.1994 169.066 87.555 169.066C90.9105 169.066 93.6307 166.348 93.6307 162.994Z" fill="#1CCB62"/>
<path d="M90.612 163.017C90.612 161.435 89.3289 160.152 87.7461 160.152C86.1633 160.152 84.8802 161.435 84.8802 163.017C84.8802 164.6 86.1633 165.882 87.7461 165.882C89.3289 165.882 90.612 164.6 90.612 163.017Z" stroke="#151515" stroke-width="3"/>
<path d="M93.6307 162.994C93.6307 159.641 90.9105 156.923 87.555 156.923C84.1994 156.923 81.4792 159.641 81.4792 162.994C81.4792 166.348 84.1994 169.066 87.555 169.066C90.9105 169.066 93.6307 166.348 93.6307 162.994Z" stroke="#151515"/>
</svg>
