<svg width="119" height="152" viewBox="0 0 119 152" fill="none" xmlns="http://www.w3.org/2000/svg">
<path d="M10.0137 64.6432C10.0137 64.6432 -0.53245 94.4137 2.46639 99.2312C5.46523 104.049 15.1021 101.935 15.1021 101.935V115.029C15.1021 115.029 15.2485 129.128 29.6058 129.128C43.9631 129.128 43.0589 129.278 44.8963 129.298C51.0762 129.371 54.3612 132.023 56.093 140.244C56.6874 143.073 60.6347 144.876 60.6347 144.876H109.611L103.126 105.546C103.126 105.546 101.28 93.9999 107.358 86.5683C113.435 79.1368 123.26 55.9158 113.435 32.3865C103.611 8.85729 72.5654 -8.08506 40.9898 8.85388C9.4143 25.7928 10.0137 64.6432 10.0137 64.6432Z" stroke="white" stroke-width="2" stroke-miterlimit="10" stroke-linecap="round" stroke-linejoin="round"/>
<path d="M114.195 145.04C114.195 142.218 111.907 139.931 109.086 139.931C106.264 139.931 103.977 142.218 103.977 145.04C103.977 147.861 106.264 150.149 109.086 150.149C111.907 150.149 114.195 147.861 114.195 145.04Z" fill="#C2C2C2"/>
<path d="M112.918 145.04C112.918 142.924 111.202 141.208 109.086 141.208C106.97 141.208 105.254 142.924 105.254 145.04C105.254 147.156 106.97 148.871 109.086 148.871C111.202 148.871 112.918 147.156 112.918 145.04Z" stroke="#151515" stroke-width="1.5" stroke-miterlimit="10"/>
<path d="M114.195 145.04C114.195 142.218 111.907 139.931 109.086 139.931C106.264 139.931 103.977 142.218 103.977 145.04C103.977 147.861 106.264 150.149 109.086 150.149C111.907 150.149 114.195 147.861 114.195 145.04Z" stroke="#151515" stroke-miterlimit="10"/>
<path d="M110.789 20.7266C110.789 17.9051 108.502 15.6179 105.68 15.6179C102.859 15.6179 100.571 17.9051 100.571 20.7266C100.571 23.5481 102.859 25.8354 105.68 25.8354C108.502 25.8354 110.789 23.5481 110.789 20.7266Z" fill="#C2C2C2"/>
<path d="M109.512 20.7267C109.512 18.6105 107.796 16.8951 105.68 16.8951C103.564 16.8951 101.849 18.6105 101.849 20.7267C101.849 22.8428 103.564 24.5582 105.68 24.5582C107.796 24.5582 109.512 22.8428 109.512 20.7267Z" stroke="#151515" stroke-width="1.5" stroke-miterlimit="10"/>
<path d="M110.789 20.7266C110.789 17.9051 108.502 15.6179 105.68 15.6179C102.859 15.6179 100.571 17.9051 100.571 20.7266C100.571 23.5481 102.859 25.8354 105.68 25.8354C108.502 25.8354 110.789 23.5481 110.789 20.7266Z" stroke="#151515" stroke-miterlimit="10"/>
<path d="M60.5527 92.2493V103.717" stroke="white" stroke-width="2" stroke-miterlimit="10" stroke-linecap="round" stroke-linejoin="round"/>
<path d="M39.3091 47.4114C39.5526 36.0802 44.6273 27.959 56.3383 24.5276C68.0493 21.0962 82.2737 26.9117 85.2317 35.9695C88.1897 45.0273 86.1479 53.6475 78.0795 59.7712C70.011 65.8949 60.7829 65.3857 60.7829 82.4933" stroke="white" stroke-width="2" stroke-miterlimit="10" stroke-linecap="round" stroke-linejoin="round"/>
<path d="M44.375 47.9734C44.375 45.1519 42.0877 42.8646 39.2662 42.8646C36.4447 42.8646 34.1575 45.1519 34.1575 47.9734C34.1575 50.7949 36.4447 53.0821 39.2662 53.0821C42.0877 53.0821 44.375 50.7949 44.375 47.9734Z" fill="#C2C2C2"/>
<path d="M43.0978 47.9734C43.0978 45.8572 41.3824 44.1418 39.2663 44.1418C37.1501 44.1418 35.4347 45.8572 35.4347 47.9734C35.4347 50.0895 37.1501 51.8049 39.2663 51.8049C41.3824 51.8049 43.0978 50.0895 43.0978 47.9734Z" stroke="#151515" stroke-width="1.5" stroke-miterlimit="10"/>
<path d="M44.375 47.9734C44.375 45.1519 42.0877 42.8646 39.2662 42.8646C36.4447 42.8646 34.1575 45.1519 34.1575 47.9734C34.1575 50.7949 36.4447 53.0821 39.2662 53.0821C42.0877 53.0821 44.375 50.7949 44.375 47.9734Z" stroke="#151515" stroke-miterlimit="10"/>
<path d="M65.6615 100.764C65.6615 97.9424 63.3742 95.6551 60.5527 95.6551C57.7312 95.6551 55.444 97.9424 55.444 100.764C55.444 103.585 57.7312 105.873 60.5527 105.873C63.3742 105.873 65.6615 103.585 65.6615 100.764Z" fill="#C2C2C2"/>
<path d="M64.3843 100.764C64.3843 98.6478 62.6689 96.9323 60.5528 96.9323C58.4366 96.9323 56.7212 98.6478 56.7212 100.764C56.7212 102.88 58.4366 104.595 60.5528 104.595C62.6689 104.595 64.3843 102.88 64.3843 100.764Z" stroke="#151515" stroke-width="1.5" stroke-miterlimit="10"/>
<path d="M65.6615 100.764C65.6615 97.9424 63.3742 95.6551 60.5527 95.6551C57.7312 95.6551 55.444 97.9424 55.444 100.764C55.444 103.585 57.7312 105.873 60.5527 105.873C63.3742 105.873 65.6615 103.585 65.6615 100.764Z" stroke="#151515" stroke-miterlimit="10"/>
<path d="M67.1515 101.071C67.1515 97.7183 64.4313 95 61.0757 95C57.7202 95 55 97.7183 55 101.071C55 104.425 57.7202 107.143 61.0757 107.143C64.4313 107.143 67.1515 104.425 67.1515 101.071Z" fill="#1CCB62"/>
<path d="M64.1328 101.094C64.1328 99.5118 62.8497 98.229 61.2669 98.229C59.6841 98.229 58.401 99.5118 58.401 101.094C58.401 102.677 59.6841 103.959 61.2669 103.959C62.8497 103.959 64.1328 102.677 64.1328 101.094Z" stroke="#151515" stroke-width="3"/>
<path d="M67.1515 101.071C67.1515 97.7183 64.4313 95 61.0757 95C57.7202 95 55 97.7183 55 101.071C55 104.425 57.7202 107.143 61.0757 107.143C64.4313 107.143 67.1515 104.425 67.1515 101.071Z" stroke="#151515"/>
<path d="M45.1515 48.0715C45.1515 44.7183 42.4313 42 39.0757 42C35.7202 42 33 44.7183 33 48.0715C33 51.4246 35.7202 54.1429 39.0757 54.1429C42.4313 54.1429 45.1515 51.4246 45.1515 48.0715Z" fill="#1CCB62"/>
<path d="M42.1328 48.0942C42.1328 46.5118 40.8497 45.229 39.2669 45.229C37.6841 45.229 36.401 46.5118 36.401 48.0942C36.401 49.6766 37.6841 50.9594 39.2669 50.9594C40.8497 50.9594 42.1328 49.6766 42.1328 48.0942Z" stroke="#151515" stroke-width="3"/>
<path d="M45.1515 48.0715C45.1515 44.7183 42.4313 42 39.0757 42C35.7202 42 33 44.7183 33 48.0715C33 51.4246 35.7202 54.1429 39.0757 54.1429C42.4313 54.1429 45.1515 51.4246 45.1515 48.0715Z" stroke="#151515"/>
<path d="M112.151 21.0715C112.151 17.7183 109.431 15 106.076 15C102.72 15 100 17.7183 100 21.0715C100 24.4246 102.72 27.1429 106.076 27.1429C109.431 27.1429 112.151 24.4246 112.151 21.0715Z" fill="#1CCB62"/>
<path d="M109.133 21.0942C109.133 19.5118 107.85 18.229 106.267 18.229C104.684 18.229 103.401 19.5118 103.401 21.0942C103.401 22.6766 104.684 23.9594 106.267 23.9594C107.85 23.9594 109.133 22.6766 109.133 21.0942Z" stroke="#151515" stroke-width="3"/>
<path d="M112.151 21.0715C112.151 17.7183 109.431 15 106.076 15C102.72 15 100 17.7183 100 21.0715C100 24.4246 102.72 27.1429 106.076 27.1429C109.431 27.1429 112.151 24.4246 112.151 21.0715Z" stroke="#151515"/>
<path d="M115.151 145.071C115.151 141.718 112.431 139 109.076 139C105.72 139 103 141.718 103 145.071C103 148.425 105.72 151.143 109.076 151.143C112.431 151.143 115.151 148.425 115.151 145.071Z" fill="#1CCB62"/>
<path d="M112.133 145.094C112.133 143.512 110.85 142.229 109.267 142.229C107.684 142.229 106.401 143.512 106.401 145.094C106.401 146.677 107.684 147.959 109.267 147.959C110.85 147.959 112.133 146.677 112.133 145.094Z" stroke="#151515" stroke-width="3"/>
<path d="M115.151 145.071C115.151 141.718 112.431 139 109.076 139C105.72 139 103 141.718 103 145.071C103 148.425 105.72 151.143 109.076 151.143C112.431 151.143 115.151 148.425 115.151 145.071Z" stroke="#151515"/>
</svg>
