<svg width="142" height="150" viewBox="0 0 142 150" fill="none" xmlns="http://www.w3.org/2000/svg">
<g clip-path="url(#clip0)">
<path d="M74.5945 101.351C89.8197 101.351 102.162 89.0089 102.162 73.7838C102.162 58.5586 89.8197 46.2162 74.5945 46.2162C59.3694 46.2162 47.027 58.5586 47.027 73.7838C47.027 89.0089 59.3694 101.351 74.5945 101.351Z" stroke="white" stroke-width="2" stroke-miterlimit="10" stroke-linecap="round" stroke-linejoin="round"/>
<mask id="mask0" mask-type="alpha" maskUnits="userSpaceOnUse" x="0" y="0" width="70" height="150">
<path d="M69.7297 0.810791H0V150H69.7297V0.810791Z" fill="#C4C4C4"/>
</mask>
<g mask="url(#mask0)">
<path d="M16.4285 64.7043C10.3021 78.9616 4.37016 92.3222 7.22421 96.9097C10.0783 101.497 18.9729 100.845 18.9729 100.845V113.314C18.9729 113.314 19.1123 126.739 32.7842 126.739C46.4561 126.739 45.595 126.882 47.3448 126.902C53.2296 126.971 56.3577 129.496 58.0069 137.325C58.5729 140.019 62.3318 141.736 62.3318 141.736H102.991L102.786 104.286C102.786 104.286 101.029 93.2919 106.816 86.2151C112.604 79.1384 121.959 57.0259 112.604 34.62C108.974 26.2756 103.079 19.115 95.5868 13.9499C88.095 8.78477 79.306 5.82178 70.2161 5.39676C60.9022 5.2525 51.7195 7.60416 43.6215 12.2076C13.5534 28.3395 15.5204 55.1205 16.4285 64.7043Z" stroke="white" stroke-width="2" stroke-miterlimit="10" stroke-linecap="round" stroke-linejoin="round"/>
</g>
<path d="M68.1082 5.67566H85.659C85.659 5.67566 85.659 12.3681 85.659 20.1081C90.0828 20.4584 97.8471 23.8654 100.307 27.0405C105.902 21.0211 111.496 15.3259 111.496 15.3259L130.406 34.813C130.406 34.813 130.341 34.9751 120.14 45.5838C123.216 49.7135 125.089 54.6147 125.549 59.7438C138.765 60.1378 141.081 59.9335 141.081 59.9335V87.5838C141.081 87.5838 138.868 87.7605 126.973 87.5838C126.07 92.8665 124.127 97.9175 121.258 102.444C129.13 110.319 131.9 112.949 131.9 112.949L113.123 132.279C113.123 132.279 110.249 129.762 101.69 121.385C97.4733 124.45 92.5446 126.388 87.3698 127.018C87.4087 139.829 87.3698 141.892 87.3698 141.892H68.2233" stroke="white" stroke-width="2" stroke-miterlimit="10" stroke-linecap="round" stroke-linejoin="round"/>
<path d="M77.1515 141.071C77.1515 137.718 74.4313 135 71.0757 135C67.7202 135 65 137.718 65 141.071C65 144.425 67.7202 147.143 71.0757 147.143C74.4313 147.143 77.1515 144.425 77.1515 141.071Z" fill="#1CCB62"/>
<path d="M74.1328 141.094C74.1328 139.512 72.8497 138.229 71.2669 138.229C69.6841 138.229 68.401 139.512 68.401 141.094C68.401 142.677 69.6841 143.959 71.2669 143.959C72.8497 143.959 74.1328 142.677 74.1328 141.094Z" stroke="#151515" stroke-width="3"/>
<path d="M77.1515 141.071C77.1515 137.718 74.4313 135 71.0757 135C67.7202 135 65 137.718 65 141.071C65 144.425 67.7202 147.143 71.0757 147.143C74.4313 147.143 77.1515 144.425 77.1515 141.071Z" stroke="#151515"/>
<path d="M62.1515 94.0715C62.1515 90.7183 59.4313 88 56.0757 88C52.7202 88 50 90.7183 50 94.0715C50 97.4246 52.7202 100.143 56.0757 100.143C59.4313 100.143 62.1515 97.4246 62.1515 94.0715Z" fill="#1CCB62"/>
<path d="M59.1328 94.0942C59.1328 92.5118 57.8497 91.229 56.2669 91.229C54.6841 91.229 53.401 92.5118 53.401 94.0942C53.401 95.6766 54.6841 96.9594 56.2669 96.9594C57.8497 96.9594 59.1328 95.6766 59.1328 94.0942Z" stroke="#151515" stroke-width="3"/>
<path d="M62.1515 94.0715C62.1515 90.7183 59.4313 88 56.0757 88C52.7202 88 50 90.7183 50 94.0715C50 97.4246 52.7202 100.143 56.0757 100.143C59.4313 100.143 62.1515 97.4246 62.1515 94.0715Z" stroke="#151515"/>
<path d="M100.151 55.0714C100.151 51.7182 97.4313 49 94.0757 49C90.7202 49 88 51.7182 88 55.0714C88 58.4245 90.7202 61.1428 94.0757 61.1428C97.4313 61.1428 100.151 58.4245 100.151 55.0714Z" fill="#1CCB62"/>
<path d="M97.1328 55.0941C97.1328 53.5117 95.8497 52.229 94.2669 52.229C92.6841 52.229 91.401 53.5117 91.401 55.0941C91.401 56.6765 92.6841 57.9593 94.2669 57.9593C95.8497 57.9593 97.1328 56.6765 97.1328 55.0941Z" stroke="#151515" stroke-width="3"/>
<path d="M100.151 55.0714C100.151 51.7182 97.4313 49 94.0757 49C90.7202 49 88 51.7182 88 55.0714C88 58.4245 90.7202 61.1428 94.0757 61.1428C97.4313 61.1428 100.151 58.4245 100.151 55.0714Z" stroke="#151515"/>
<path d="M76.1515 6.07145C76.1515 2.71829 73.4313 1.90735e-05 70.0757 1.90735e-05C66.7202 1.90735e-05 64 2.71829 64 6.07145C64 9.42461 66.7202 12.1429 70.0757 12.1429C73.4313 12.1429 76.1515 9.42461 76.1515 6.07145Z" fill="#1CCB62"/>
<path d="M73.1328 6.09418C73.1328 4.51179 71.8497 3.22901 70.2669 3.22901C68.6841 3.22901 67.401 4.51179 67.401 6.09418C67.401 7.67657 68.6841 8.95935 70.2669 8.95935C71.8497 8.95935 73.1328 7.67657 73.1328 6.09418Z" stroke="#151515" stroke-width="3"/>
<path d="M76.1515 6.07145C76.1515 2.71829 73.4313 1.90735e-05 70.0757 1.90735e-05C66.7202 1.90735e-05 64 2.71829 64 6.07145C64 9.42461 66.7202 12.1429 70.0757 12.1429C73.4313 12.1429 76.1515 9.42461 76.1515 6.07145Z" stroke="#151515"/>
</g>
<defs>
<clipPath id="clip0">
<rect width="141.892" height="150" fill="white"/>
</clipPath>
</defs>
</svg>
