<svg width="560" height="319" viewBox="0 0 560 319" fill="none" xmlns="http://www.w3.org/2000/svg">
<g filter="url(#filter0_f)">
<path d="M281 119C298.121 119 312 104.673 312 87C312 69.3269 298.121 55 281 55C263.879 55 250 69.3269 250 87C250 104.673 263.879 119 281 119Z" fill="#1CCB62" fill-opacity="0.3"/>
</g>
<g filter="url(#filter1_f)">
<path d="M281 264C298.121 264 312 249.673 312 232C312 214.327 298.121 200 281 200C263.879 200 250 214.327 250 232C250 249.673 263.879 264 281 264Z" fill="#1CCB62" fill-opacity="0.3"/>
</g>
<path opacity="0.4" d="M150 309C232.29 309 299 242.29 299 160C299 77.7096 232.29 11 150 11C67.7096 11 1 77.7096 1 160C1 242.29 67.7096 309 150 309Z" stroke="white" stroke-width="2"/>
<path opacity="0.4" d="M410 309C492.29 309 559 242.29 559 160C559 77.7096 492.29 11 410 11C327.71 11 261 77.7096 261 160C261 242.29 327.71 309 410 309Z" stroke="white" stroke-width="2"/>
<path d="M280.5 95C284.642 95 288 91.6421 288 87.5C288 83.3579 284.642 80 280.5 80C276.358 80 273 83.3579 273 87.5C273 91.6421 276.358 95 280.5 95Z" fill="#121212" stroke="#1CCB62" stroke-width="2"/>
<path d="M280.5 90.3334C282.065 90.3334 283.333 89.0649 283.333 87.5001C283.333 85.9353 282.065 84.6667 280.5 84.6667C278.935 84.6667 277.667 85.9353 277.667 87.5001C277.667 89.0649 278.935 90.3334 280.5 90.3334Z" fill="#1CCB62"/>
<path d="M279.5 240C283.642 240 287 236.642 287 232.5C287 228.358 283.642 225 279.5 225C275.358 225 272 228.358 272 232.5C272 236.642 275.358 240 279.5 240Z" fill="#121212" stroke="#1CCB62" stroke-width="2"/>
<path d="M279.5 235.333C281.065 235.333 282.333 234.065 282.333 232.5C282.333 230.935 281.065 229.667 279.5 229.667C277.935 229.667 276.667 230.935 276.667 232.5C276.667 234.065 277.935 235.333 279.5 235.333Z" fill="#1CCB62"/>
<path d="M342.676 214.486H337.874V228H335.307V214.486H330.537V212.359H342.676V214.486ZM353.977 220.985H347.542V225.895H355.072V228H344.953V212.359H354.997V214.486H347.542V218.901H353.977V220.985ZM368.586 223.198C368.514 223.95 368.335 224.638 368.049 225.261C367.762 225.877 367.383 226.407 366.91 226.851C366.438 227.287 365.879 227.628 365.234 227.871C364.597 228.107 363.884 228.226 363.097 228.226C362.144 228.226 361.313 228.043 360.604 227.678C359.896 227.305 359.305 226.804 358.832 226.174C358.359 225.544 358.005 224.806 357.769 223.961C357.532 223.116 357.41 222.214 357.403 221.254V219.116C357.41 218.164 357.536 217.265 357.779 216.42C358.023 215.568 358.381 214.826 358.854 214.196C359.333 213.559 359.928 213.058 360.637 212.692C361.346 212.32 362.169 212.134 363.107 212.134C363.931 212.134 364.665 212.256 365.31 212.499C365.954 212.743 366.506 213.086 366.964 213.53C367.422 213.974 367.787 214.515 368.06 215.152C368.332 215.79 368.507 216.499 368.586 217.279H366.008C365.965 216.821 365.875 216.406 365.739 216.033C365.61 215.654 365.431 215.331 365.202 215.066C364.973 214.794 364.683 214.587 364.332 214.443C363.988 214.3 363.58 214.229 363.107 214.229C362.527 214.229 362.04 214.361 361.646 214.626C361.253 214.891 360.934 215.249 360.69 215.7C360.447 216.144 360.271 216.66 360.164 217.247C360.064 217.834 360.014 218.45 360.014 219.095V221.254C360.014 221.927 360.064 222.561 360.164 223.155C360.271 223.743 360.443 224.258 360.68 224.702C360.916 225.146 361.231 225.497 361.625 225.755C362.019 226.013 362.509 226.142 363.097 226.142C363.999 226.142 364.687 225.887 365.159 225.379C365.632 224.863 365.911 224.136 365.997 223.198H368.586ZM381.369 228H378.855V221.018H373.538V228H371.035V212.359H373.538V218.901H378.855V212.359H381.369V228ZM394.571 228H391.972L386.88 217.236L386.869 228H384.259V212.359H386.869L391.939 223.091L391.961 212.359H394.571V228ZM408.268 221.189C408.268 222.113 408.149 223.001 407.913 223.854C407.677 224.699 407.322 225.447 406.85 226.099C406.384 226.743 405.797 227.259 405.088 227.646C404.386 228.025 403.562 228.215 402.617 228.215C401.679 228.215 400.863 228.021 400.168 227.635C399.473 227.248 398.893 226.732 398.428 226.088C397.969 225.436 397.622 224.688 397.386 223.843C397.157 222.998 397.042 222.113 397.042 221.189V219.191C397.042 218.576 397.092 217.974 397.192 217.387C397.3 216.799 397.454 216.248 397.654 215.732C397.862 215.21 398.116 214.73 398.417 214.293C398.725 213.849 399.083 213.469 399.491 213.154C399.907 212.839 400.372 212.592 400.888 212.413C401.41 212.234 401.983 212.145 402.606 212.145C403.552 212.145 404.375 212.338 405.077 212.725C405.786 213.111 406.377 213.631 406.85 214.282C407.322 214.927 407.677 215.675 407.913 216.527C408.149 217.38 408.268 218.268 408.268 219.191V221.189ZM405.679 219.17C405.672 218.583 405.618 217.999 405.518 217.419C405.417 216.839 405.249 216.323 405.013 215.872C404.776 215.414 404.461 215.045 404.067 214.766C403.681 214.479 403.194 214.336 402.606 214.336C402.026 214.336 401.543 214.479 401.156 214.766C400.777 215.045 400.472 215.414 400.243 215.872C400.021 216.33 399.864 216.85 399.771 217.43C399.685 218.003 399.638 218.583 399.631 219.17V221.189C399.638 221.777 399.688 222.36 399.781 222.94C399.874 223.513 400.032 224.033 400.254 224.498C400.483 224.956 400.787 225.329 401.167 225.615C401.554 225.902 402.037 226.045 402.617 226.045C403.204 226.045 403.691 225.902 404.078 225.615C404.472 225.329 404.787 224.956 405.023 224.498C405.26 224.04 405.424 223.521 405.518 222.94C405.618 222.36 405.672 221.777 405.679 221.189V219.17ZM413.703 225.895H421.158V228H411.125V212.359H413.703V225.895ZM434.693 221.189C434.693 222.113 434.575 223.001 434.339 223.854C434.103 224.699 433.748 225.447 433.275 226.099C432.81 226.743 432.223 227.259 431.514 227.646C430.812 228.025 429.988 228.215 429.043 228.215C428.105 228.215 427.288 228.021 426.594 227.635C425.899 227.248 425.319 226.732 424.854 226.088C424.395 225.436 424.048 224.688 423.812 223.843C423.582 222.998 423.468 222.113 423.468 221.189V219.191C423.468 218.576 423.518 217.974 423.618 217.387C423.726 216.799 423.88 216.248 424.08 215.732C424.288 215.21 424.542 214.73 424.843 214.293C425.151 213.849 425.509 213.469 425.917 213.154C426.332 212.839 426.798 212.592 427.313 212.413C427.836 212.234 428.409 212.145 429.032 212.145C429.978 212.145 430.801 212.338 431.503 212.725C432.212 213.111 432.803 213.631 433.275 214.282C433.748 214.927 434.103 215.675 434.339 216.527C434.575 217.38 434.693 218.268 434.693 219.191V221.189ZM432.104 219.17C432.097 218.583 432.044 217.999 431.943 217.419C431.843 216.839 431.675 216.323 431.438 215.872C431.202 215.414 430.887 215.045 430.493 214.766C430.106 214.479 429.619 214.336 429.032 214.336C428.452 214.336 427.969 214.479 427.582 214.766C427.202 215.045 426.898 215.414 426.669 215.872C426.447 216.33 426.289 216.85 426.196 217.43C426.11 218.003 426.064 218.583 426.057 219.17V221.189C426.064 221.777 426.114 222.36 426.207 222.94C426.3 223.513 426.458 224.033 426.68 224.498C426.909 224.956 427.213 225.329 427.593 225.615C427.979 225.902 428.463 226.045 429.043 226.045C429.63 226.045 430.117 225.902 430.504 225.615C430.898 225.329 431.213 224.956 431.449 224.498C431.686 224.04 431.85 223.521 431.943 222.94C432.044 222.36 432.097 221.777 432.104 221.189V219.17ZM447.799 226.045C447.534 226.36 447.222 226.65 446.864 226.915C446.506 227.18 446.105 227.409 445.661 227.603C445.217 227.796 444.734 227.946 444.211 228.054C443.695 228.161 443.144 228.215 442.557 228.215C441.618 228.215 440.788 228.032 440.064 227.667C439.341 227.302 438.729 226.804 438.228 226.174C437.733 225.536 437.354 224.788 437.089 223.929C436.831 223.069 436.699 222.146 436.691 221.157V219.224C436.691 218.235 436.82 217.312 437.078 216.452C437.336 215.593 437.705 214.844 438.185 214.207C438.672 213.57 439.266 213.068 439.968 212.703C440.67 212.331 441.472 212.145 442.374 212.145C443.183 212.145 443.907 212.256 444.544 212.478C445.181 212.7 445.729 213.022 446.188 213.444C446.646 213.86 447.007 214.368 447.272 214.97C447.545 215.571 447.716 216.244 447.788 216.989H445.253C445.188 216.567 445.088 216.187 444.952 215.851C444.816 215.514 444.633 215.228 444.404 214.991C444.175 214.755 443.896 214.576 443.566 214.454C443.244 214.325 442.861 214.261 442.417 214.261C441.873 214.261 441.404 214.397 441.01 214.669C440.623 214.934 440.301 215.296 440.043 215.754C439.785 216.205 439.595 216.731 439.474 217.333C439.352 217.927 439.287 218.55 439.28 219.202V221.157C439.287 221.809 439.352 222.432 439.474 223.026C439.603 223.621 439.799 224.147 440.064 224.605C440.337 225.057 440.684 225.418 441.106 225.69C441.529 225.963 442.037 226.102 442.632 226.109C442.875 226.109 443.126 226.095 443.384 226.066C443.642 226.031 443.885 225.977 444.114 225.905C444.351 225.834 444.565 225.744 444.759 225.637C444.952 225.522 445.11 225.382 445.231 225.218L445.253 222.092H442.428V220.083H447.777L447.799 226.045ZM450.86 212.359H460.163V214.497H456.779V225.873H460.163V228H450.86V225.873H454.169V214.497H450.86V212.359ZM472.893 220.985H466.458V225.895H473.988V228H463.869V212.359H473.913V214.486H466.458V218.901H472.893V220.985ZM485.063 223.972C485.063 223.599 484.985 223.273 484.827 222.994C484.677 222.708 484.458 222.457 484.172 222.242C483.893 222.027 483.556 221.841 483.162 221.684C482.775 221.519 482.353 221.368 481.895 221.232C481.279 221.053 480.67 220.831 480.068 220.566C479.474 220.301 478.94 219.979 478.468 219.6C478.002 219.213 477.623 218.765 477.329 218.257C477.043 217.741 476.899 217.147 476.899 216.474C476.899 215.8 477.043 215.199 477.329 214.669C477.623 214.132 478.013 213.677 478.5 213.305C478.987 212.932 479.553 212.646 480.197 212.445C480.842 212.245 481.515 212.145 482.217 212.145C482.969 212.145 483.671 212.263 484.322 212.499C484.981 212.728 485.554 213.054 486.041 213.477C486.535 213.892 486.925 214.393 487.212 214.98C487.498 215.561 487.645 216.205 487.652 216.914H485.074C485.038 216.52 484.952 216.162 484.816 215.84C484.688 215.51 484.501 215.228 484.258 214.991C484.021 214.755 483.731 214.572 483.388 214.443C483.044 214.314 482.646 214.25 482.195 214.25C481.809 214.25 481.451 214.3 481.121 214.4C480.792 214.501 480.505 214.647 480.262 214.841C480.025 215.034 479.839 215.267 479.703 215.539C479.567 215.811 479.499 216.119 479.499 216.463C479.499 216.828 479.592 217.147 479.778 217.419C479.965 217.684 480.208 217.917 480.509 218.117C480.81 218.318 481.153 218.493 481.54 218.644C481.934 218.787 482.342 218.919 482.765 219.041C483.416 219.234 484.039 219.474 484.634 219.761C485.228 220.04 485.751 220.38 486.202 220.781C486.653 221.175 487.011 221.633 487.276 222.156C487.541 222.679 487.674 223.277 487.674 223.95C487.674 224.645 487.527 225.257 487.233 225.787C486.94 226.317 486.546 226.761 486.052 227.119C485.558 227.477 484.985 227.749 484.333 227.936C483.681 228.115 483.001 228.204 482.292 228.204C481.812 228.204 481.336 228.158 480.863 228.064C480.391 227.971 479.936 227.832 479.499 227.646C479.069 227.459 478.668 227.23 478.296 226.958C477.924 226.679 477.598 226.36 477.318 226.002C477.046 225.637 476.831 225.232 476.674 224.788C476.516 224.337 476.434 223.843 476.427 223.306H479.016C479.051 223.778 479.155 224.19 479.327 224.541C479.499 224.892 479.728 225.186 480.015 225.422C480.301 225.651 480.634 225.826 481.014 225.948C481.4 226.063 481.826 226.12 482.292 226.12C482.679 226.12 483.04 226.074 483.377 225.98C483.714 225.887 484.007 225.751 484.258 225.572C484.508 225.386 484.705 225.16 484.849 224.896C484.992 224.623 485.063 224.315 485.063 223.972Z" fill="white"/>
<path d="M410 147.5V177.517" stroke="white" stroke-width="2" stroke-linecap="round" stroke-linejoin="round"/>
<path d="M409.75 147C414.721 147 418.75 142.971 418.75 138C418.75 133.029 414.721 129 409.75 129C404.779 129 400.75 133.029 400.75 138C400.75 142.971 404.779 147 409.75 147Z" stroke="white" stroke-width="2" stroke-linecap="round" stroke-linejoin="round"/>
<path d="M445.449 117L418 132.6" stroke="white" stroke-width="2" stroke-linecap="round" stroke-linejoin="round"/>
<path d="M374 117L401.449 132.6" stroke="white" stroke-width="2" stroke-linecap="round" stroke-linejoin="round"/>
<path fill-rule="evenodd" clip-rule="evenodd" d="M409.404 92L448.808 114.75V160.25L409.404 183L370 160.25V114.75L409.404 92Z" stroke="white" stroke-width="2" stroke-linecap="round" stroke-linejoin="round"/>
<path d="M410 96C411.657 96 413 94.6569 413 93C413 91.3431 411.657 90 410 90C408.343 90 407 91.3431 407 93C407 94.6569 408.343 96 410 96Z" fill="white"/>
<path d="M410 95.25C411.243 95.25 412.25 94.2426 412.25 93C412.25 91.7574 411.243 90.75 410 90.75C408.757 90.75 407.75 91.7574 407.75 93C407.75 94.2426 408.757 95.25 410 95.25Z" stroke="#151515" stroke-width="1.5"/>
<path d="M410 96C411.657 96 413 94.6569 413 93C413 91.3431 411.657 90 410 90C408.343 90 407 91.3431 407 93C407 94.6569 408.343 96 410 96Z" stroke="#151515"/>
<path d="M410 185C411.657 185 413 183.657 413 182C413 180.343 411.657 179 410 179C408.343 179 407 180.343 407 182C407 183.657 408.343 185 410 185Z" fill="white"/>
<path d="M410 184.25C411.243 184.25 412.25 183.243 412.25 182C412.25 180.757 411.243 179.75 410 179.75C408.757 179.75 407.75 180.757 407.75 182C407.75 183.243 408.757 184.25 410 184.25Z" stroke="#151515" stroke-width="1.5"/>
<path d="M410 185C411.657 185 413 183.657 413 182C413 180.343 411.657 179 410 179C408.343 179 407 180.343 407 182C407 183.657 408.343 185 410 185Z" stroke="#151515"/>
<path d="M449 118C450.657 118 452 116.657 452 115C452 113.343 450.657 112 449 112C447.343 112 446 113.343 446 115C446 116.657 447.343 118 449 118Z" fill="white"/>
<path d="M449 117.25C450.243 117.25 451.25 116.243 451.25 115C451.25 113.757 450.243 112.75 449 112.75C447.757 112.75 446.75 113.757 446.75 115C446.75 116.243 447.757 117.25 449 117.25Z" stroke="#151515" stroke-width="1.5"/>
<path d="M449 118C450.657 118 452 116.657 452 115C452 113.343 450.657 112 449 112C447.343 112 446 113.343 446 115C446 116.657 447.343 118 449 118Z" stroke="#151515"/>
<path d="M370 118C371.657 118 373 116.657 373 115C373 113.343 371.657 112 370 112C368.343 112 367 113.343 367 115C367 116.657 368.343 118 370 118Z" fill="white"/>
<path d="M370 117.25C371.243 117.25 372.25 116.243 372.25 115C372.25 113.757 371.243 112.75 370 112.75C368.757 112.75 367.75 113.757 367.75 115C367.75 116.243 368.757 117.25 370 117.25Z" stroke="#151515" stroke-width="1.5"/>
<path d="M370 118C371.657 118 373 116.657 373 115C373 113.343 371.657 112 370 112C368.343 112 367 113.343 367 115C367 116.657 368.343 118 370 118Z" stroke="#151515"/>
<path d="M370 162C371.657 162 373 160.657 373 159C373 157.343 371.657 156 370 156C368.343 156 367 157.343 367 159C367 160.657 368.343 162 370 162Z" fill="white"/>
<path d="M370 161.25C371.243 161.25 372.25 160.243 372.25 159C372.25 157.757 371.243 156.75 370 156.75C368.757 156.75 367.75 157.757 367.75 159C367.75 160.243 368.757 161.25 370 161.25Z" stroke="#151515" stroke-width="1.5"/>
<path d="M370 162C371.657 162 373 160.657 373 159C373 157.343 371.657 156 370 156C368.343 156 367 157.343 367 159C367 160.657 368.343 162 370 162Z" stroke="#151515"/>
<path d="M410 97C412.209 97 414 95.2091 414 93C414 90.7909 412.209 89 410 89C407.791 89 406 90.7909 406 93C406 95.2091 407.791 97 410 97Z" stroke="#1CCB62" stroke-linecap="round" stroke-linejoin="round"/>
<path d="M410 186C412.209 186 414 184.209 414 182C414 179.791 412.209 178 410 178C407.791 178 406 179.791 406 182C406 184.209 407.791 186 410 186Z" stroke="#1CCB62" stroke-linecap="round" stroke-linejoin="round"/>
<path d="M449 119C451.209 119 453 117.209 453 115C453 112.791 451.209 111 449 111C446.791 111 445 112.791 445 115C445 117.209 446.791 119 449 119Z" stroke="#1CCB62" stroke-linecap="round" stroke-linejoin="round"/>
<path d="M370 119C372.209 119 374 117.209 374 115C374 112.791 372.209 111 370 111C367.791 111 366 112.791 366 115C366 117.209 367.791 119 370 119Z" stroke="#1CCB62" stroke-linecap="round" stroke-linejoin="round"/>
<path d="M449 162C450.657 162 452 160.657 452 159C452 157.343 450.657 156 449 156C447.343 156 446 157.343 446 159C446 160.657 447.343 162 449 162Z" fill="white"/>
<path d="M449 161.25C450.243 161.25 451.25 160.243 451.25 159C451.25 157.757 450.243 156.75 449 156.75C447.757 156.75 446.75 157.757 446.75 159C446.75 160.243 447.757 161.25 449 161.25Z" stroke="#151515" stroke-width="1.5"/>
<path d="M449 162C450.657 162 452 160.657 452 159C452 157.343 450.657 156 449 156C447.343 156 446 157.343 446 159C446 160.657 447.343 162 449 162Z" stroke="#151515"/>
<path d="M449 163C451.209 163 453 161.209 453 159C453 156.791 451.209 155 449 155C446.791 155 445 156.791 445 159C445 161.209 446.791 163 449 163Z" stroke="#1CCB62" stroke-linecap="round" stroke-linejoin="round"/>
<path d="M370 163C372.209 163 374 161.209 374 159C374 156.791 372.209 155 370 155C367.791 155 366 156.791 366 159C366 161.209 367.791 163 370 163Z" stroke="#1CCB62" stroke-linecap="round" stroke-linejoin="round"/>
<path d="M376.151 159.071C376.151 155.718 373.431 153 370.076 153C366.72 153 364 155.718 364 159.071C364 162.425 366.72 165.143 370.076 165.143C373.431 165.143 376.151 162.425 376.151 159.071Z" fill="#1CCB62"/>
<path d="M373.133 159.094C373.133 157.512 371.85 156.229 370.267 156.229C368.684 156.229 367.401 157.512 367.401 159.094C367.401 160.677 368.684 161.959 370.267 161.959C371.85 161.959 373.133 160.677 373.133 159.094Z" stroke="#151515" stroke-width="3"/>
<path d="M376.151 159.071C376.151 155.718 373.431 153 370.076 153C366.72 153 364 155.718 364 159.071C364 162.425 366.72 165.143 370.076 165.143C373.431 165.143 376.151 162.425 376.151 159.071Z" stroke="#151515"/>
<path d="M416.151 182.071C416.151 178.718 413.431 176 410.076 176C406.72 176 404 178.718 404 182.071C404 185.425 406.72 188.143 410.076 188.143C413.431 188.143 416.151 185.425 416.151 182.071Z" fill="#1CCB62"/>
<path d="M413.133 182.094C413.133 180.512 411.85 179.229 410.267 179.229C408.684 179.229 407.401 180.512 407.401 182.094C407.401 183.677 408.684 184.959 410.267 184.959C411.85 184.959 413.133 183.677 413.133 182.094Z" stroke="#151515" stroke-width="3"/>
<path d="M416.151 182.071C416.151 178.718 413.431 176 410.076 176C406.72 176 404 178.718 404 182.071C404 185.425 406.72 188.143 410.076 188.143C413.431 188.143 416.151 185.425 416.151 182.071Z" stroke="#151515"/>
<path d="M416.151 93.0714C416.151 89.7182 413.431 87 410.076 87C406.72 87 404 89.7182 404 93.0714C404 96.4245 406.72 99.1428 410.076 99.1428C413.431 99.1428 416.151 96.4245 416.151 93.0714Z" fill="#1CCB62"/>
<path d="M413.133 93.0941C413.133 91.5117 411.85 90.229 410.267 90.229C408.684 90.229 407.401 91.5117 407.401 93.0941C407.401 94.6765 408.684 95.9593 410.267 95.9593C411.85 95.9593 413.133 94.6765 413.133 93.0941Z" stroke="#151515" stroke-width="3"/>
<path d="M416.151 93.0714C416.151 89.7182 413.431 87 410.076 87C406.72 87 404 89.7182 404 93.0714C404 96.4245 406.72 99.1428 410.076 99.1428C413.431 99.1428 416.151 96.4245 416.151 93.0714Z" stroke="#151515"/>
<path d="M455.151 159.071C455.151 155.718 452.431 153 449.076 153C445.72 153 443 155.718 443 159.071C443 162.425 445.72 165.143 449.076 165.143C452.431 165.143 455.151 162.425 455.151 159.071Z" fill="#1CCB62"/>
<path d="M452.133 159.094C452.133 157.512 450.85 156.229 449.267 156.229C447.684 156.229 446.401 157.512 446.401 159.094C446.401 160.677 447.684 161.959 449.267 161.959C450.85 161.959 452.133 160.677 452.133 159.094Z" stroke="#151515" stroke-width="3"/>
<path d="M455.151 159.071C455.151 155.718 452.431 153 449.076 153C445.72 153 443 155.718 443 159.071C443 162.425 445.72 165.143 449.076 165.143C452.431 165.143 455.151 162.425 455.151 159.071Z" stroke="#151515"/>
<path d="M455.151 115.071C455.151 111.718 452.431 109 449.076 109C445.72 109 443 111.718 443 115.071C443 118.425 445.72 121.143 449.076 121.143C452.431 121.143 455.151 118.425 455.151 115.071Z" fill="#1CCB62"/>
<path d="M452.133 115.094C452.133 113.512 450.85 112.229 449.267 112.229C447.684 112.229 446.401 113.512 446.401 115.094C446.401 116.677 447.684 117.959 449.267 117.959C450.85 117.959 452.133 116.677 452.133 115.094Z" stroke="#151515" stroke-width="3"/>
<path d="M455.151 115.071C455.151 111.718 452.431 109 449.076 109C445.72 109 443 111.718 443 115.071C443 118.425 445.72 121.143 449.076 121.143C452.431 121.143 455.151 118.425 455.151 115.071Z" stroke="#151515"/>
<path d="M376.151 115.071C376.151 111.718 373.431 109 370.076 109C366.72 109 364 111.718 364 115.071C364 118.425 366.72 121.143 370.076 121.143C373.431 121.143 376.151 118.425 376.151 115.071Z" fill="#1CCB62"/>
<path d="M373.133 115.094C373.133 113.512 371.85 112.229 370.267 112.229C368.684 112.229 367.401 113.512 367.401 115.094C367.401 116.677 368.684 117.959 370.267 117.959C371.85 117.959 373.133 116.677 373.133 115.094Z" stroke="#151515" stroke-width="3"/>
<path d="M376.151 115.071C376.151 111.718 373.431 109 370.076 109C366.72 109 364 111.718 364 115.071C364 118.425 366.72 121.143 370.076 121.143C373.431 121.143 376.151 118.425 376.151 115.071Z" stroke="#151515"/>
<path d="M276 225C257.5 187.5 254.5 137.5 276 94.5" stroke="#1CCB62" stroke-width="2"/>
<path d="M284 94.5C302.5 132 305.5 182.5 284 225.5" stroke="#1CCB62" stroke-width="2"/>
<path d="M112.722 223.972C112.722 223.599 112.643 223.273 112.485 222.994C112.335 222.708 112.117 222.457 111.83 222.242C111.551 222.027 111.214 221.841 110.82 221.684C110.434 221.519 110.011 221.368 109.553 221.232C108.937 221.053 108.328 220.831 107.727 220.566C107.132 220.301 106.599 219.979 106.126 219.6C105.66 219.213 105.281 218.765 104.987 218.257C104.701 217.741 104.558 217.147 104.558 216.474C104.558 215.8 104.701 215.199 104.987 214.669C105.281 214.132 105.671 213.677 106.158 213.305C106.645 212.932 107.211 212.646 107.855 212.445C108.5 212.245 109.173 212.145 109.875 212.145C110.627 212.145 111.329 212.263 111.98 212.499C112.639 212.728 113.212 213.054 113.699 213.477C114.193 213.892 114.584 214.393 114.87 214.98C115.157 215.561 115.303 216.205 115.311 216.914H112.732C112.697 216.52 112.611 216.162 112.475 215.84C112.346 215.51 112.16 215.228 111.916 214.991C111.68 214.755 111.39 214.572 111.046 214.443C110.702 214.314 110.305 214.25 109.854 214.25C109.467 214.25 109.109 214.3 108.779 214.4C108.45 214.501 108.163 214.647 107.92 214.841C107.684 215.034 107.497 215.267 107.361 215.539C107.225 215.811 107.157 216.119 107.157 216.463C107.157 216.828 107.25 217.147 107.437 217.419C107.623 217.684 107.866 217.917 108.167 218.117C108.468 218.318 108.812 218.493 109.198 218.644C109.592 218.787 110 218.919 110.423 219.041C111.075 219.234 111.698 219.474 112.292 219.761C112.886 220.04 113.409 220.38 113.86 220.781C114.312 221.175 114.67 221.633 114.935 222.156C115.2 222.679 115.332 223.277 115.332 223.95C115.332 224.645 115.185 225.257 114.892 225.787C114.598 226.317 114.204 226.761 113.71 227.119C113.216 227.477 112.643 227.749 111.991 227.936C111.34 228.115 110.659 228.204 109.95 228.204C109.47 228.204 108.994 228.158 108.521 228.064C108.049 227.971 107.594 227.832 107.157 227.646C106.728 227.459 106.326 227.23 105.954 226.958C105.582 226.679 105.256 226.36 104.977 226.002C104.704 225.637 104.49 225.232 104.332 224.788C104.174 224.337 104.092 223.843 104.085 223.306H106.674C106.71 223.778 106.813 224.19 106.985 224.541C107.157 224.892 107.386 225.186 107.673 225.422C107.959 225.651 108.292 225.826 108.672 225.948C109.059 226.063 109.485 226.12 109.95 226.12C110.337 226.12 110.699 226.074 111.035 225.98C111.372 225.887 111.665 225.751 111.916 225.572C112.167 225.386 112.364 225.16 112.507 224.896C112.65 224.623 112.722 224.315 112.722 223.972ZM128.373 223.198C128.301 223.95 128.122 224.638 127.836 225.261C127.549 225.877 127.17 226.407 126.697 226.851C126.225 227.287 125.666 227.628 125.021 227.871C124.384 228.107 123.672 228.226 122.884 228.226C121.931 228.226 121.101 228.043 120.392 227.678C119.683 227.305 119.092 226.804 118.619 226.174C118.146 225.544 117.792 224.806 117.556 223.961C117.319 223.116 117.198 222.214 117.19 221.254V219.116C117.198 218.164 117.323 217.265 117.566 216.42C117.81 215.568 118.168 214.826 118.641 214.196C119.12 213.559 119.715 213.058 120.424 212.692C121.133 212.32 121.956 212.134 122.895 212.134C123.718 212.134 124.452 212.256 125.097 212.499C125.741 212.743 126.293 213.086 126.751 213.53C127.209 213.974 127.575 214.515 127.847 215.152C128.119 215.79 128.294 216.499 128.373 217.279H125.795C125.752 216.821 125.662 216.406 125.526 216.033C125.397 215.654 125.218 215.331 124.989 215.066C124.76 214.794 124.47 214.587 124.119 214.443C123.775 214.3 123.367 214.229 122.895 214.229C122.314 214.229 121.827 214.361 121.434 214.626C121.04 214.891 120.721 215.249 120.478 215.7C120.234 216.144 120.059 216.66 119.951 217.247C119.851 217.834 119.801 218.45 119.801 219.095V221.254C119.801 221.927 119.851 222.561 119.951 223.155C120.059 223.743 120.23 224.258 120.467 224.702C120.703 225.146 121.018 225.497 121.412 225.755C121.806 226.013 122.297 226.142 122.884 226.142C123.786 226.142 124.474 225.887 124.946 225.379C125.419 224.863 125.698 224.136 125.784 223.198H128.373ZM131.37 212.359H140.673V214.497H137.289V225.873H140.673V228H131.37V225.873H134.679V214.497H131.37V212.359ZM153.402 220.985H146.968V225.895H154.498V228H144.379V212.359H154.423V214.486H146.968V218.901H153.402V220.985ZM167.571 228H164.972L159.88 217.236L159.869 228H157.259V212.359H159.869L164.939 223.091L164.961 212.359H167.571V228ZM181.225 223.198C181.153 223.95 180.974 224.638 180.688 225.261C180.401 225.877 180.021 226.407 179.549 226.851C179.076 227.287 178.518 227.628 177.873 227.871C177.236 228.107 176.523 228.226 175.735 228.226C174.783 228.226 173.952 228.043 173.243 227.678C172.534 227.305 171.943 226.804 171.471 226.174C170.998 225.544 170.644 224.806 170.407 223.961C170.171 223.116 170.049 222.214 170.042 221.254V219.116C170.049 218.164 170.174 217.265 170.418 216.42C170.661 215.568 171.02 214.826 171.492 214.196C171.972 213.559 172.566 213.058 173.275 212.692C173.984 212.32 174.808 212.134 175.746 212.134C176.57 212.134 177.304 212.256 177.948 212.499C178.593 212.743 179.144 213.086 179.603 213.53C180.061 213.974 180.426 214.515 180.698 215.152C180.97 215.79 181.146 216.499 181.225 217.279H178.646C178.604 216.821 178.514 216.406 178.378 216.033C178.249 215.654 178.07 215.331 177.841 215.066C177.612 214.794 177.322 214.587 176.971 214.443C176.627 214.3 176.219 214.229 175.746 214.229C175.166 214.229 174.679 214.361 174.285 214.626C173.891 214.891 173.573 215.249 173.329 215.7C173.086 216.144 172.91 216.66 172.803 217.247C172.702 217.834 172.652 218.45 172.652 219.095V221.254C172.652 221.927 172.702 222.561 172.803 223.155C172.91 223.743 173.082 224.258 173.318 224.702C173.555 225.146 173.87 225.497 174.264 225.755C174.658 226.013 175.148 226.142 175.735 226.142C176.638 226.142 177.325 225.887 177.798 225.379C178.271 224.863 178.55 224.136 178.636 223.198H181.225ZM193.041 220.985H186.606V225.895H194.137V228H184.018V212.359H194.062V214.486H186.606V218.901H193.041V220.985Z" fill="white"/>
<path fill-rule="evenodd" clip-rule="evenodd" d="M154.881 109.517C159.422 110.734 170.616 149.509 167.212 152.807C163.809 156.106 123.942 145.708 122.556 140.842C121.17 135.976 150.339 108.3 154.881 109.517Z" stroke="white" stroke-width="2" stroke-linecap="round" stroke-linejoin="round"/>
<path d="M122.688 142.119C116.094 149.97 114.754 161.412 120.177 170.805C127.105 182.805 142.449 186.916 154.448 179.988C163.95 174.502 168.506 163.74 166.552 153.539" stroke="white" stroke-width="2" stroke-linecap="round" stroke-linejoin="round"/>
<path d="M153.67 109.314C150.442 99.9262 141.614 93.1072 131.114 92.9239C117.699 92.6897 106.635 103.375 106.401 116.789C106.215 127.412 112.876 136.56 122.317 140.025" stroke="white" stroke-width="2" stroke-linecap="round" stroke-linejoin="round"/>
<path d="M156.247 110.043C163.848 103.658 174.927 102.36 184.022 107.611C195.642 114.319 199.623 129.177 192.914 140.796C187.602 149.996 177.181 154.408 167.304 152.515" stroke="white" stroke-width="2" stroke-linecap="round" stroke-linejoin="round"/>
<path d="M131 96C132.657 96 134 94.6569 134 93C134 91.3431 132.657 90 131 90C129.343 90 128 91.3431 128 93C128 94.6569 129.343 96 131 96Z" fill="#C2C2C2"/>
<path d="M131 95.25C132.243 95.25 133.25 94.2426 133.25 93C133.25 91.7574 132.243 90.75 131 90.75C129.757 90.75 128.75 91.7574 128.75 93C128.75 94.2426 129.757 95.25 131 95.25Z" stroke="#151515" stroke-width="1.5"/>
<path d="M131 96C132.657 96 134 94.6569 134 93C134 91.3431 132.657 90 131 90C129.343 90 128 91.3431 128 93C128 94.6569 129.343 96 131 96Z" stroke="#1CCB62"/>
<path d="M107 124C108.657 124 110 122.657 110 121C110 119.343 108.657 118 107 118C105.343 118 104 119.343 104 121C104 122.657 105.343 124 107 124Z" fill="#C2C2C2"/>
<path d="M107 123.25C108.243 123.25 109.25 122.243 109.25 121C109.25 119.757 108.243 118.75 107 118.75C105.757 118.75 104.75 119.757 104.75 121C104.75 122.243 105.757 123.25 107 123.25Z" stroke="#151515" stroke-width="1.5"/>
<path d="M107 124C108.657 124 110 122.657 110 121C110 119.343 108.657 118 107 118C105.343 118 104 119.343 104 121C104 122.657 105.343 124 107 124Z" stroke="#1CCB62"/>
<path d="M153 183C154.657 183 156 181.657 156 180C156 178.343 154.657 177 153 177C151.343 177 150 178.343 150 180C150 181.657 151.343 183 153 183Z" stroke="#1CCB62"/>
<path d="M189 149C190.657 149 192 147.657 192 146C192 144.343 190.657 143 189 143C187.343 143 186 144.343 186 146C186 147.657 187.343 149 189 149Z" fill="#C2C2C2"/>
<path d="M189 148.25C190.243 148.25 191.25 147.243 191.25 146C191.25 144.757 190.243 143.75 189 143.75C187.757 143.75 186.75 144.757 186.75 146C186.75 147.243 187.757 148.25 189 148.25Z" stroke="#151515" stroke-width="1.5"/>
<path d="M189 149C190.657 149 192 147.657 192 146C192 144.343 190.657 143 189 143C187.343 143 186 144.343 186 146C186 147.657 187.343 149 189 149Z" stroke="#1CCB62"/>
<path d="M181 109C182.657 109 184 107.657 184 106C184 104.343 182.657 103 181 103C179.343 103 178 104.343 178 106C178 107.657 179.343 109 181 109Z" fill="#C2C2C2"/>
<path d="M181 108.25C182.243 108.25 183.25 107.243 183.25 106C183.25 104.757 182.243 103.75 181 103.75C179.757 103.75 178.75 104.757 178.75 106C178.75 107.243 179.757 108.25 181 108.25Z" stroke="#151515" stroke-width="1.5"/>
<path d="M181 109C182.657 109 184 107.657 184 106C184 104.343 182.657 103 181 103C179.343 103 178 104.343 178 106C178 107.657 179.343 109 181 109Z" stroke="#1CCB62"/>
<path d="M118 169C119.657 169 121 167.657 121 166C121 164.343 119.657 163 118 163C116.343 163 115 164.343 115 166C115 167.657 116.343 169 118 169Z" fill="white"/>
<path d="M118 168.25C119.243 168.25 120.25 167.243 120.25 166C120.25 164.757 119.243 163.75 118 163.75C116.757 163.75 115.75 164.757 115.75 166C115.75 167.243 116.757 168.25 118 168.25Z" stroke="#151515" stroke-width="1.5"/>
<path d="M118 169C119.657 169 121 167.657 121 166C121 164.343 119.657 163 118 163C116.343 163 115 164.343 115 166C115 167.657 116.343 169 118 169Z" stroke="#151515"/>
<path d="M118 170C120.209 170 122 168.209 122 166C122 163.791 120.209 162 118 162C115.791 162 114 163.791 114 166C114 168.209 115.791 170 118 170Z" stroke="#1CCB62" stroke-linecap="round" stroke-linejoin="round"/>
<path d="M153 183C154.657 183 156 181.657 156 180C156 178.343 154.657 177 153 177C151.343 177 150 178.343 150 180C150 181.657 151.343 183 153 183Z" fill="white"/>
<path d="M153 182.25C154.243 182.25 155.25 181.243 155.25 180C155.25 178.757 154.243 177.75 153 177.75C151.757 177.75 150.75 178.757 150.75 180C150.75 181.243 151.757 182.25 153 182.25Z" stroke="#151515" stroke-width="1.5"/>
<path d="M153 183C154.657 183 156 181.657 156 180C156 178.343 154.657 177 153 177C151.343 177 150 178.343 150 180C150 181.657 151.343 183 153 183Z" stroke="#151515"/>
<path d="M153 184C155.209 184 157 182.209 157 180C157 177.791 155.209 176 153 176C150.791 176 149 177.791 149 180C149 182.209 150.791 184 153 184Z" stroke="#1CCB62" stroke-linecap="round" stroke-linejoin="round"/>
<path d="M189 149C190.657 149 192 147.657 192 146C192 144.343 190.657 143 189 143C187.343 143 186 144.343 186 146C186 147.657 187.343 149 189 149Z" fill="white"/>
<path d="M189 148.25C190.243 148.25 191.25 147.243 191.25 146C191.25 144.757 190.243 143.75 189 143.75C187.757 143.75 186.75 144.757 186.75 146C186.75 147.243 187.757 148.25 189 148.25Z" stroke="#151515" stroke-width="1.5"/>
<path d="M189 149C190.657 149 192 147.657 192 146C192 144.343 190.657 143 189 143C187.343 143 186 144.343 186 146C186 147.657 187.343 149 189 149Z" stroke="#151515"/>
<path d="M189 150C191.209 150 193 148.209 193 146C193 143.791 191.209 142 189 142C186.791 142 185 143.791 185 146C185 148.209 186.791 150 189 150Z" stroke="#1CCB62" stroke-linecap="round" stroke-linejoin="round"/>
<path d="M181 109C182.657 109 184 107.657 184 106C184 104.343 182.657 103 181 103C179.343 103 178 104.343 178 106C178 107.657 179.343 109 181 109Z" fill="white"/>
<path d="M181 108.25C182.243 108.25 183.25 107.243 183.25 106C183.25 104.757 182.243 103.75 181 103.75C179.757 103.75 178.75 104.757 178.75 106C178.75 107.243 179.757 108.25 181 108.25Z" stroke="#151515" stroke-width="1.5"/>
<path d="M181 109C182.657 109 184 107.657 184 106C184 104.343 182.657 103 181 103C179.343 103 178 104.343 178 106C178 107.657 179.343 109 181 109Z" stroke="#151515"/>
<path d="M181 110C183.209 110 185 108.209 185 106C185 103.791 183.209 102 181 102C178.791 102 177 103.791 177 106C177 108.209 178.791 110 181 110Z" stroke="#1CCB62" stroke-linecap="round" stroke-linejoin="round"/>
<path d="M131 96C132.657 96 134 94.6569 134 93C134 91.3431 132.657 90 131 90C129.343 90 128 91.3431 128 93C128 94.6569 129.343 96 131 96Z" fill="white"/>
<path d="M131 95.25C132.243 95.25 133.25 94.2426 133.25 93C133.25 91.7574 132.243 90.75 131 90.75C129.757 90.75 128.75 91.7574 128.75 93C128.75 94.2426 129.757 95.25 131 95.25Z" stroke="#151515" stroke-width="1.5"/>
<path d="M131 96C132.657 96 134 94.6569 134 93C134 91.3431 132.657 90 131 90C129.343 90 128 91.3431 128 93C128 94.6569 129.343 96 131 96Z" stroke="#151515"/>
<path d="M131 97C133.209 97 135 95.2091 135 93C135 90.7909 133.209 89 131 89C128.791 89 127 90.7909 127 93C127 95.2091 128.791 97 131 97Z" stroke="#1CCB62" stroke-linecap="round" stroke-linejoin="round"/>
<path d="M107 124C108.657 124 110 122.657 110 121C110 119.343 108.657 118 107 118C105.343 118 104 119.343 104 121C104 122.657 105.343 124 107 124Z" fill="white"/>
<path d="M107 123.25C108.243 123.25 109.25 122.243 109.25 121C109.25 119.757 108.243 118.75 107 118.75C105.757 118.75 104.75 119.757 104.75 121C104.75 122.243 105.757 123.25 107 123.25Z" stroke="#151515" stroke-width="1.5"/>
<path d="M107 124C108.657 124 110 122.657 110 121C110 119.343 108.657 118 107 118C105.343 118 104 119.343 104 121C104 122.657 105.343 124 107 124Z" stroke="#151515"/>
<path d="M107 125C109.209 125 111 123.209 111 121C111 118.791 109.209 117 107 117C104.791 117 103 118.791 103 121C103 123.209 104.791 125 107 125Z" stroke="#1CCB62" stroke-linecap="round" stroke-linejoin="round"/>
<path d="M113.151 121.071C113.151 117.718 110.431 115 107.076 115C103.72 115 101 117.718 101 121.071C101 124.425 103.72 127.143 107.076 127.143C110.431 127.143 113.151 124.425 113.151 121.071Z" fill="#1CCB62"/>
<path d="M110.133 121.094C110.133 119.512 108.85 118.229 107.267 118.229C105.684 118.229 104.401 119.512 104.401 121.094C104.401 122.677 105.684 123.959 107.267 123.959C108.85 123.959 110.133 122.677 110.133 121.094Z" stroke="#151515" stroke-width="3"/>
<path d="M113.151 121.071C113.151 117.718 110.431 115 107.076 115C103.72 115 101 117.718 101 121.071C101 124.425 103.72 127.143 107.076 127.143C110.431 127.143 113.151 124.425 113.151 121.071Z" stroke="#151515"/>
<path d="M137.151 93.0714C137.151 89.7182 134.431 87 131.076 87C127.72 87 125 89.7182 125 93.0714C125 96.4245 127.72 99.1428 131.076 99.1428C134.431 99.1428 137.151 96.4245 137.151 93.0714Z" fill="#1CCB62"/>
<path d="M134.133 93.0941C134.133 91.5117 132.85 90.229 131.267 90.229C129.684 90.229 128.401 91.5117 128.401 93.0941C128.401 94.6765 129.684 95.9593 131.267 95.9593C132.85 95.9593 134.133 94.6765 134.133 93.0941Z" stroke="#151515" stroke-width="3"/>
<path d="M137.151 93.0714C137.151 89.7182 134.431 87 131.076 87C127.72 87 125 89.7182 125 93.0714C125 96.4245 127.72 99.1428 131.076 99.1428C134.431 99.1428 137.151 96.4245 137.151 93.0714Z" stroke="#151515"/>
<path d="M123.151 166.071C123.151 162.718 120.431 160 117.076 160C113.72 160 111 162.718 111 166.071C111 169.425 113.72 172.143 117.076 172.143C120.431 172.143 123.151 169.425 123.151 166.071Z" fill="#1CCB62"/>
<path d="M120.133 166.094C120.133 164.512 118.85 163.229 117.267 163.229C115.684 163.229 114.401 164.512 114.401 166.094C114.401 167.677 115.684 168.959 117.267 168.959C118.85 168.959 120.133 167.677 120.133 166.094Z" stroke="#151515" stroke-width="3"/>
<path d="M123.151 166.071C123.151 162.718 120.431 160 117.076 160C113.72 160 111 162.718 111 166.071C111 169.425 113.72 172.143 117.076 172.143C120.431 172.143 123.151 169.425 123.151 166.071Z" stroke="#151515"/>
<path d="M159.151 180.071C159.151 176.718 156.431 174 153.076 174C149.72 174 147 176.718 147 180.071C147 183.425 149.72 186.143 153.076 186.143C156.431 186.143 159.151 183.425 159.151 180.071Z" fill="#1CCB62"/>
<path d="M156.133 180.094C156.133 178.512 154.85 177.229 153.267 177.229C151.684 177.229 150.401 178.512 150.401 180.094C150.401 181.677 151.684 182.959 153.267 182.959C154.85 182.959 156.133 181.677 156.133 180.094Z" stroke="#151515" stroke-width="3"/>
<path d="M159.151 180.071C159.151 176.718 156.431 174 153.076 174C149.72 174 147 176.718 147 180.071C147 183.425 149.72 186.143 153.076 186.143C156.431 186.143 159.151 183.425 159.151 180.071Z" stroke="#151515"/>
<path d="M195.151 146.071C195.151 142.718 192.431 140 189.076 140C185.72 140 183 142.718 183 146.071C183 149.425 185.72 152.143 189.076 152.143C192.431 152.143 195.151 149.425 195.151 146.071Z" fill="#1CCB62"/>
<path d="M192.133 146.094C192.133 144.512 190.85 143.229 189.267 143.229C187.684 143.229 186.401 144.512 186.401 146.094C186.401 147.677 187.684 148.959 189.267 148.959C190.85 148.959 192.133 147.677 192.133 146.094Z" stroke="#151515" stroke-width="3"/>
<path d="M195.151 146.071C195.151 142.718 192.431 140 189.076 140C185.72 140 183 142.718 183 146.071C183 149.425 185.72 152.143 189.076 152.143C192.431 152.143 195.151 149.425 195.151 146.071Z" stroke="#151515"/>
<path d="M187.151 106.071C187.151 102.718 184.431 100 181.076 100C177.72 100 175 102.718 175 106.071C175 109.425 177.72 112.143 181.076 112.143C184.431 112.143 187.151 109.425 187.151 106.071Z" fill="#1CCB62"/>
<path d="M184.133 106.094C184.133 104.512 182.85 103.229 181.267 103.229C179.684 103.229 178.401 104.512 178.401 106.094C178.401 107.677 179.684 108.959 181.267 108.959C182.85 108.959 184.133 107.677 184.133 106.094Z" stroke="#151515" stroke-width="3"/>
<path d="M187.151 106.071C187.151 102.718 184.431 100 181.076 100C177.72 100 175 102.718 175 106.071C175 109.425 177.72 112.143 181.076 112.143C184.431 112.143 187.151 109.425 187.151 106.071Z" stroke="#151515"/>
<defs>
<filter id="filter0_f" x="195" y="0" width="172" height="174" filterUnits="userSpaceOnUse" color-interpolation-filters="sRGB">
<feFlood flood-opacity="0" result="BackgroundImageFix"/>
<feBlend mode="normal" in="SourceGraphic" in2="BackgroundImageFix" result="shape"/>
<feGaussianBlur stdDeviation="27.5" result="effect1_foregroundBlur"/>
</filter>
<filter id="filter1_f" x="195" y="145" width="172" height="174" filterUnits="userSpaceOnUse" color-interpolation-filters="sRGB">
<feFlood flood-opacity="0" result="BackgroundImageFix"/>
<feBlend mode="normal" in="SourceGraphic" in2="BackgroundImageFix" result="shape"/>
<feGaussianBlur stdDeviation="27.5" result="effect1_foregroundBlur"/>
</filter>
</defs>
</svg>
