<svg width="15" height="15" viewBox="0 0 15 15" fill="none" xmlns="http://www.w3.org/2000/svg">
<path d="M11.2494 0.003121L9.30426 0C7.11893 0 5.70668 1.44892 5.70668 3.69152V5.39356H3.7509C3.5819 5.39356 3.44505 5.53057 3.44505 5.69957V8.16563C3.44505 8.33463 3.58206 8.47149 3.7509 8.47149H5.70668V14.6941C5.70668 14.8631 5.84354 15 6.01254 15H8.56427C8.73327 15 8.87013 14.863 8.87013 14.6941V8.47149H11.1569C11.3259 8.47149 11.4627 8.33463 11.4627 8.16563L11.4637 5.69957C11.4637 5.61843 11.4314 5.54071 11.3741 5.48329C11.3168 5.42586 11.2388 5.39356 11.1577 5.39356H8.87013V3.95072C8.87013 3.25723 9.03538 2.90518 9.93876 2.90518L11.2491 2.90472C11.418 2.90472 11.5548 2.7677 11.5548 2.59886V0.308979C11.5548 0.140289 11.4181 0.0034331 11.2494 0.003121Z" fill="white"/>
</svg>
