<svg width="15" height="15" viewBox="0 0 15 15" fill="none" xmlns="http://www.w3.org/2000/svg">
<g clip-path="url(#clip0)">
<path d="M2.16704 0.761719C1.13587 0.761719 0.46167 1.43884 0.46167 2.32882C0.46167 3.19914 1.11579 3.89557 2.12747 3.89557H2.14704C3.19838 3.89557 3.85267 3.19914 3.85267 2.32882C3.83301 1.43884 3.19838 0.761719 2.16704 0.761719Z" fill="white"/>
<path d="M0.639816 5.13379H3.65436V14.2032H0.639816V5.13379Z" fill="white"/>
<path d="M11.0538 4.9209C9.42754 4.9209 8.33706 6.44903 8.33706 6.44903V5.13376H5.32243V14.2031H8.33689V9.13845C8.33689 8.86731 8.35655 8.5966 8.4362 8.40271C8.65412 7.86129 9.15005 7.30038 9.98287 7.30038C11.0737 7.30038 11.51 8.13208 11.51 9.35131V14.2031H14.5243V9.00292C14.5243 6.2172 13.037 4.9209 11.0538 4.9209Z" fill="white"/>
</g>
<defs>
<clipPath id="clip0">
<rect x="0.000244141" width="15" height="15" fill="white"/>
</clipPath>
</defs>
</svg>
