<svg width="251" height="66" viewBox="0 0 251 66" fill="none" xmlns="http://www.w3.org/2000/svg">
<path d="M95.8159 37.1583H82.0773L78.9305 45.5357H77.793L88.303 17.4819H89.5767L100.1 45.5357H98.9628L95.8159 37.1583ZM82.4656 36.1187H95.4277L89.5358 20.4171L88.9977 18.7796H88.8819L88.3574 20.4171L82.4656 36.1187Z" fill="white"/>
<path d="M103.111 35.0996C103.111 31.7975 103.806 29.1749 105.195 27.2318C106.585 25.2886 108.519 24.3102 110.992 24.3102C112.613 24.3102 114.023 24.6703 115.215 25.3973C116.407 26.1243 117.354 27.1162 118.062 28.3732V15.4844H119.104V31.1113C119.104 31.1385 119.104 31.1589 119.104 31.1725C119.104 31.186 119.111 31.1928 119.125 31.1928V39.6857C119.111 39.7129 119.104 39.7333 119.104 39.7469C119.104 39.7605 119.104 39.7741 119.104 39.7876V45.5492H118.096L118.055 42.3355C117.36 43.4498 116.407 44.333 115.194 44.9853C113.982 45.6376 112.565 45.9569 110.944 45.9569C108.485 45.9569 106.564 45.0193 105.182 43.144C103.799 41.2688 103.104 38.7277 103.104 35.514V35.0996H103.111ZM104.194 35.5004C104.194 38.3744 104.766 40.6641 105.904 42.3627C107.041 44.0545 108.724 44.9038 110.937 44.9038C112.756 44.9038 114.261 44.4961 115.453 43.6808C116.652 42.8655 117.517 41.7784 118.062 40.4127V30.5474C117.544 29.073 116.734 27.8364 115.617 26.8377C114.5 25.8457 112.953 25.3429 110.971 25.3429C108.758 25.3429 107.075 26.2466 105.917 28.0471C104.766 29.8544 104.187 32.1984 104.187 35.086V35.5004H104.194Z" fill="white"/>
<path d="M124.09 34.7124C124.09 31.655 124.935 29.1547 126.631 27.2183C128.327 25.2819 130.52 24.3103 133.224 24.3103C135.942 24.3103 138.149 25.2819 139.838 27.2183C141.534 29.1547 142.379 31.655 142.379 34.7124V35.5209C142.379 38.592 141.534 41.0923 139.838 43.0354C138.142 44.9718 135.956 45.9434 133.265 45.9434C130.547 45.9434 128.34 44.9718 126.638 43.0354C124.935 41.0923 124.09 38.592 124.09 35.5209V34.7124ZM125.132 35.5209C125.132 38.1435 125.868 40.3585 127.332 42.1794C128.797 44.0002 130.779 44.9039 133.265 44.9039C135.71 44.9039 137.665 43.9934 139.136 42.1658C140.608 40.3449 141.337 38.1299 141.337 35.5209V34.7124C141.337 32.1577 140.594 29.9564 139.116 28.1151C137.638 26.2739 135.669 25.3498 133.224 25.3498C130.765 25.3498 128.804 26.2739 127.332 28.1151C125.861 29.9564 125.132 32.1577 125.132 34.7124V35.5209Z" fill="white"/>
<path d="M156.594 25.4449L155.245 25.3294C153.379 25.3294 151.86 25.9273 150.695 27.1299C149.531 28.3325 148.775 29.9156 148.427 31.8791V45.5357H147.385V24.6907H148.236L148.427 28.3121V29.0255C149.006 27.5376 149.871 26.3757 151.015 25.5468C152.16 24.7179 153.57 24.3035 155.245 24.3035C155.538 24.3035 155.818 24.3238 156.07 24.3714C156.322 24.419 156.54 24.4665 156.717 24.5141L156.594 25.4449Z" fill="white"/>
<path d="M161.907 18.141H160.865V15.4844H161.907V18.141ZM161.907 45.5356H160.865V24.6907H161.907V45.5356Z" fill="white"/>
<path d="M181.878 41.6833C181.156 42.9402 180.08 43.9662 178.649 44.7543C177.219 45.5425 175.489 45.9365 173.452 45.9365C171.511 45.9365 169.985 45.4066 168.875 44.3467C167.765 43.2867 167.213 41.8599 167.213 40.0594C167.213 38.3133 168.037 36.8457 169.692 35.6635C171.348 34.4813 173.418 33.8902 175.904 33.8902H181.871V30.8464C181.871 29.1138 181.313 27.7617 180.202 26.7901C179.085 25.8186 177.519 25.3362 175.502 25.3362C173.609 25.3362 172.09 25.7914 170.932 26.7018C169.781 27.6123 169.202 28.7877 169.202 30.2281L168.33 30.1873L168.289 30.0922C168.214 28.4751 168.841 27.1027 170.183 25.9816C171.525 24.8606 173.296 24.2966 175.496 24.2966C177.737 24.2966 179.535 24.8606 180.883 25.9952C182.232 27.1231 182.913 28.7605 182.913 30.8871V41.33C182.913 42.0638 182.954 42.7772 183.036 43.4702C183.118 44.1632 183.261 44.8494 183.451 45.5289H182.293C182.123 44.6184 182.014 43.9322 181.953 43.477C181.898 43.0218 181.864 42.5258 181.864 42.0026V41.6833H181.878ZM173.459 44.9242C175.53 44.9242 177.287 44.469 178.724 43.5585C180.161 42.6481 181.21 41.3436 181.885 39.645V34.9637H175.972C173.806 34.9637 171.981 35.4597 170.496 36.4585C169.011 37.4504 168.269 38.6802 168.269 40.1478C168.269 41.5474 168.739 42.6956 169.686 43.5857C170.626 44.4758 171.886 44.9242 173.459 44.9242Z" fill="white"/>
<path d="M202.448 40.4332C202.448 39.3257 201.978 38.3202 201.032 37.4165C200.085 36.5129 198.437 35.7995 196.08 35.2899C193.594 34.7668 191.795 34.0873 190.678 33.2584C189.561 32.4295 189.01 31.1997 189.01 29.5691C189.01 28.0812 189.643 26.831 190.903 25.8254C192.163 24.8199 193.866 24.3103 196.005 24.3103C198.307 24.3103 200.126 24.8471 201.454 25.9274C202.782 27.0076 203.409 28.4141 203.348 30.1466L203.307 30.2621H202.421C202.421 28.9033 201.842 27.7414 200.691 26.7834C199.54 25.8254 197.98 25.3498 196.005 25.3498C194.05 25.3498 192.565 25.7711 191.564 26.6136C190.563 27.4561 190.058 28.4277 190.058 29.5351C190.058 30.629 190.481 31.5598 191.332 32.3276C192.184 33.0954 193.866 33.7748 196.393 34.3523C198.723 34.8891 200.494 35.6296 201.692 36.5605C202.898 37.4913 203.497 38.789 203.497 40.4604C203.497 42.091 202.83 43.4159 201.488 44.4283C200.146 45.4406 198.375 45.9502 196.155 45.9502C193.723 45.9502 191.809 45.4067 190.426 44.3264C189.044 43.2393 188.396 41.9212 188.485 40.3653L188.526 40.2498H189.377C189.48 41.894 190.188 43.083 191.502 43.8168C192.817 44.5506 194.37 44.9175 196.155 44.9175C198.082 44.9175 199.615 44.469 200.752 43.5654C201.876 42.655 202.448 41.6154 202.448 40.4332Z" fill="white"/>
<path d="M207.679 34.7124C207.679 31.655 208.524 29.1547 210.22 27.2183C211.916 25.2819 214.109 24.3103 216.814 24.3103C219.531 24.3103 221.738 25.2819 223.427 27.2183C225.123 29.1547 225.968 31.655 225.968 34.7124V35.5209C225.968 38.592 225.123 41.0923 223.427 43.0354C221.731 44.9718 219.545 45.9434 216.854 45.9434C214.137 45.9434 211.93 44.9718 210.227 43.0354C208.524 41.0923 207.679 38.592 207.679 35.5209V34.7124ZM208.722 35.5209C208.722 38.1435 209.457 40.3585 210.922 42.1794C212.386 44.0002 214.368 44.9039 216.854 44.9039C219.3 44.9039 221.255 43.9934 222.726 42.1658C224.197 40.3449 224.926 38.1299 224.926 35.5209V34.7124C224.926 32.1577 224.183 29.9564 222.705 28.1151C221.227 26.2739 219.259 25.3498 216.814 25.3498C214.355 25.3498 212.393 26.2739 210.922 28.1151C209.45 29.9564 208.722 32.1577 208.722 34.7124V35.5209V35.5209Z" fill="white"/>
<path d="M232.555 45.5356V25.7506H228.924V24.6907H232.555V21.2663C232.555 19.3028 233.032 17.7808 233.992 16.7005C234.952 15.6202 236.294 15.0835 238.018 15.0835C238.44 15.0835 238.862 15.1107 239.284 15.1582C239.7 15.2126 240.109 15.2941 240.49 15.4096L240.333 16.4152C239.918 16.3133 239.557 16.2385 239.244 16.191C238.93 16.1434 238.528 16.123 238.038 16.123C236.648 16.123 235.559 16.5782 234.775 17.4887C233.992 18.3991 233.597 19.6561 233.597 21.2663V24.6975H239.121V25.7574H233.597V45.5424H232.555V45.5356Z" fill="white"/>
<path d="M245.592 19.0649V24.6906H250.728V25.7506H245.592V40.1613C245.592 41.8667 245.885 43.0897 246.464 43.8099C247.043 44.5368 247.812 44.8969 248.759 44.8969C249.106 44.8969 249.413 44.8833 249.685 44.8562C249.958 44.829 250.332 44.7882 250.802 44.7203L250.993 45.6647C250.673 45.7666 250.339 45.8346 249.992 45.8753C249.645 45.9161 249.249 45.9297 248.814 45.9297C247.41 45.9297 246.348 45.4745 245.619 44.564C244.89 43.6536 244.529 42.1792 244.529 40.1545V25.7506H240.667V24.6906H244.529V19.0649H245.592V19.0649Z" fill="white"/>
<path d="M57.495 47.4311L45.5683 40.7863V24.9148L55.22 19.4317V35.378C55.22 36.1118 55.8194 36.7029 56.5482 36.7029C57.2839 36.7029 57.8764 36.1118 57.8764 35.378V17.2032C57.8764 16.7276 57.6244 16.2928 57.2089 16.055L29.6296 0.169858C29.4389 0.0611489 29.2345 0.0135886 29.0302 0C28.9961 0 28.9689 0 28.9348 0C28.9076 0 28.8803 0 28.8463 0C28.6419 0.0135886 28.4376 0.0611489 28.2469 0.169858L0.667517 16.0482C0.252022 16.286 0 16.7276 0 17.2032V48.8104C0 49.286 0.252022 49.7208 0.667517 49.9586L28.1106 65.7622C28.3627 65.8981 28.6487 66 28.9416 66C29.2277 66 29.4252 65.9253 29.7726 65.7554L57.3383 49.8703C57.6721 49.6733 57.8833 49.4355 58.0059 49.218C58.3601 48.5726 58.1353 47.7912 57.495 47.4311ZM44.1106 22.6862L30.2699 14.7165V3.60778L53.8237 17.1692L44.1106 22.6862ZM14.9783 40.9494V26.4299L27.6134 33.6115V48.2261L14.9783 40.9494ZM28.9416 31.3082L16.4495 24.2082L28.9416 17.013L41.4337 24.2082L28.9416 31.3082ZM27.6066 14.7165L13.7658 22.6862L4.05278 17.1692L27.6066 3.60778V14.7165ZM12.315 24.9148V40.7795L2.66326 46.1878V19.4317L12.315 24.9148ZM3.90293 48.5318L13.4934 43.1643L27.6066 51.2903V62.4058L3.67815 48.6269C3.75308 48.5998 3.82801 48.5726 3.90293 48.5318ZM30.2699 51.2903L44.3831 43.1643L54.171 48.6201L30.2699 62.4058V51.2903ZM42.905 40.9494L30.2699 48.2261V33.6115L42.905 26.4299V40.9494Z" fill="white"/>
</svg>
