<svg width="291" height="67" viewBox="0 0 291 67" fill="none" xmlns="http://www.w3.org/2000/svg">
<path d="M20.5556 64.3863C20.5015 64.3863 20.4482 64.3733 20.4001 64.3485C20.352 64.3236 20.3105 64.2877 20.2791 64.2436L0.0622203 35.6134C0.0278951 35.5649 0.00695001 35.5081 0.00149168 35.4489C-0.00396664 35.3896 0.0062539 35.33 0.0311227 35.2759L14.6737 3.42217C14.6985 3.3681 14.7371 3.32152 14.7857 3.28716C14.8342 3.2528 14.891 3.23187 14.9502 3.22649L49.8088 0.00234967C49.8682 -0.00485696 49.9284 0.0045907 49.9827 0.0296342C50.0371 0.0546777 50.0834 0.0943313 50.1165 0.144169L70.3334 28.7738C70.3677 28.8224 70.3887 28.8792 70.3941 28.9384C70.3996 28.9976 70.3894 29.0573 70.3645 29.1113L55.7224 60.966C55.6974 61.02 55.6588 61.0665 55.6103 61.1008C55.5617 61.1352 55.505 61.1562 55.4458 61.1617L20.5868 64.3854C20.5765 64.3863 20.5659 64.3862 20.5557 64.3862L20.5556 64.3863ZM0.728214 35.3818L20.7192 63.6924L55.1888 60.5047L69.6674 29.0054L49.6764 0.694794L15.2073 3.88254L0.728214 35.3818Z" fill="white"/>
<path d="M20.4342 64.3131L14.8391 35.1829L14.8118 3.33667L42.0716 11.3604L70.3387 28.9454L49.3447 47.6068L20.4342 64.3131ZM15.1511 3.7895L15.1747 35.1508L20.6771 63.7818L49.1475 47.3335L69.7752 28.9927L41.9122 11.66L15.1511 3.7895Z" fill="white"/>
<path d="M42.5191 12.6959C43.0798 12.6959 43.5343 12.2414 43.5343 11.6807C43.5343 11.12 43.0798 10.6655 42.5191 10.6655C41.9584 10.6655 41.5039 11.12 41.5039 11.6807C41.5039 12.2414 41.9584 12.6959 42.5191 12.6959Z" fill="white"/>
<path d="M42.5192 13.775C42.1048 13.7755 41.6996 13.653 41.3549 13.4231C41.0101 13.1932 40.7413 12.8662 40.5825 12.4835C40.4236 12.1008 40.3818 11.6795 40.4624 11.2731C40.543 10.8666 40.7423 10.4932 41.0351 10.2C41.3279 9.90686 41.7012 9.70714 42.1075 9.62613C42.5139 9.54511 42.9352 9.58643 43.318 9.74487C43.7009 9.90331 44.0282 10.1718 44.2585 10.5162C44.4888 10.8607 44.6117 11.2658 44.6118 11.6801C44.6113 12.2352 44.3908 12.7675 43.9985 13.1602C43.6063 13.5529 43.0742 13.774 42.5192 13.775ZM42.5192 11.6196L42.4563 11.6801C42.4566 11.6965 42.4634 11.7121 42.4752 11.7235C42.487 11.7349 42.5028 11.7412 42.5192 11.741V11.6196Z" fill="white"/>
<path d="M49.2961 48.4346C49.8568 48.4346 50.3113 47.9801 50.3113 47.4195C50.3113 46.8588 49.8568 46.4043 49.2961 46.4043C48.7355 46.4043 48.281 46.8588 48.281 47.4195C48.281 47.9801 48.7355 48.4346 49.2961 48.4346Z" fill="white"/>
<path d="M49.296 49.515C48.8816 49.5154 48.4764 49.3929 48.1316 49.1629C47.7869 48.9329 47.5181 48.6059 47.3592 48.2231C47.2004 47.8403 47.1586 47.4191 47.2392 47.0126C47.3199 46.6061 47.5192 46.2326 47.8121 45.9394C48.105 45.6463 48.4783 45.4466 48.8848 45.3656C49.2912 45.2846 49.7125 45.326 50.0954 45.4845C50.4783 45.643 50.8056 45.9115 51.0359 46.2561C51.2661 46.6006 51.389 47.0057 51.389 47.4202C51.3887 47.9753 51.1682 48.5077 50.7758 48.9004C50.3834 49.2932 49.8512 49.5142 49.296 49.515V49.515ZM49.296 47.3596L49.2336 47.4201C49.2339 47.4364 49.2407 47.4519 49.2523 47.4632C49.264 47.4745 49.2797 47.4808 49.296 47.4806V47.3596Z" fill="white"/>
<path d="M20.8041 65.0626C21.3648 65.0626 21.8193 64.6081 21.8193 64.0474C21.8193 63.4867 21.3648 63.0322 20.8041 63.0322C20.2434 63.0322 19.7889 63.4867 19.7889 64.0474C19.7889 64.6081 20.2434 65.0626 20.8041 65.0626Z" fill="white"/>
<path d="M20.8039 66.1429C20.3895 66.1433 19.9843 66.0208 19.6395 65.7908C19.2948 65.5608 19.026 65.2338 18.8671 64.851C18.7083 64.4683 18.6665 64.047 18.7471 63.6405C18.8277 63.234 19.0271 62.8605 19.32 62.5674C19.6129 62.2742 19.9862 62.0745 20.3926 61.9935C20.799 61.9125 21.2203 61.9539 21.6033 62.1124C21.9862 62.2709 22.3134 62.5394 22.5437 62.884C22.774 63.2285 22.8969 63.6336 22.8969 64.048C22.8966 64.6032 22.676 65.1356 22.2837 65.5284C21.8913 65.9211 21.3591 66.1421 20.8039 66.1429V66.1429ZM20.8039 63.9875L20.7415 64.048C20.7418 64.0643 20.7486 64.0798 20.7602 64.0911C20.7719 64.1024 20.7876 64.1087 20.8039 64.1085V63.9875Z" fill="white"/>
<path d="M14.9812 36.5052C15.5419 36.5052 15.9964 36.0507 15.9964 35.49C15.9964 34.9294 15.5419 34.4749 14.9812 34.4749C14.4205 34.4749 13.966 34.9294 13.966 35.49C13.966 36.0507 14.4205 36.5052 14.9812 36.5052Z" fill="white"/>
<path d="M14.9814 37.5844C14.5671 37.5848 14.1619 37.4622 13.8173 37.2323C13.4726 37.0024 13.2038 36.6754 13.045 36.2927C12.8862 35.9099 12.8445 35.4887 12.9252 35.0823C13.0058 34.6759 13.2052 34.3025 13.498 34.0095C13.7909 33.7164 14.1642 33.5167 14.5705 33.4358C14.9769 33.3549 15.3981 33.3964 15.7809 33.5549C16.1638 33.7134 16.4909 33.982 16.7211 34.3265C16.9513 34.671 17.0741 35.0761 17.074 35.4904C17.0734 36.0454 16.8528 36.5774 16.4605 36.9699C16.0682 37.3624 15.5363 37.5834 14.9814 37.5844V37.5844ZM14.9814 35.429L14.9185 35.4904C14.919 35.5067 14.9259 35.5222 14.9377 35.5335C14.9494 35.5448 14.9651 35.551 14.9814 35.5509V35.429Z" fill="white"/>
<path d="M70.057 30.0352C70.6176 30.0352 71.0721 29.5807 71.0721 29.02C71.0721 28.4594 70.6176 28.0049 70.057 28.0049C69.4963 28.0049 69.0418 28.4594 69.0418 29.02C69.0418 29.5807 69.4963 30.0352 70.057 30.0352Z" fill="white"/>
<path d="M70.057 31.1147C69.6427 31.1149 69.2376 30.9923 68.8929 30.7623C68.5483 30.5323 68.2796 30.2053 68.1209 29.8226C67.9622 29.4399 67.9205 29.0187 68.0012 28.6123C68.0819 28.2059 68.2813 27.8326 68.5742 27.5396C68.8671 27.2465 69.2404 27.0469 69.6467 26.9661C70.0531 26.8852 70.4743 26.9267 70.8571 27.0852C71.2399 27.2438 71.567 27.5123 71.7972 27.8568C72.0273 28.2013 72.1501 28.6064 72.15 29.0207C72.1494 29.5757 71.9287 30.1078 71.5364 30.5004C71.144 30.8929 70.612 31.1138 70.057 31.1147ZM70.057 28.9593L69.9946 29.0207C69.9949 29.037 70.0016 29.0525 70.0133 29.0638C70.025 29.0751 70.0407 29.0814 70.057 29.0812V28.9593Z" fill="white"/>
<path d="M14.9812 4.57892C15.5419 4.57892 15.9964 4.12442 15.9964 3.56376C15.9964 3.00309 15.5419 2.54858 14.9812 2.54858C14.4205 2.54858 13.966 3.00309 13.966 3.56376C13.966 4.12442 14.4205 4.57892 14.9812 4.57892Z" fill="white"/>
<path d="M14.9814 5.6581C14.567 5.65852 14.1619 5.53603 13.8171 5.30613C13.4724 5.07623 13.2036 4.74924 13.0447 4.36654C12.8858 3.98384 12.844 3.56262 12.9246 3.15616C13.0052 2.7497 13.2045 2.37626 13.4973 2.0831C13.7901 1.78993 14.1633 1.59021 14.5697 1.50918C14.9761 1.42816 15.3973 1.46949 15.7802 1.62793C16.1631 1.78637 16.4904 2.05481 16.7207 2.39929C16.951 2.74378 17.0739 3.14882 17.074 3.56319C17.0736 4.11826 16.853 4.65051 16.4608 5.04323C16.0685 5.43594 15.5365 5.65706 14.9814 5.6581ZM14.9814 3.50268L14.9185 3.5632C14.9188 3.5796 14.9256 3.5952 14.9374 3.60662C14.9492 3.61803 14.965 3.62432 14.9814 3.62413L14.9814 3.50268Z" fill="white"/>
<path d="M55.4148 61.1623C55.3763 61.1626 55.3381 61.1563 55.3018 61.1435L28.7231 51.7608L0.172874 35.7125C0.126186 35.6863 0.0863725 35.6494 0.0567066 35.6049C0.0270406 35.5604 0.00837067 35.5094 0.00223202 35.4563C-0.00390664 35.4031 0.00266047 35.3493 0.0213951 35.2991C0.0401296 35.249 0.0704948 35.204 0.109995 35.1679L21.5904 15.4847L49.677 0.0422615C49.7229 0.016789 49.7741 0.00241497 49.8265 0.000278781C49.879 -0.00185741 49.9312 0.00830642 49.979 0.0299619C50.0268 0.0515787 50.0689 0.0839442 50.1022 0.124532C50.1354 0.16512 50.1587 0.212833 50.1705 0.263947L56.4632 27.9279L55.7533 60.8315C55.752 60.8851 55.7382 60.9376 55.7128 60.9847C55.6874 61.0319 55.6512 61.0723 55.6072 61.1028C55.5507 61.1419 55.4835 61.1627 55.4148 61.1624L55.4148 61.1623ZM0.912157 35.3512L29.002 51.1463L55.0863 60.3493L55.7944 27.9954L49.6094 0.851868L21.9823 16.031L0.912157 35.3512Z" fill="white"/>
<path d="M49.4066 47.5471L49.2681 47.4998L14.815 35.5222L14.9261 35.4257L42.5749 11.52L49.4066 47.5471ZM15.1478 35.4579L49.1854 47.2918L42.4635 11.8405L15.1478 35.4579Z" fill="white"/>
<path d="M28.6158 52.0762L21.372 15.2144L56.7955 27.8798L28.6158 52.0762ZM22.2663 16.2533L29.0563 50.8056L55.4701 28.1256L22.2663 16.2533Z" fill="white"/>
<path d="M14.686 3.72949L15.2768 3.39758L22.1146 15.5686L21.5238 15.9005L14.686 3.72949Z" fill="white"/>
<path d="M20.5182 63.8659L28.5509 51.259L29.1219 51.6246L21.0893 64.2307L20.5182 63.8659Z" fill="white"/>
<path d="M56.1081 28.3408L56.1575 27.6656L70.0816 28.6828L70.0323 29.358L56.1081 28.3408Z" fill="white"/>
<path d="M83.267 23.4813L87.7974 23.4564L87.8383 31.117L96.6391 31.0703L96.5983 23.4097L101.129 23.3862L101.237 43.9328L96.7063 43.9563L96.6596 35.0766L87.8587 35.1233L87.9054 44.003L83.375 44.0279L83.267 23.4813Z" fill="white"/>
<path d="M110.137 35.1219L102.348 23.3805L107.982 23.3499L112.379 31.0178L116.957 23.3031L122.329 23.2754L114.667 35.0984L114.712 43.8628L110.182 43.8863L110.137 35.1219Z" fill="white"/>
<path d="M123.548 23.2683L131.187 23.2289C132.201 23.2179 133.214 23.3099 134.209 23.5034C135.095 23.6672 135.941 24.0024 136.699 24.4903C137.416 24.9717 137.999 25.628 138.392 26.3971C138.844 27.3414 139.064 28.3801 139.033 29.4266C139.071 30.4634 138.878 31.4956 138.468 32.4488C138.115 33.2247 137.569 33.8968 136.881 34.4008C136.159 34.9092 135.34 35.264 134.475 35.4433C133.483 35.6587 132.471 35.7664 131.456 35.7645L128.144 35.7819L128.187 43.7914L123.656 43.8149L123.548 23.2683ZM128.126 31.9509L131.146 31.9349C131.541 31.9344 131.935 31.8938 132.322 31.8137C132.68 31.741 133.024 31.6061 133.336 31.4151C133.637 31.2277 133.885 30.967 134.058 30.6574C134.252 30.2861 134.345 29.8702 134.328 29.4514C134.346 29.0023 134.217 28.5594 133.958 28.1915C133.713 27.872 133.392 27.619 133.024 27.4556C132.623 27.2785 132.196 27.168 131.759 27.1286C131.316 27.0841 130.87 27.0626 130.424 27.0643L128.099 27.0759L128.126 31.9509Z" fill="white"/>
<path d="M141.73 23.1733L155.699 23.1003L155.721 27.2789L146.282 27.3285L146.302 31.1595L155.219 31.1113L155.24 35.2898L146.324 35.338L146.346 39.518L156.308 39.4654L156.329 43.644L141.838 43.7199L141.73 23.1733Z" fill="white"/>
<path d="M159.561 23.0797L167.519 23.0374C168.519 23.027 169.517 23.1239 170.496 23.3264C171.377 23.5013 172.217 23.8411 172.971 24.328C173.688 24.8094 174.271 25.4656 174.664 26.2348C175.114 27.1694 175.334 28.1982 175.305 29.2351C175.351 30.5595 174.959 31.8621 174.191 32.942C173.386 33.9961 172.202 34.6948 170.89 34.8897L176.164 43.5387L170.733 43.5679L166.394 35.3773L164.157 35.3889L164.199 43.6014L159.669 43.6262L159.561 23.0797ZM164.136 31.5579L166.81 31.5447C167.216 31.5419 167.646 31.5256 168.102 31.4936C168.524 31.4692 168.94 31.379 169.334 31.2264C169.694 31.0837 170.009 30.846 170.245 30.5388C170.505 30.1547 170.63 29.6949 170.6 29.2321C170.619 28.7931 170.506 28.3585 170.274 27.9852C170.068 27.6834 169.786 27.44 169.458 27.2786C169.1 27.1079 168.717 26.9969 168.324 26.9501C167.909 26.8953 167.492 26.869 167.074 26.8713L164.112 26.8859L164.136 31.5579Z" fill="white"/>
<path d="M178.263 22.9803L182.794 22.9568L182.88 39.3249L191.273 39.2811L191.295 43.4596L178.371 43.5268L178.263 22.9803Z" fill="white"/>
<path d="M193.569 22.9001L207.538 22.8271L207.56 27.0057L198.121 27.0553L198.141 30.8863L207.057 30.8396L207.079 35.0181L198.163 35.0648L198.185 39.2448L208.146 39.1923L208.168 43.3708L193.676 43.4467L193.569 22.9001Z" fill="white"/>
<path d="M211.4 22.8067L218.196 22.7702C219.776 22.7548 221.352 22.9313 222.89 23.2958C224.29 23.6195 225.612 24.2201 226.776 25.0624C227.901 25.8989 228.808 26.9935 229.422 28.254C230.117 29.751 230.459 31.3882 230.419 33.0384C230.459 34.5574 230.144 36.0648 229.498 37.4403C228.9 38.6796 228.039 39.7734 226.975 40.645C225.883 41.5281 224.636 42.199 223.297 42.6233C221.881 43.0798 220.402 43.3128 218.914 43.3139L211.508 43.3533L211.4 22.8067ZM216.016 39.1514L218.37 39.1382C219.352 39.14 220.33 39.0278 221.287 38.8038C222.13 38.6115 222.924 38.2461 223.618 37.7307C224.287 37.2192 224.818 36.5488 225.161 35.7802C225.56 34.8495 225.748 33.8426 225.713 32.831C225.73 31.9228 225.531 31.0235 225.132 30.2074C224.769 29.4854 224.244 28.8573 223.598 28.3721C222.92 27.8744 222.155 27.5093 221.342 27.2961C220.457 27.0558 219.542 26.9383 218.625 26.9472L215.952 26.9618L216.016 39.1514Z" fill="white"/>
<path d="M251.871 41.6889C250.555 42.3862 249.151 42.9019 247.697 43.2219C246.237 43.5395 244.749 43.7029 243.255 43.7095C241.741 43.7323 240.235 43.4846 238.808 42.978C237.499 42.5119 236.299 41.7819 235.284 40.8333C234.275 39.8797 233.481 38.7219 232.955 37.4373C231.836 34.5655 231.82 31.3812 232.908 28.4978C233.421 27.2075 234.203 26.0409 235.201 25.0755C236.206 24.1167 237.399 23.3748 238.703 22.8957C240.124 22.3722 241.627 22.1086 243.141 22.1176C244.677 22.0947 246.207 22.2863 247.689 22.687C249.052 23.0633 250.306 23.7584 251.347 24.7149L248.17 28.2145C247.574 27.5981 246.86 27.108 246.07 26.7735C245.143 26.4223 244.154 26.26 243.163 26.296C242.263 26.2874 241.371 26.4597 240.538 26.8027C239.778 27.1207 239.093 27.5936 238.526 28.1911C237.96 28.8004 237.524 29.5194 237.246 30.3037C236.654 32.021 236.664 33.8882 237.274 35.5992C237.562 36.3743 238.005 37.0826 238.576 37.6811C239.149 38.274 239.839 38.7405 240.603 39.0506C241.439 39.3839 242.333 39.5467 243.233 39.5295C244.098 39.5414 244.959 39.4243 245.788 39.182C246.379 39.0079 246.951 38.7766 247.497 38.4914L247.479 35.1539L243.791 35.1729L243.769 30.9929L251.814 30.9506L251.871 41.6889Z" fill="white"/>
<path d="M255.633 22.5752L269.602 22.5007L269.625 26.6793L260.186 26.7289L260.206 30.5599L269.122 30.5132L269.144 34.6917L260.228 34.7384L260.25 38.9184L270.212 38.8658L270.234 43.0444L255.742 43.1218L255.633 22.5752Z" fill="white"/>
<path d="M273.464 22.48L281.421 22.4391C282.421 22.4281 283.42 22.525 284.4 22.7282C285.28 22.903 286.12 23.2428 286.874 23.7297C287.592 24.2104 288.175 24.8668 288.568 25.6365C289.018 26.571 289.238 27.5998 289.209 28.6368C289.254 29.9612 288.863 31.2638 288.095 32.3437C287.289 33.3968 286.105 34.0953 284.794 34.2914L290.067 42.9404L284.636 42.9682L280.295 34.779L278.059 34.7906L278.101 43.0031L273.572 43.0266L273.464 22.48ZM278.038 30.9596L280.712 30.945C281.117 30.9436 281.548 30.9259 282.004 30.8954C282.426 30.8712 282.842 30.7805 283.236 30.6267C283.596 30.4851 283.911 30.2478 284.147 29.9405C284.408 29.5569 284.534 29.097 284.503 28.6338C284.523 28.1949 284.409 27.7603 284.178 27.387C283.97 27.0854 283.688 26.8421 283.36 26.6804C283.003 26.509 282.619 26.398 282.226 26.3519C281.811 26.2966 281.394 26.2698 280.976 26.2716L278.014 26.2876L278.038 30.9596Z" fill="white"/>
</svg>
