<svg width="265" height="50" viewBox="0 0 265 50" fill="none" xmlns="http://www.w3.org/2000/svg">
<path d="M77.2 5.79995C77.2 4.81595 76.84 3.95195 76.144 3.25595C75.448 2.55995 74.584 2.19995 73.6 2.19995H65.2V19H73.6C74.584 19 75.448 18.64 76.144 17.944C76.84 17.248 77.2 16.384 77.2 15.4V13C77.2 12.088 76.888 11.296 76.288 10.6C76.888 9.90395 77.2 9.11195 77.2 8.19995V5.79995ZM73.6 4.59995C74.272 4.59995 74.8 5.12795 74.8 5.79995V8.19995C74.8 8.87195 74.272 9.39995 73.6 9.39995H67.6V4.59995H73.6ZM74.8 15.4C74.8 16.072 74.272 16.6 73.6 16.6H67.6V11.8H73.6C74.272 11.8 74.8 12.328 74.8 13V15.4Z" fill="white"/>
<path d="M81.9906 2.19995H79.5906V19H91.5906V16.6H81.9906V2.19995Z" fill="white"/>
<path d="M102.381 19C103.365 19 104.229 18.64 104.925 17.944C105.621 17.248 105.981 16.384 105.981 15.4V5.79995C105.981 4.81595 105.621 3.95195 104.925 3.25595C104.229 2.55995 103.365 2.19995 102.381 2.19995H97.5812C96.5972 2.19995 95.7332 2.55995 95.0372 3.25595C94.3412 3.95195 93.9812 4.81595 93.9812 5.79995V15.4C93.9812 16.384 94.3412 17.248 95.0372 17.944C95.7332 18.64 96.5972 19 97.5812 19H102.381ZM102.381 4.59995C103.053 4.59995 103.581 5.12795 103.581 5.79995V15.4C103.581 16.072 103.053 16.6 102.381 16.6H97.5812C96.9092 16.6 96.3812 16.072 96.3812 15.4V5.79995C96.3812 5.12795 96.9092 4.59995 97.5812 4.59995H102.381Z" fill="white"/>
<path d="M116.772 19C117.756 19 118.62 18.64 119.316 17.944C120.012 17.248 120.372 16.384 120.372 15.4V14.2H117.972V15.4C117.972 16.072 117.444 16.6 116.772 16.6H111.972C111.3 16.6 110.772 16.072 110.772 15.4V5.79995C110.772 5.12795 111.3 4.59995 111.972 4.59995H116.772C117.444 4.59995 117.972 5.12795 117.972 5.79995V6.99995H120.372V5.79995C120.372 4.81595 120.012 3.95195 119.316 3.25595C118.62 2.55995 117.756 2.19995 116.772 2.19995H111.972C110.988 2.19995 110.124 2.55995 109.428 3.25595C108.732 3.95195 108.372 4.81595 108.372 5.79995V15.4C108.372 16.384 108.732 17.248 109.428 17.944C110.124 18.64 110.988 19 111.972 19H116.772Z" fill="white"/>
<path d="M134.762 2.19995H132.362V6.49595L129.458 9.39995H125.162V2.19995H122.762V19H125.162V11.8H129.458L132.362 14.704V19H134.762V14.2C134.762 13.864 134.642 13.576 134.402 13.36L131.666 10.6L134.402 7.83995C134.642 7.62395 134.762 7.33595 134.762 6.99995V2.19995Z" fill="white"/>
<path d="M145.553 19C146.537 19 147.401 18.64 148.097 17.944C148.793 17.248 149.153 16.384 149.153 15.4V14.2H146.753V15.4C146.753 16.072 146.225 16.6 145.553 16.6H140.753C140.081 16.6 139.553 16.072 139.553 15.4V5.79995C139.553 5.12795 140.081 4.59995 140.753 4.59995H145.553C146.225 4.59995 146.753 5.12795 146.753 5.79995V6.99995H149.153V5.79995C149.153 4.81595 148.793 3.95195 148.097 3.25595C147.401 2.55995 146.537 2.19995 145.553 2.19995H140.753C139.769 2.19995 138.905 2.55995 138.209 3.25595C137.513 3.95195 137.153 4.81595 137.153 5.79995V15.4C137.153 16.384 137.513 17.248 138.209 17.944C138.905 18.64 139.769 19 140.753 19H145.553Z" fill="white"/>
<path d="M161.144 9.39995H153.944V2.19995H151.544V19H153.944V11.8H161.144V19H163.544V2.19995H161.144V9.39995Z" fill="white"/>
<path d="M174.214 2.87195C173.998 2.41595 173.638 2.19995 173.134 2.19995H170.734C170.23 2.19995 169.87 2.41595 169.654 2.87195L166.054 10.072C165.982 10.24 165.934 10.408 165.934 10.6V19H168.334V14.2H175.534V19H177.934V10.6C177.934 10.408 177.886 10.24 177.814 10.072L174.214 2.87195ZM168.334 10.888L171.478 4.59995H172.39L175.534 10.888V11.8H168.334V10.888Z" fill="white"/>
<path d="M185.125 16.6H181.525V19H191.125V16.6H187.525V4.59995H191.125V2.19995H181.525V4.59995H185.125V16.6Z" fill="white"/>
<path d="M206.716 19V2.19995H204.316V14.68L197.116 2.19995H194.716V19H197.116V6.51995L204.316 19H206.716Z" fill="white"/>
<path d="M73.6 48.0001C74.584 48.0001 75.448 47.6401 76.144 46.9441C76.84 46.2481 77.2 45.3841 77.2 44.4001V34.8C77.2 33.816 76.84 32.9521 76.144 32.2561C75.448 31.5601 74.584 31.2 73.6 31.2H68.8C67.816 31.2 66.952 31.5601 66.256 32.2561C65.56 32.9521 65.2 33.816 65.2 34.8V44.4001C65.2 45.3841 65.56 46.2481 66.256 46.9441C66.952 47.6401 67.816 48.0001 68.8 48.0001H73.6ZM73.6 33.6C74.272 33.6 74.8 34.128 74.8 34.8V44.4001C74.8 45.0721 74.272 45.6 73.6 45.6H68.8C68.128 45.6 67.6 45.0721 67.6 44.4001V34.8C67.6 34.128 68.128 33.6 68.8 33.6H73.6Z" fill="white"/>
<path d="M91.5906 48.0001V31.2H89.1906V43.6801L81.9906 31.2H79.5906V48.0001H81.9906V35.5201L89.1906 48.0001H91.5906Z" fill="white"/>
<path d="M96.3812 31.2H93.9812V48.0001H105.981V45.6H96.3812V31.2Z" fill="white"/>
<path d="M113.172 45.6H109.572V48.0001H119.172V45.6H115.572V33.6H119.172V31.2H109.572V33.6H113.172V45.6Z" fill="white"/>
<path d="M134.762 48.0001V31.2H132.362V43.6801L125.162 31.2H122.762V48.0001H125.162V35.5201L132.362 48.0001H134.762Z" fill="white"/>
<path d="M149.153 31.2H137.153V48.0001H149.153V45.6H139.553V40.8H146.753V38.4001H139.553V33.6H149.153V31.2Z" fill="white"/>
<path d="M174.214 31.8721C173.998 31.4161 173.638 31.2 173.134 31.2H170.734C170.23 31.2 169.87 31.4161 169.654 31.8721L166.054 39.0721C165.982 39.2401 165.934 39.408 165.934 39.6V48.0001H168.334V43.2001H175.534V48.0001H177.934V39.6C177.934 39.408 177.886 39.2401 177.814 39.0721L174.214 31.8721ZM168.334 39.8881L171.478 33.6H172.39L175.534 39.8881V40.8H168.334V39.8881Z" fill="white"/>
<path d="M188.725 48.0001C189.709 48.0001 190.573 47.6401 191.269 46.9441C191.965 46.2481 192.325 45.3841 192.325 44.4001V43.2001H189.925V44.4001C189.925 45.0721 189.397 45.6 188.725 45.6H183.925C183.253 45.6 182.725 45.0721 182.725 44.4001V34.8C182.725 34.128 183.253 33.6 183.925 33.6H188.725C189.397 33.6 189.925 34.128 189.925 34.8V36.0001H192.325V34.8C192.325 33.816 191.965 32.9521 191.269 32.2561C190.573 31.5601 189.709 31.2 188.725 31.2H183.925C182.941 31.2 182.077 31.5601 181.381 32.2561C180.685 32.9521 180.325 33.816 180.325 34.8V44.4001C180.325 45.3841 180.685 46.2481 181.381 46.9441C182.077 47.6401 182.941 48.0001 183.925 48.0001H188.725Z" fill="white"/>
<path d="M202.996 31.8721C202.78 31.4161 202.42 31.2 201.916 31.2H199.516C199.012 31.2 198.652 31.4161 198.436 31.8721L194.836 39.0721C194.764 39.2401 194.716 39.408 194.716 39.6V48.0001H197.116V43.2001H204.316V48.0001H206.716V39.6C206.716 39.408 206.668 39.2401 206.596 39.0721L202.996 31.8721ZM197.116 39.8881L200.26 33.6H201.172L204.316 39.8881V40.8H197.116V39.8881Z" fill="white"/>
<path d="M209.106 31.2V48.0001H217.506C218.49 48.0001 219.354 47.6401 220.05 46.9441C220.746 46.2481 221.106 45.3841 221.106 44.4001V34.8C221.106 33.816 220.746 32.9521 220.05 32.2561C219.354 31.5601 218.49 31.2 217.506 31.2H209.106ZM218.706 44.4001C218.706 45.0721 218.178 45.6 217.506 45.6H211.506V33.6H217.506C218.178 33.6 218.706 34.128 218.706 34.8V44.4001Z" fill="white"/>
<path d="M235.497 31.2H223.497V48.0001H235.497V45.6H225.897V40.8H233.097V38.4001H225.897V33.6H235.497V31.2Z" fill="white"/>
<path d="M240.287 31.2H237.887V48.0001H240.287V35.7841L242.687 39.6721V41.1361H245.087V39.6721L247.487 35.7841V48.0001H249.887V31.2H247.487L243.887 37.0561L240.287 31.2Z" fill="white"/>
<path d="M261.878 34.2961L258.278 37.8961L254.678 34.2961V31.2H252.278V34.8C252.278 35.136 252.398 35.4241 252.638 35.6401L257.078 40.1041V48.0001H259.478V40.1041L263.918 35.6401C264.158 35.4241 264.278 35.136 264.278 34.8V31.2H261.878V34.2961Z" fill="white"/>
<path fill-rule="evenodd" clip-rule="evenodd" d="M48 12H12V48H48V12ZM10 10V50H50V10H10Z" fill="white"/>
<path d="M0 0H40V40H0V0Z" fill="#07D24C"/>
</svg>
