<svg width="290" height="30" viewBox="0 0 290 30" fill="none" xmlns="http://www.w3.org/2000/svg">
<path d="M6.28 23.28V5.28H10.76C12.3067 5.28 13.6 5.50667 14.64 5.96C15.7067 6.38667 16.56 7.01333 17.2 7.84C17.84 8.66667 18.2933 9.66667 18.56 10.84C18.8533 11.9867 19 13.28 19 14.72C19 16.2933 18.8 17.6267 18.4 18.72C18 19.8133 17.4667 20.7067 16.8 21.4C16.1333 22.0667 15.3733 22.5467 14.52 22.84C13.6667 23.1333 12.7867 23.28 11.88 23.28H6.28ZM0 0V28.56H12.32C14.5067 28.56 16.4 28.2 18 27.48C19.6267 26.7333 20.9733 25.72 22.04 24.44C23.1333 23.16 23.9467 21.64 24.48 19.88C25.0133 18.12 25.28 16.2 25.28 14.12C25.28 11.7467 24.9467 9.68 24.28 7.92C23.64 6.16 22.7333 4.69333 21.56 3.52C20.4133 2.34667 19.04 1.46667 17.44 0.88C15.8667 0.293333 14.16 0 12.32 0H0Z" fill="white"/>
<path d="M34.8884 4.68V0H29.2084V4.68H34.8884ZM29.2084 7.88V28.56H34.8884V7.88H29.2084Z" fill="white"/>
<path d="M43.7609 21.84H38.3609C38.4143 23.2267 38.7209 24.3867 39.2809 25.32C39.8676 26.2267 40.6009 26.96 41.4809 27.52C42.3876 28.08 43.4143 28.48 44.5609 28.72C45.7076 28.96 46.8809 29.08 48.0809 29.08C49.2543 29.08 50.4009 28.96 51.5209 28.72C52.6676 28.5067 53.6809 28.12 54.5609 27.56C55.4409 27 56.1476 26.2667 56.6809 25.36C57.2409 24.4267 57.5209 23.28 57.5209 21.92C57.5209 20.96 57.3343 20.16 56.9609 19.52C56.5876 18.8533 56.0943 18.3067 55.4809 17.88C54.8676 17.4267 54.1609 17.0667 53.3609 16.8C52.5876 16.5333 51.7876 16.3067 50.9609 16.12C50.1609 15.9333 49.3743 15.76 48.6009 15.6C47.8276 15.44 47.1343 15.2667 46.5209 15.08C45.9343 14.8667 45.4543 14.6 45.0809 14.28C44.7076 13.96 44.5209 13.5467 44.5209 13.04C44.5209 12.6133 44.6276 12.28 44.8409 12.04C45.0543 11.7733 45.3076 11.5733 45.6009 11.44C45.9209 11.3067 46.2676 11.2267 46.6409 11.2C47.0143 11.1467 47.3609 11.12 47.6809 11.12C48.6943 11.12 49.5743 11.32 50.3209 11.72C51.0676 12.0933 51.4809 12.8267 51.5609 13.92H56.9609C56.8543 12.64 56.5209 11.5867 55.9609 10.76C55.4276 9.90667 54.7476 9.22667 53.9209 8.72C53.0943 8.21333 52.1476 7.85333 51.0809 7.64C50.0409 7.42667 48.9609 7.32 47.8409 7.32C46.7209 7.32 45.6276 7.42667 44.5609 7.64C43.4943 7.82667 42.5343 8.17333 41.6809 8.68C40.8276 9.16 40.1343 9.82667 39.6009 10.68C39.0943 11.5333 38.8409 12.6267 38.8409 13.96C38.8409 14.8667 39.0276 15.64 39.4009 16.28C39.7743 16.8933 40.2676 17.4133 40.8809 17.84C41.4943 18.24 42.1876 18.5733 42.9609 18.84C43.7609 19.08 44.5743 19.2933 45.4009 19.48C47.4276 19.9067 49.0009 20.3333 50.1209 20.76C51.2676 21.1867 51.8409 21.8267 51.8409 22.68C51.8409 23.1867 51.7209 23.6133 51.4809 23.96C51.2409 24.28 50.9343 24.5467 50.5609 24.76C50.2143 24.9467 49.8143 25.0933 49.3609 25.2C48.9343 25.28 48.5209 25.32 48.1209 25.32C47.5609 25.32 47.0143 25.2533 46.4809 25.12C45.9743 24.9867 45.5209 24.7867 45.1209 24.52C44.7209 24.2267 44.3876 23.8667 44.1209 23.44C43.8809 22.9867 43.7609 22.4533 43.7609 21.84Z" fill="white"/>
<path d="M68.0453 7.88V1.68H62.3653V7.88H58.9253V11.68H62.3653V23.88C62.3653 24.92 62.5386 25.76 62.8853 26.4C63.232 27.04 63.6986 27.5333 64.2853 27.88C64.8986 28.2267 65.592 28.4533 66.3653 28.56C67.1653 28.6933 68.0053 28.76 68.8853 28.76C69.4453 28.76 70.0186 28.7467 70.6053 28.72C71.192 28.6933 71.7253 28.64 72.2053 28.56V24.16C71.9386 24.2133 71.6586 24.2533 71.3653 24.28C71.072 24.3067 70.7653 24.32 70.4453 24.32C69.4853 24.32 68.8453 24.16 68.5253 23.84C68.2053 23.52 68.0453 22.88 68.0453 21.92V11.68H72.2053V7.88H68.0453Z" fill="white"/>
<path d="M74.9078 7.88V28.56H80.5878V19.24C80.5878 18.3067 80.6811 17.44 80.8678 16.64C81.0545 15.84 81.3611 15.1467 81.7878 14.56C82.2411 13.9467 82.8278 13.4667 83.5478 13.12C84.2678 12.7733 85.1478 12.6 86.1878 12.6C86.5345 12.6 86.8945 12.6267 87.2678 12.68C87.6411 12.7067 87.9611 12.7467 88.2278 12.8V7.52C87.7745 7.38667 87.3611 7.32 86.9878 7.32C86.2678 7.32 85.5745 7.42667 84.9078 7.64C84.2411 7.85333 83.6145 8.16 83.0278 8.56C82.4411 8.93333 81.9211 9.4 81.4678 9.96C81.0145 10.4933 80.6545 11.08 80.3878 11.72H80.3078V7.88H74.9078Z" fill="white"/>
<path d="M96.2947 4.68V0H90.6147V4.68H96.2947ZM90.6147 7.88V28.56H96.2947V7.88H90.6147Z" fill="white"/>
<path d="M115.927 18.24C115.927 19.0933 115.834 19.92 115.647 20.72C115.461 21.52 115.167 22.2267 114.767 22.84C114.367 23.4533 113.861 23.9467 113.247 24.32C112.661 24.6667 111.941 24.84 111.087 24.84C110.261 24.84 109.541 24.6667 108.927 24.32C108.314 23.9467 107.807 23.4533 107.407 22.84C107.007 22.2267 106.714 21.52 106.527 20.72C106.341 19.92 106.247 19.0933 106.247 18.24C106.247 17.36 106.341 16.52 106.527 15.72C106.714 14.92 107.007 14.2133 107.407 13.6C107.807 12.9867 108.314 12.5067 108.927 12.16C109.541 11.7867 110.261 11.6 111.087 11.6C111.941 11.6 112.661 11.7867 113.247 12.16C113.861 12.5067 114.367 12.9867 114.767 13.6C115.167 14.2133 115.461 14.92 115.647 15.72C115.834 16.52 115.927 17.36 115.927 18.24ZM100.767 0V28.56H106.167V25.92H106.247C106.861 27.0667 107.767 27.88 108.967 28.36C110.167 28.84 111.527 29.08 113.047 29.08C114.087 29.08 115.114 28.8667 116.127 28.44C117.141 28.0133 118.047 27.36 118.847 26.48C119.674 25.6 120.341 24.48 120.847 23.12C121.354 21.7333 121.607 20.0933 121.607 18.2C121.607 16.3067 121.354 14.68 120.847 13.32C120.341 11.9333 119.674 10.8 118.847 9.92C118.047 9.04 117.141 8.38667 116.127 7.96C115.114 7.53333 114.087 7.32 113.047 7.32C111.767 7.32 110.527 7.57333 109.327 8.08C108.154 8.56 107.221 9.33333 106.527 10.4H106.447V0H100.767Z" fill="white"/>
<path d="M144.62 28.56V7.88H138.94V18.72C138.94 20.8267 138.594 22.3467 137.9 23.28C137.207 24.1867 136.087 24.64 134.54 24.64C133.18 24.64 132.234 24.2267 131.7 23.4C131.167 22.5467 130.9 21.2667 130.9 19.56V7.88H125.22V20.6C125.22 21.88 125.327 23.0533 125.54 24.12C125.78 25.16 126.18 26.0533 126.74 26.8C127.3 27.52 128.06 28.08 129.02 28.48C130.007 28.88 131.26 29.08 132.78 29.08C133.98 29.08 135.154 28.8133 136.3 28.28C137.447 27.7467 138.38 26.88 139.1 25.68H139.22V28.56H144.62Z" fill="white"/>
<path d="M156.131 7.88V1.68H150.451V7.88H147.011V11.68H150.451V23.88C150.451 24.92 150.625 25.76 150.971 26.4C151.318 27.04 151.785 27.5333 152.371 27.88C152.985 28.2267 153.678 28.4533 154.451 28.56C155.251 28.6933 156.091 28.76 156.971 28.76C157.531 28.76 158.105 28.7467 158.691 28.72C159.278 28.6933 159.811 28.64 160.291 28.56V24.16C160.025 24.2133 159.745 24.2533 159.451 24.28C159.158 24.3067 158.851 24.32 158.531 24.32C157.571 24.32 156.931 24.16 156.611 23.84C156.291 23.52 156.131 22.88 156.131 21.92V11.68H160.291V7.88H156.131Z" fill="white"/>
<path d="M176.914 16H167.674C167.7 15.6 167.78 15.1467 167.914 14.64C168.074 14.1333 168.327 13.6533 168.674 13.2C169.047 12.7467 169.527 12.3733 170.114 12.08C170.727 11.76 171.487 11.6 172.394 11.6C173.78 11.6 174.807 11.9733 175.474 12.72C176.167 13.4667 176.647 14.56 176.914 16ZM167.674 19.6H182.594C182.7 18 182.567 16.4667 182.194 15C181.82 13.5333 181.207 12.2267 180.354 11.08C179.527 9.93333 178.46 9.02667 177.154 8.36C175.847 7.66667 174.314 7.32 172.554 7.32C170.98 7.32 169.54 7.6 168.234 8.16C166.954 8.72 165.847 9.49333 164.914 10.48C163.98 11.44 163.26 12.5867 162.754 13.92C162.247 15.2533 161.994 16.6933 161.994 18.24C161.994 19.84 162.234 21.3067 162.714 22.64C163.22 23.9733 163.927 25.12 164.834 26.08C165.74 27.04 166.847 27.7867 168.154 28.32C169.46 28.8267 170.927 29.08 172.554 29.08C174.9 29.08 176.9 28.5467 178.554 27.48C180.207 26.4133 181.434 24.64 182.234 22.16H177.234C177.047 22.8 176.54 23.4133 175.714 24C174.887 24.56 173.9 24.84 172.754 24.84C171.154 24.84 169.927 24.4267 169.074 23.6C168.22 22.7733 167.754 21.44 167.674 19.6Z" fill="white"/>
<path d="M200.643 18.16C200.643 19.0133 200.563 19.84 200.403 20.64C200.243 21.44 199.976 22.16 199.603 22.8C199.229 23.4133 198.723 23.9067 198.083 24.28C197.469 24.6533 196.696 24.84 195.763 24.84C194.883 24.84 194.123 24.6533 193.483 24.28C192.869 23.88 192.349 23.3733 191.923 22.76C191.523 22.12 191.229 21.4 191.043 20.6C190.856 19.8 190.763 19 190.763 18.2C190.763 17.3467 190.843 16.5333 191.003 15.76C191.189 14.96 191.469 14.2533 191.842 13.64C192.242 13.0267 192.763 12.5333 193.403 12.16C194.043 11.7867 194.829 11.6 195.763 11.6C196.696 11.6 197.469 11.7867 198.083 12.16C198.696 12.5333 199.189 13.0267 199.562 13.64C199.962 14.2267 200.243 14.92 200.403 15.72C200.563 16.4933 200.643 17.3067 200.643 18.16ZM200.723 25.92V28.56H206.123V0H200.443V10.4H200.363C199.723 9.38667 198.843 8.62667 197.723 8.12C196.629 7.58667 195.469 7.32 194.243 7.32C192.723 7.32 191.389 7.62667 190.243 8.24C189.096 8.82667 188.136 9.61333 187.363 10.6C186.616 11.5867 186.043 12.7333 185.643 14.04C185.269 15.32 185.083 16.6533 185.083 18.04C185.083 19.48 185.269 20.8667 185.643 22.2C186.043 23.5333 186.616 24.72 187.363 25.76C188.136 26.7733 189.109 27.5867 190.283 28.2C191.456 28.7867 192.816 29.08 194.363 29.08C195.723 29.08 196.936 28.84 198.003 28.36C199.096 27.8533 199.976 27.04 200.643 25.92H200.723Z" fill="white"/>
<path d="M222.148 0V28.56H242.348V23.28H228.428V0H222.148Z" fill="white"/>
<path d="M245.019 14.24C245.099 12.9067 245.433 11.8 246.019 10.92C246.606 10.04 247.353 9.33333 248.259 8.8C249.166 8.26667 250.179 7.89333 251.299 7.68C252.446 7.44 253.593 7.32 254.739 7.32C255.779 7.32 256.833 7.4 257.899 7.56C258.966 7.69333 259.939 7.97333 260.819 8.4C261.699 8.82667 262.419 9.42667 262.979 10.2C263.539 10.9467 263.819 11.9467 263.819 13.2V23.96C263.819 24.8933 263.873 25.7867 263.979 26.64C264.086 27.4933 264.273 28.1333 264.539 28.56H258.779C258.673 28.24 258.579 27.92 258.499 27.6C258.446 27.2533 258.406 26.9067 258.379 26.56C257.473 27.4933 256.406 28.1467 255.179 28.52C253.953 28.8933 252.699 29.08 251.419 29.08C250.433 29.08 249.513 28.96 248.659 28.72C247.806 28.48 247.059 28.1067 246.419 27.6C245.779 27.0933 245.273 26.4533 244.899 25.68C244.553 24.9067 244.379 23.9867 244.379 22.92C244.379 21.7467 244.579 20.7867 244.979 20.04C245.406 19.2667 245.939 18.6533 246.579 18.2C247.246 17.7467 247.993 17.4133 248.819 17.2C249.673 16.96 250.526 16.7733 251.379 16.64C252.233 16.5067 253.073 16.4 253.899 16.32C254.726 16.24 255.459 16.12 256.099 15.96C256.739 15.8 257.246 15.5733 257.619 15.28C257.993 14.96 258.166 14.5067 258.139 13.92C258.139 13.3067 258.033 12.8267 257.819 12.48C257.633 12.1067 257.366 11.8267 257.019 11.64C256.699 11.4267 256.313 11.2933 255.859 11.24C255.433 11.16 254.966 11.12 254.459 11.12C253.339 11.12 252.459 11.36 251.819 11.84C251.179 12.32 250.806 13.12 250.699 14.24H245.019ZM258.139 18.44C257.899 18.6533 257.593 18.8267 257.219 18.96C256.873 19.0667 256.486 19.16 256.059 19.24C255.659 19.32 255.233 19.3867 254.779 19.44C254.326 19.4933 253.873 19.56 253.419 19.64C252.993 19.72 252.566 19.8267 252.139 19.96C251.739 20.0933 251.379 20.28 251.059 20.52C250.766 20.7333 250.526 21.0133 250.339 21.36C250.153 21.7067 250.059 22.1467 250.059 22.68C250.059 23.1867 250.153 23.6133 250.339 23.96C250.526 24.3067 250.779 24.5867 251.099 24.8C251.419 24.9867 251.793 25.12 252.219 25.2C252.646 25.28 253.086 25.32 253.539 25.32C254.659 25.32 255.526 25.1333 256.139 24.76C256.753 24.3867 257.206 23.9467 257.499 23.44C257.793 22.9067 257.966 22.3733 258.019 21.84C258.099 21.3067 258.139 20.88 258.139 20.56V18.44Z" fill="white"/>
<path d="M283.388 18.24C283.388 19.0933 283.295 19.92 283.108 20.72C282.921 21.52 282.628 22.2267 282.228 22.84C281.828 23.4533 281.321 23.9467 280.708 24.32C280.121 24.6667 279.401 24.84 278.548 24.84C277.721 24.84 277.001 24.6667 276.388 24.32C275.775 23.9467 275.268 23.4533 274.868 22.84C274.468 22.2267 274.175 21.52 273.988 20.72C273.801 19.92 273.708 19.0933 273.708 18.24C273.708 17.36 273.801 16.52 273.988 15.72C274.175 14.92 274.468 14.2133 274.868 13.6C275.268 12.9867 275.775 12.5067 276.388 12.16C277.001 11.7867 277.721 11.6 278.548 11.6C279.401 11.6 280.121 11.7867 280.708 12.16C281.321 12.5067 281.828 12.9867 282.228 13.6C282.628 14.2133 282.921 14.92 283.108 15.72C283.295 16.52 283.388 17.36 283.388 18.24ZM268.228 0V28.56H273.628V25.92H273.708C274.321 27.0667 275.228 27.88 276.428 28.36C277.628 28.84 278.988 29.08 280.508 29.08C281.548 29.08 282.575 28.8667 283.588 28.44C284.601 28.0133 285.508 27.36 286.308 26.48C287.135 25.6 287.801 24.48 288.308 23.12C288.815 21.7333 289.068 20.0933 289.068 18.2C289.068 16.3067 288.815 14.68 288.308 13.32C287.801 11.9333 287.135 10.8 286.308 9.92C285.508 9.04 284.601 8.38667 283.588 7.96C282.575 7.53333 281.548 7.32 280.508 7.32C279.228 7.32 277.988 7.57333 276.788 8.08C275.615 8.56 274.681 9.33333 273.988 10.4H273.908V0H268.228Z" fill="white"/>
</svg>
