<svg width="169" height="87" viewBox="0 0 169 87" fill="none" xmlns="http://www.w3.org/2000/svg">
<path d="M25.6035 57.4038L25.0684 57.6291L24.5332 57.4038L10.3654 51.179L0.0281982 54.6716L25.0684 65.6848L50.0804 54.6716L39.7432 51.179L25.6035 57.4038Z" fill="white"/>
<path d="M25.6035 47.32L25.0684 47.5454L24.5332 47.32L10.3654 41.0952L0.0281982 44.5597L25.0684 55.5729L50.0804 44.5597L39.7432 41.0952L25.6035 47.32Z" fill="white"/>
<path d="M24.2797 0L0 34.7295L24.2797 45.4047V0Z" fill="white"/>
<path d="M62.9807 28.8426V18.7026H70.6702V20.6743H65.2058V22.7305H70.0223V24.7303H65.2058V26.8428H70.7265V28.8426H62.9807Z" fill="white"/>
<path d="M81.289 28.8426L76.3598 22.3925V28.8426H74.1628V18.7026H76.219L80.951 24.9556V18.7026H83.1762V28.8426H81.289Z" fill="white"/>
<path d="M91.7107 20.7306V28.8426H89.4573V20.7306H86.359V18.7026H94.7808V20.7306H91.7107Z" fill="white"/>
<path d="M97.9355 28.8426V18.7026H105.597V20.6743H100.161V22.7305H104.949V24.7303H100.161V26.8428H105.681V28.8426H97.9355Z" fill="white"/>
<path d="M115.342 22.139C115.342 21.1813 114.666 20.7025 113.596 20.7025H111.371V23.6318H113.652C114.695 23.6036 115.342 23.0403 115.342 22.139ZM115.286 28.8426L113.117 25.5753H111.371V28.8426H109.146V18.7026H113.793C116.187 18.7026 117.624 19.942 117.624 22.0545V22.0826C117.624 23.7163 116.751 24.7585 115.455 25.2373L117.934 28.8708H115.286V28.8426Z" fill="white"/>
<path d="M126.834 22.2235C126.834 21.2376 126.13 20.7025 125.032 20.7025H123.314V23.8008H125.088C126.215 23.8008 126.863 23.1248 126.863 22.2798V22.2235H126.834ZM125.004 25.8006H123.285V28.8426H121.06V18.7026H125.201C127.623 18.7026 129.088 20.1391 129.088 22.2235V22.2516C129.116 24.5613 127.285 25.8006 125.004 25.8006Z" fill="white"/>
<path d="M138.439 22.139C138.439 21.1813 137.763 20.7025 136.693 20.7025H134.468V23.6318H136.749C137.819 23.6036 138.439 23.0403 138.439 22.139ZM138.411 28.8426L136.242 25.5753H134.496V28.8426H132.242V18.7026H136.89C139.284 18.7026 140.721 19.942 140.721 22.0545V22.0826C140.721 23.7163 139.847 24.7585 138.552 25.2373L141.03 28.8708H138.411V28.8426Z" fill="white"/>
<path d="M146.495 18.7026H144.27V28.8426H146.495V18.7026Z" fill="white"/>
<path d="M154.128 28.9834C152.607 28.9834 151.03 28.4482 149.818 27.3497L151.142 25.7724C152.044 26.5329 153.029 27.0117 154.156 27.0117C155.057 27.0117 155.621 26.6455 155.621 26.054V26.0259C155.621 25.4625 155.283 25.1527 153.565 24.7302C151.508 24.2232 150.185 23.6599 150.185 21.6319V21.5755C150.185 19.7447 151.677 18.5054 153.762 18.5054C155.255 18.5054 156.494 18.9842 157.536 19.801L156.381 21.491C155.48 20.8714 154.579 20.5052 153.734 20.5052C152.889 20.5052 152.438 20.8995 152.438 21.3784V21.4065C152.438 22.0825 152.86 22.2797 154.607 22.7585C156.663 23.2937 157.818 24.026 157.818 25.8005V25.8287C157.846 27.8567 156.297 28.9834 154.128 28.9834Z" fill="white"/>
<path d="M161.254 28.8426V18.7026H168.915V20.6743H163.479V22.7305H168.268V24.7303H163.479V26.8428H169V28.8426H161.254Z" fill="white"/>
<path d="M62.9807 48.9256V38.7856H70.6702V40.7573H65.2058V42.8135H70.0223V44.8133H65.2058V46.954H70.7265V48.9256H62.9807Z" fill="white"/>
<path d="M78.7822 40.8418V48.9256H76.5571V40.8418H73.4587V38.7856H81.8806V40.8418H78.7822Z" fill="white"/>
<path d="M91.4008 48.9256V44.8415H87.2603V48.9256H85.0352V38.7856H87.2603V42.7853H91.4008V38.7856H93.626V48.9256H91.4008Z" fill="white"/>
<path d="M97.5131 48.9256V38.7856H105.174V40.7573H99.7382V42.8135H104.527V44.8133H99.7382V46.954H105.231V48.9256H97.5131Z" fill="white"/>
<path d="M114.892 42.222C114.892 41.2643 114.216 40.7855 113.146 40.7855H110.92V43.7148H113.202C114.272 43.7148 114.892 43.1233 114.892 42.222ZM114.864 48.9256L112.695 45.6583H110.949V48.9256H108.723V38.7856H113.371C115.765 38.7856 117.202 40.025 117.202 42.1375V42.1656C117.202 43.7993 116.328 44.8415 115.033 45.3203L117.511 48.9538H114.864V48.9256Z" fill="white"/>
<path d="M120.638 48.9256V38.7856H128.299V40.7573H122.863V42.8135H127.651V44.8133H122.863V46.954H128.384V48.9256H120.638Z" fill="white"/>
<path d="M136.073 49.0946C133.341 49.0946 131.679 47.5736 131.679 44.588V38.7856H133.904V44.5316C133.904 46.1935 134.721 47.0385 136.073 47.0385C137.425 47.0385 138.242 46.2216 138.242 44.588V38.7856H140.467V44.5316C140.524 47.5736 138.777 49.0946 136.073 49.0946Z" fill="white"/>
<path d="M152.185 48.9256V42.3065L149.34 46.6441H149.255L146.439 42.3346V48.9256H144.242V38.7856H146.664L149.34 43.067L152.044 38.7856H154.438V48.9256H152.185Z" fill="white"/>
<path d="M67.4874 61.4595L66.1354 64.755H68.8394L67.4874 61.4595ZM70.5575 69.0082L69.628 66.7267H65.3185L64.389 69.0082H62.1075L66.4734 58.7837H68.5295L72.8954 69.0082H70.5575Z" fill="white"/>
<path d="M75.9091 69.0082V58.8682H78.1343V66.9802H83.2043V69.0082H75.9091Z" fill="white"/>
<path d="M86.3308 69.0082V58.8682H88.5841V66.9802H93.6541V69.0082H86.3308Z" fill="white"/>
<path d="M99.1185 58.8682H96.8933V69.0082H99.1185V58.8682Z" fill="white"/>
<path d="M107.597 61.4595L106.245 64.755H108.949L107.597 61.4595ZM110.695 69.0082L109.765 66.7267H105.456L104.526 69.0082H102.245L106.611 58.7837H108.667L113.033 69.0082H110.695Z" fill="white"/>
<path d="M123.173 69.0082L118.244 62.558V69.0082H116.047V58.8682H118.103L122.835 65.1212V58.8682H125.06V69.0082H123.173Z" fill="white"/>
<path d="M133.707 69.1773C130.722 69.1773 128.496 66.8676 128.496 63.9383V63.9101C128.496 61.009 130.665 58.6711 133.792 58.6711C135.707 58.6711 136.862 59.319 137.791 60.2485L136.355 61.8821C135.566 61.178 134.778 60.7273 133.764 60.7273C132.045 60.7273 130.834 62.1638 130.834 63.882V63.9101C130.834 65.6565 132.045 67.093 133.764 67.093C134.918 67.093 135.651 66.6423 136.439 65.91L137.876 67.3465C136.834 68.5013 135.679 69.1773 133.707 69.1773Z" fill="white"/>
<path d="M141.115 69.0082V58.8682H148.776V60.8398H143.34V62.896H148.128V64.8958H143.34V67.0365H148.861V69.0082H141.115Z" fill="white"/>
<path d="M25.7725 67.2619V86.2744L49.7987 56.5586L25.7725 67.2619Z" fill="white"/>
<path d="M24.167 67.2901L0.140869 56.5586L24.167 86.3308V67.2901Z" fill="white"/>
<path d="M25.7725 0.0844727V45.3765L50.024 34.7295L25.7725 0.0844727Z" fill="white"/>
</svg>
