<svg width="200" height="66" viewBox="0 0 200 66" fill="none" xmlns="http://www.w3.org/2000/svg">
<path fill-rule="evenodd" clip-rule="evenodd" d="M83.6636 32.4849H77.5228V28.9534H93.8722V32.4849H87.7314V46.8448H83.6636V32.4849ZM112.783 31.1693C114.464 32.8312 115.309 35.0644 115.309 37.8948C115.309 40.7252 114.464 42.9584 112.783 44.603C111.101 46.2649 108.828 47.0872 105.962 47.0872C103.097 47.0872 100.832 46.2649 99.1595 44.603C97.4783 42.9584 96.6334 40.7252 96.6334 37.8948C96.6334 35.0644 97.4696 32.8312 99.1595 31.1693C100.832 29.5247 103.105 28.7024 105.962 28.7024C108.828 28.7024 111.101 29.5247 112.783 31.1693ZM109.725 41.937C110.614 40.8724 111.058 39.5307 111.058 37.8948C111.058 36.2589 110.622 34.9259 109.725 33.8612C108.837 32.7966 107.582 32.2772 105.971 32.2772C104.351 32.2772 103.105 32.8052 102.217 33.8612C101.328 34.9259 100.875 36.2589 100.875 37.8948C100.875 39.5307 101.328 40.8724 102.217 41.937C103.105 43.0017 104.351 43.521 105.971 43.521C107.582 43.521 108.837 43.0017 109.725 41.937ZM131.641 28.9534H136.475L129.167 37.8255L136.876 46.8448H132.041L124.559 38.0246V46.8448H120.5V28.9534H124.559V37.6005L131.641 28.9534ZM155.289 46.8448H140.534V28.9534H155.289V32.3638H144.593V36.0425H153.617V39.3143H144.593V43.4518H155.289V46.8448ZM177.675 46.8448H171.56L165.08 34.9691L164.252 32.684H163.86L164.427 34.9691V46.8448H160.376V28.9534H166.491L172.972 40.8464L173.799 43.1142H174.191L173.625 40.8464V28.9534H177.684L177.675 46.8448ZM190.68 46.8448H183.389V28.9534H190.68C193.607 28.9534 195.889 29.7411 197.535 31.3078C199.181 32.8918 199.991 35.0903 199.991 37.8948C199.991 40.6992 199.173 42.8978 197.544 44.4731C195.906 46.0572 193.615 46.8448 190.68 46.8448ZM187.44 43.3133H190.68C192.309 43.3133 193.572 42.8112 194.443 41.8332C195.305 40.8464 195.749 39.5394 195.749 37.9034C195.749 36.2675 195.305 34.9605 194.443 33.9737C193.563 32.987 192.309 32.4936 190.68 32.4936H187.44C187.44 32.485 187.44 43.3133 187.44 43.3133Z" fill="white"/>
<path d="M1.96856 18.6189V47.3906C1.96856 47.6849 2.10792 47.9619 2.35181 48.1436L23.1175 63.8884C23.4746 64.1567 23.9711 64.1567 24.3282 63.8884L44.8064 48.1523C45.0416 47.9705 45.181 47.6935 45.181 47.3992V18.6103C45.181 18.316 45.0416 18.039 44.8064 17.8572L24.3195 2.12108C23.9624 1.84409 23.4659 1.84409 23.1088 2.12108L2.3431 17.8572C2.10792 18.039 1.96856 18.316 1.96856 18.6189ZM1.13235 16.3511L21.9067 0.606322C22.9781 -0.198661 24.4676 -0.198661 25.539 0.614978L46.0172 16.3511C46.7227 16.8964 47.1408 17.7274 47.1408 18.6103V47.3992C47.1408 48.2821 46.7314 49.1131 46.0172 49.6584L25.5302 65.3859C24.4589 66.1995 22.9781 66.2082 21.898 65.3945L1.13235 49.6584C0.4181 49.1217 0 48.2821 0 47.3906V18.6189C0 17.7274 0.4181 16.8878 1.13235 16.3511Z" fill="white"/>
<path fill-rule="evenodd" clip-rule="evenodd" d="M1.72467 17.0518L24.1279 35.1422C25.1296 35.9472 25.7132 37.1677 25.7132 38.4487V64.7795H22.4729L1.72467 49.2511V17.0518Z" fill="white"/>
</svg>
