<?xml version="1.0" encoding="UTF-8" standalone="no"?>
<!-- Created with Keyshape -->
<svg xmlns="http://www.w3.org/2000/svg" width="22" height="22" viewBox="0 0 22 22" fill="none" style="background: rgba(0,0,0,0.00);">
    <defs>
        <clipPath id="clip0">
            <rect width="22" height="22" fill="white"/>
        </clipPath>
    </defs>
    <style>
@keyframes a0_t { 0% { transform: translate(0px,0px); } 25% { transform: translate(0px,0px); animation-timing-function: cubic-bezier(0.165,0.84,0.44,1); } 75% { transform: translate(0px,9px); } 100% { transform: translate(0px,9px); } }
@keyframes a0_o { 0% { opacity: 0; } 25% { opacity: 1; } 75% { opacity: 1; } 100% { opacity: 0; } }
    </style>
    <g clip-path="url(#clip0)">
        <path d="M10.9829,0C7.41463,0,4.51172,2.90291,4.51172,6.47116L4.51172,15.5288C4.51172,19.0971,7.41463,22,10.9829,22C14.5511,22,17.454,19.0971,17.454,15.5288L17.454,6.47116C17.454,2.90291,14.5511,0,10.9829,0ZM16.1341,15.5288C16.1341,18.3691,13.8232,20.6801,10.9829,20.6801C8.14258,20.6801,5.83167,18.3691,5.83167,15.5288L5.83167,6.47116C5.83167,3.63086,8.14258,1.31995,10.9829,1.31995C13.8232,1.31995,16.1341,3.63086,16.1341,6.47116L16.1341,15.5288Z" fill="white"/>
        <path d="M10.983,4.37646C10.6184,4.37646,10.323,4.67187,10.323,5.03644L10.323,8.07413C10.323,8.43852,10.6184,8.7341,10.983,8.7341C11.3474,8.7341,11.643,8.43852,11.643,8.07413L11.643,5.03644C11.643,4.67187,11.3476,4.37646,10.983,4.37646Z" fill="white" opacity="0" style="animation: 2s linear infinite both a0_t, 2s linear infinite both a0_o;"/>
    </g>
</svg>
