<svg width="121" height="84" viewBox="0 0 121 84" fill="none" xmlns="http://www.w3.org/2000/svg">
<path d="M42.9068 14.068C42.9068 11.7372 41.0173 9.84765 38.6864 9.84765C36.3556 9.84765 34.4661 11.7372 34.4661 14.068C34.4661 16.3988 36.3556 18.2883 38.6864 18.2883C41.0173 18.2883 42.9068 16.3988 42.9068 14.068Z" fill="#1CCB62"/>
<path d="M41.8517 14.0679C41.8517 12.3198 40.4346 10.9026 38.6864 10.9026C36.9383 10.9026 35.5212 12.3198 35.5212 14.0679C35.5212 15.816 36.9383 17.2332 38.6864 17.2332C40.4346 17.2332 41.8517 15.816 41.8517 14.0679Z" stroke="#151515" stroke-width="1.5" stroke-miterlimit="10"/>
<path d="M42.9068 14.068C42.9068 11.7372 41.0173 9.84765 38.6864 9.84765C36.3556 9.84765 34.4661 11.7372 34.4661 14.068C34.4661 16.3988 36.3556 18.2883 38.6864 18.2883C41.0173 18.2883 42.9068 16.3988 42.9068 14.068Z" stroke="#151515" stroke-miterlimit="10"/>
<path d="M31.6525 14.068C31.6525 11.7372 29.763 9.84765 27.4322 9.84765C25.1014 9.84765 23.2119 11.7372 23.2119 14.068C23.2119 16.3988 25.1014 18.2883 27.4322 18.2883C29.763 18.2883 31.6525 16.3988 31.6525 14.068Z" fill="#1CCB62"/>
<path d="M30.5975 14.0679C30.5975 12.3198 29.1803 10.9026 27.4322 10.9026C25.6841 10.9026 24.267 12.3198 24.267 14.0679C24.267 15.816 25.6841 17.2332 27.4322 17.2332C29.1803 17.2332 30.5975 15.816 30.5975 14.0679Z" stroke="#151515" stroke-width="1.5" stroke-miterlimit="10"/>
<path d="M31.6525 14.068C31.6525 11.7372 29.763 9.84765 27.4322 9.84765C25.1014 9.84765 23.2119 11.7372 23.2119 14.068C23.2119 16.3988 25.1014 18.2883 27.4322 18.2883C29.763 18.2883 31.6525 16.3988 31.6525 14.068Z" stroke="#151515" stroke-miterlimit="10"/>
<path d="M20.3983 14.068C20.3983 11.7372 18.5088 9.84765 16.178 9.84765C13.8471 9.84765 11.9576 11.7372 11.9576 14.068C11.9576 16.3988 13.8471 18.2883 16.178 18.2883C18.5088 18.2883 20.3983 16.3988 20.3983 14.068Z" fill="#1CCB62"/>
<path d="M19.3432 14.0679C19.3432 12.3198 17.9261 10.9026 16.178 10.9026C14.4299 10.9026 13.0127 12.3198 13.0127 14.0679C13.0127 15.816 14.4299 17.2332 16.178 17.2332C17.9261 17.2332 19.3432 15.816 19.3432 14.0679Z" stroke="#151515" stroke-width="1.5" stroke-miterlimit="10"/>
<path d="M20.3983 14.068C20.3983 11.7372 18.5088 9.84765 16.178 9.84765C13.8471 9.84765 11.9576 11.7372 11.9576 14.068C11.9576 16.3988 13.8471 18.2883 16.178 18.2883C18.5088 18.2883 20.3983 16.3988 20.3983 14.068Z" stroke="#151515" stroke-miterlimit="10"/>
<path d="M116.059 4.92383H4.92374V79.4831H116.059V4.92383Z" stroke="white" stroke-width="2" stroke-miterlimit="10" stroke-linecap="round" stroke-linejoin="round"/>
<path d="M5.62713 23.9153H115.438" stroke="white" stroke-width="2" stroke-miterlimit="10" stroke-linecap="round" stroke-linejoin="round"/>
<path d="M120 5C120 2.79086 118.209 0.999998 116 0.999998C113.791 0.999998 112 2.79086 112 5C112 7.20914 113.791 9 116 9C118.209 9 120 7.20914 120 5Z" fill="#181818"/>
<path d="M119 5C119 3.34315 117.657 2 116 2C114.343 2 113 3.34315 113 5C113 6.65685 114.343 8 116 8C117.657 8 119 6.65685 119 5Z" stroke="#181818" stroke-width="2" stroke-miterlimit="10"/>
<path d="M120 5C120 2.79086 118.209 0.999998 116 0.999998C113.791 0.999998 112 2.79086 112 5C112 7.20914 113.791 9 116 9C118.209 9 120 7.20914 120 5Z" stroke="#1CCB62" stroke-width="2" stroke-miterlimit="10"/>
<path d="M9 79C9 76.7909 7.20914 75 5 75C2.79086 75 1 76.7909 1 79C1 81.2091 2.79086 83 5 83C7.20914 83 9 81.2091 9 79Z" fill="#181818"/>
<path d="M7.99995 79C7.99995 77.3431 6.65682 76 4.99998 76C3.34314 76 2 77.3431 2 79C2 80.6569 3.34314 82 4.99998 82C6.65682 82 7.99995 80.6569 7.99995 79Z" stroke="#181818" stroke-width="2" stroke-miterlimit="10"/>
<path d="M9 79C9 76.7909 7.20914 75 5 75C2.79086 75 1 76.7909 1 79C1 81.2091 2.79086 83 5 83C7.20914 83 9 81.2091 9 79Z" stroke="#1CCB62" stroke-width="2" stroke-miterlimit="10"/>
</svg>
