<svg width="97" height="84" viewBox="0 0 97 84" fill="none" xmlns="http://www.w3.org/2000/svg">
<g clip-path="url(#clip0)">
<path d="M89.7984 64.7234V79.1677L79.3788 64.7234H6.77105V6.94775H89.7984V64.7234Z" stroke="white" stroke-width="2" stroke-miterlimit="10" stroke-linecap="round" stroke-linejoin="round"/>
<path d="M94.5238 77.5453C94.5238 75.0948 92.5378 73.1082 90.088 73.1082C87.6382 73.1082 85.6522 75.0948 85.6522 77.5453C85.6522 79.9959 87.6382 81.9824 90.088 81.9824C92.5378 81.9824 94.5238 79.9959 94.5238 77.5453Z" fill="#C2C2C2"/>
<path d="M93.4148 77.5455C93.4148 75.7075 91.9253 74.2176 90.088 74.2176C88.2506 74.2176 86.7612 75.7075 86.7612 77.5455C86.7612 79.3834 88.2506 80.8733 90.088 80.8733C91.9253 80.8733 93.4148 79.3834 93.4148 77.5455Z" stroke="#151515" stroke-width="1.5" stroke-miterlimit="10"/>
<path d="M94.5238 77.5453C94.5238 75.0948 92.5378 73.1082 90.088 73.1082C87.6382 73.1082 85.6522 75.0948 85.6522 77.5453C85.6522 79.9959 87.6382 81.9824 90.088 81.9824C92.5378 81.9824 94.5238 79.9959 94.5238 77.5453Z" stroke="#151515" stroke-miterlimit="10"/>
<path d="M10.9833 64.9733C10.9833 62.5227 8.99737 60.5362 6.54756 60.5362C4.09775 60.5362 2.11179 62.5227 2.11179 64.9733C2.11179 67.4238 4.09775 69.4104 6.54756 69.4104C8.99737 69.4104 10.9833 67.4238 10.9833 64.9733Z" fill="#C2C2C2"/>
<path d="M9.87437 64.9734C9.87437 63.1355 8.3849 61.6456 6.54754 61.6456C4.71018 61.6456 3.22071 63.1355 3.22071 64.9734C3.22071 66.8113 4.71018 68.3013 6.54754 68.3013C8.3849 68.3013 9.87437 66.8113 9.87437 64.9734Z" stroke="#151515" stroke-width="1.5" stroke-miterlimit="10"/>
<path d="M10.9833 64.9733C10.9833 62.5227 8.99737 60.5362 6.54756 60.5362C4.09775 60.5362 2.11179 62.5227 2.11179 64.9733C2.11179 67.4238 4.09775 69.4104 6.54756 69.4104C8.99737 69.4104 10.9833 67.4238 10.9833 64.9733Z" stroke="#151515" stroke-miterlimit="10"/>
<path d="M94.5238 6.55141C94.5238 4.10086 92.5378 2.1143 90.088 2.1143C87.6382 2.1143 85.6522 4.10086 85.6522 6.55141C85.6522 9.00196 87.6382 10.9885 90.088 10.9885C92.5378 10.9885 94.5238 9.00196 94.5238 6.55141Z" fill="#C2C2C2"/>
<path d="M93.4148 6.55156C93.4148 4.71365 91.9253 3.22373 90.088 3.22373C88.2506 3.22373 86.7612 4.71365 86.7612 6.55156C86.7612 8.38947 88.2506 9.87939 90.088 9.87939C91.9253 9.87939 93.4148 8.38947 93.4148 6.55156Z" stroke="#151515" stroke-width="1.5" stroke-miterlimit="10"/>
<path d="M94.5238 6.55141C94.5238 4.10086 92.5378 2.1143 90.088 2.1143C87.6382 2.1143 85.6522 4.10086 85.6522 6.55141C85.6522 9.00196 87.6382 10.9885 90.088 10.9885C92.5378 10.9885 94.5238 9.00196 94.5238 6.55141Z" stroke="#151515" stroke-miterlimit="10"/>
<path d="M10.9833 6.55141C10.9833 4.10086 8.99737 2.1143 6.54756 2.1143C4.09775 2.1143 2.11179 4.10086 2.11179 6.55141C2.11179 9.00196 4.09775 10.9885 6.54756 10.9885C8.99737 10.9885 10.9833 9.00196 10.9833 6.55141Z" fill="#C2C2C2"/>
<path d="M9.87437 6.55156C9.87437 4.71365 8.3849 3.22373 6.54754 3.22373C4.71018 3.22373 3.22071 4.71365 3.22071 6.55156C3.22071 8.38947 4.71018 9.87939 6.54754 9.87939C8.3849 9.87939 9.87437 8.38947 9.87437 6.55156Z" stroke="#151515" stroke-width="1.5" stroke-miterlimit="10"/>
<path d="M10.9833 6.55141C10.9833 4.10086 8.99737 2.1143 6.54756 2.1143C4.09775 2.1143 2.11179 4.10086 2.11179 6.55141C2.11179 9.00196 4.09775 10.9885 6.54756 10.9885C8.99737 10.9885 10.9833 9.00196 10.9833 6.55141Z" stroke="#151515" stroke-miterlimit="10"/>
<path d="M11 64C11 61.7909 9.20914 60 7 60C4.79086 60 3 61.7909 3 64C3 66.2091 4.79086 68 7 68C9.20914 68 11 66.2091 11 64Z" fill="#181818"/>
<path d="M10.0002 64.0002C10.0002 62.3434 8.65702 61.0002 7.00018 61.0002C5.34333 61.0002 4.0002 62.3434 4.0002 64.0002C4.0002 65.6571 5.34333 67.0002 7.00018 67.0002C8.65702 67.0002 10.0002 65.6571 10.0002 64.0002Z" stroke="#181818" stroke-width="2" stroke-miterlimit="10"/>
<path d="M11 64C11 61.7909 9.20914 60 7 60C4.79086 60 3 61.7909 3 64C3 66.2091 4.79086 68 7 68C9.20914 68 11 66.2091 11 64Z" stroke="#1CCB62" stroke-width="2" stroke-miterlimit="10"/>
<path d="M11 7C11 4.79086 9.20914 3 7 3C4.79086 3 3 4.79086 3 7C3 9.20914 4.79086 11 7 11C9.20914 11 11 9.20914 11 7Z" fill="#181818"/>
<path d="M10.0002 7.00024C10.0002 5.34339 8.65702 4.00025 7.00018 4.00025C5.34333 4.00025 4.0002 5.34339 4.0002 7.00024C4.0002 8.6571 5.34333 10.0002 7.00018 10.0002C8.65702 10.0002 10.0002 8.6571 10.0002 7.00024Z" stroke="#181818" stroke-width="2" stroke-miterlimit="10"/>
<path d="M11 7C11 4.79086 9.20914 3 7 3C4.79086 3 3 4.79086 3 7C3 9.20914 4.79086 11 7 11C9.20914 11 11 9.20914 11 7Z" stroke="#1CCB62" stroke-width="2" stroke-miterlimit="10"/>
<path d="M94 7C94 4.79086 92.2091 3 90 3C87.7909 3 86 4.79086 86 7C86 9.20914 87.7909 11 90 11C92.2091 11 94 9.20914 94 7Z" fill="#181818"/>
<path d="M93.0002 7.00024C93.0002 5.34339 91.657 4.00024 90.0002 4.00024C88.3433 4.00024 87.0002 5.34339 87.0002 7.00024C87.0002 8.6571 88.3433 10.0002 90.0002 10.0002C91.657 10.0002 93.0002 8.6571 93.0002 7.00024Z" stroke="#181818" stroke-width="2" stroke-miterlimit="10"/>
<path d="M94 7C94 4.79086 92.2091 3 90 3C87.7909 3 86 4.79086 86 7C86 9.20914 87.7909 11 90 11C92.2091 11 94 9.20914 94 7Z" stroke="#1CCB62" stroke-width="2" stroke-miterlimit="10"/>
<path d="M93 76.9628C93 74.7742 91.2472 72.9999 89.0851 72.9999C86.923 72.9999 85.1702 74.7742 85.1702 76.9628C85.1702 79.1515 86.923 80.9258 89.0851 80.9258C91.2472 80.9258 93 79.1515 93 76.9628Z" fill="#181818"/>
<path d="M91.8515 77.0368C91.8515 75.3953 90.5369 74.0646 88.9153 74.0646C87.2938 74.0646 85.9792 75.3953 85.9792 77.0368C85.9792 78.6783 87.2938 80.009 88.9153 80.009C90.5369 80.009 91.8515 78.6783 91.8515 77.0368Z" stroke="#181818" stroke-width="2" stroke-miterlimit="10"/>
<path d="M92.8298 77.0368C92.8298 74.8481 91.077 73.0739 88.9149 73.0739C86.7528 73.0739 85 74.8481 85 77.0368C85 79.2255 86.7528 80.9998 88.9149 80.9998C91.077 80.9998 92.8298 79.2255 92.8298 77.0368Z" stroke="#1CCB62" stroke-width="2" stroke-miterlimit="10"/>
</g>
<defs>
<clipPath id="clip0">
<rect width="97" height="84" fill="white"/>
</clipPath>
</defs>
</svg>
