<svg width="122" height="83" viewBox="0 0 122 83" fill="none" xmlns="http://www.w3.org/2000/svg">
<g clip-path="url(#clip0)">
<path d="M73.4377 40.3381L52.3236 50.7704V29.9058L73.4377 40.3381Z" stroke="white" stroke-width="2" stroke-miterlimit="10" stroke-linecap="round" stroke-linejoin="round"/>
<path d="M55.8424 50.7702C55.8424 48.4656 53.9518 46.5973 51.6196 46.5973C49.2874 46.5973 47.3968 48.4656 47.3968 50.7702C47.3968 53.0748 49.2874 54.9431 51.6196 54.9431C53.9518 54.9431 55.8424 53.0748 55.8424 50.7702Z" fill="#C2C2C2"/>
<path d="M54.7867 50.7702C54.7867 49.0417 53.3688 47.6405 51.6196 47.6405C49.8705 47.6405 48.4525 49.0417 48.4525 50.7702C48.4525 52.4987 49.8705 53.8999 51.6196 53.8999C53.3688 53.8999 54.7867 52.4987 54.7867 50.7702Z" stroke="#151515" stroke-width="1.5" stroke-miterlimit="10"/>
<path d="M55.8424 50.7702C55.8424 48.4656 53.9518 46.5973 51.6196 46.5973C49.2874 46.5973 47.3968 48.4656 47.3968 50.7702C47.3968 53.0748 49.2874 54.9431 51.6196 54.9431C53.9518 54.9431 55.8424 53.0748 55.8424 50.7702Z" stroke="#151515" stroke-miterlimit="10"/>
<path d="M55.8424 28.5146C55.8424 26.2099 53.9518 24.3417 51.6196 24.3417C49.2874 24.3417 47.3968 26.2099 47.3968 28.5146C47.3968 30.8192 49.2874 32.6875 51.6196 32.6875C53.9518 32.6875 55.8424 30.8192 55.8424 28.5146Z" fill="#1CCB62"/>
<path d="M54.7867 28.5146C54.7867 26.7861 53.3688 25.3849 51.6196 25.3849C49.8705 25.3849 48.4525 26.7861 48.4525 28.5146C48.4525 30.2431 49.8705 31.6443 51.6196 31.6443C53.3688 31.6443 54.7867 30.2431 54.7867 28.5146Z" stroke="#151515" stroke-width="1.5" stroke-miterlimit="10"/>
<path d="M55.8424 28.5146C55.8424 26.2099 53.9518 24.3417 51.6196 24.3417C49.2874 24.3417 47.3968 26.2099 47.3968 28.5146C47.3968 30.8192 49.2874 32.6875 51.6196 32.6875C53.9518 32.6875 55.8424 30.8192 55.8424 28.5146Z" stroke="#121212" stroke-miterlimit="10"/>
<path d="M117.777 4.86841H5.16833V78.59H117.777V4.86841Z" stroke="white" stroke-width="2" stroke-miterlimit="10" stroke-linecap="round" stroke-linejoin="round"/>
<path d="M121.296 4.8681C121.296 2.56346 119.406 0.695175 117.074 0.695175C114.741 0.695175 112.851 2.56346 112.851 4.8681C112.851 7.17274 114.741 9.04102 117.074 9.04102C119.406 9.04102 121.296 7.17274 121.296 4.8681Z" fill="#C2C2C2"/>
<path d="M120.241 4.86811C120.241 3.13963 118.823 1.73842 117.074 1.73842C115.324 1.73842 113.906 3.13963 113.906 4.86811C113.906 6.59659 115.324 7.9978 117.074 7.9978C118.823 7.9978 120.241 6.59659 120.241 4.86811Z" stroke="#151515" stroke-width="1.5" stroke-miterlimit="10"/>
<path d="M121.296 4.8681C121.296 2.56346 119.406 0.695175 117.074 0.695175C114.741 0.695175 112.851 2.56346 112.851 4.8681C112.851 7.17274 114.741 9.04102 117.074 9.04102C119.406 9.04102 121.296 7.17274 121.296 4.8681Z" stroke="#151515" stroke-miterlimit="10"/>
<path d="M121 4.93237C121 2.72323 119.209 0.932371 117 0.932371C114.791 0.932371 113 2.72323 113 4.93237C113 7.14151 114.791 8.93237 117 8.93237C119.209 8.93237 121 7.14151 121 4.93237Z" fill="#181818"/>
<path d="M120 4.93262C120 3.27576 118.657 1.93262 117 1.93262C115.343 1.93262 114 3.27576 114 4.93262C114 6.58947 115.343 7.93262 117 7.93262C118.657 7.93262 120 6.58947 120 4.93262Z" stroke="#181818" stroke-width="2" stroke-miterlimit="10"/>
<path d="M121 4.93237C121 2.72323 119.209 0.932371 117 0.932371C114.791 0.932371 113 2.72323 113 4.93237C113 7.14151 114.791 8.93237 117 8.93237C119.209 8.93237 121 7.14151 121 4.93237Z" stroke="#1CCB62" stroke-width="2" stroke-miterlimit="10"/>
<path d="M77.0388 40.3706C77.0388 38.1614 75.2479 36.3706 73.0388 36.3706C70.8296 36.3706 69.0388 38.1614 69.0388 40.3706C69.0388 42.5797 70.8296 44.3706 73.0388 44.3706C75.2479 44.3706 77.0388 42.5797 77.0388 40.3706Z" fill="#181818"/>
<path d="M76.0387 40.3706C76.0387 38.7137 74.6956 37.3706 73.0387 37.3706C71.3819 37.3706 70.0387 38.7137 70.0387 40.3706C70.0387 42.0275 71.3819 43.3706 73.0387 43.3706C74.6956 43.3706 76.0387 42.0275 76.0387 40.3706Z" stroke="#181818" stroke-width="2" stroke-miterlimit="10"/>
<path d="M77.0388 40.3706C77.0388 38.1614 75.2479 36.3706 73.0388 36.3706C70.8296 36.3706 69.0388 38.1614 69.0388 40.3706C69.0388 42.5797 70.8296 44.3706 73.0388 44.3706C75.2479 44.3706 77.0388 42.5797 77.0388 40.3706Z" stroke="#1CCB62" stroke-width="2" stroke-miterlimit="10"/>
<path d="M56 29.1797C56 26.9705 54.2091 25.1797 52 25.1797C49.7909 25.1797 48 26.9705 48 29.1797C48 31.3888 49.7909 33.1797 52 33.1797C54.2091 33.1797 56 31.3888 56 29.1797Z" fill="#181818"/>
<path d="M55 29.1799C55 27.5231 53.6568 26.1799 52 26.1799C50.3431 26.1799 49 27.5231 49 29.1799C49 30.8368 50.3431 32.1799 52 32.1799C53.6568 32.1799 55 30.8368 55 29.1799Z" stroke="#181818" stroke-width="2" stroke-miterlimit="10"/>
<path d="M56 29.1797C56 26.9705 54.2091 25.1797 52 25.1797C49.7909 25.1797 48 26.9705 48 29.1797C48 31.3888 49.7909 33.1797 52 33.1797C54.2091 33.1797 56 31.3888 56 29.1797Z" stroke="#1CCB62" stroke-width="2" stroke-miterlimit="10"/>
<path d="M56 49.6965C56 47.4874 54.2091 45.6965 52 45.6965C49.7909 45.6965 48 47.4874 48 49.6965C48 51.9057 49.7909 53.6965 52 53.6965C54.2091 53.6965 56 51.9057 56 49.6965Z" fill="#181818"/>
<path d="M55 49.6965C55 48.0397 53.6568 46.6965 52 46.6965C50.3431 46.6965 49 48.0397 49 49.6965C49 51.3534 50.3431 52.6965 52 52.6965C53.6568 52.6965 55 51.3534 55 49.6965Z" stroke="#181818" stroke-width="2" stroke-miterlimit="10"/>
<path d="M56 49.6965C56 47.4874 54.2091 45.6965 52 45.6965C49.7909 45.6965 48 47.4874 48 49.6965C48 51.9057 49.7909 53.6965 52 53.6965C54.2091 53.6965 56 51.9057 56 49.6965Z" stroke="#1CCB62" stroke-width="2" stroke-miterlimit="10"/>
<path d="M9 78C9 75.7909 7.20914 74 5 74C2.79086 74 1 75.7909 1 78C1 80.2091 2.79086 82 5 82C7.20914 82 9 80.2091 9 78Z" fill="#181818"/>
<path d="M7.99996 78C7.99996 76.3431 6.65682 75 4.99997 75C3.34311 75 1.99997 76.3431 1.99997 78C1.99997 79.6568 3.34311 81 4.99997 81C6.65682 81 7.99996 79.6568 7.99996 78Z" stroke="#181818" stroke-width="2" stroke-miterlimit="10"/>
<path d="M9 78C9 75.7909 7.20914 74 5 74C2.79086 74 1 75.7909 1 78C1 80.2091 2.79086 82 5 82C7.20914 82 9 80.2091 9 78Z" stroke="#1CCB62" stroke-width="2" stroke-miterlimit="10"/>
</g>
<defs>
<clipPath id="clip0">
<rect width="122" height="83" fill="white"/>
</clipPath>
</defs>
</svg>
