<svg width="94" height="84" viewBox="0 0 94 84" fill="none" xmlns="http://www.w3.org/2000/svg">
<g clip-path="url(#clip0)">
<path d="M46.2904 19.3866C51.5111 19.3866 55.7433 15.17 55.7433 9.96846C55.7433 4.76695 51.5111 0.550293 46.2904 0.550293C41.0698 0.550293 36.8376 4.76695 36.8376 9.96846C36.8376 15.17 41.0698 19.3866 46.2904 19.3866Z" stroke="white" stroke-width="2" stroke-miterlimit="10" stroke-linecap="round" stroke-linejoin="round"/>
<path d="M52.3053 17.6738C55.5259 19.6343 60.8467 24.6604 60.8367 34.1259" stroke="white" stroke-width="2" stroke-miterlimit="10" stroke-linecap="round" stroke-linejoin="round"/>
<path d="M60.5039 34.4715C54.6594 39.2929 38.4141 38.5125 32.3575 35.525C30.2341 34.4781 32.9519 20.9695 40.2062 17.6738" stroke="white" stroke-width="2" stroke-miterlimit="10" stroke-linecap="round" stroke-linejoin="round"/>
<path d="M13.1459 56.9078C17.2475 56.9078 20.5725 53.595 20.5725 49.5085C20.5725 45.4219 17.2475 42.1091 13.1459 42.1091C9.04433 42.1091 5.71933 45.4219 5.71933 49.5085C5.71933 53.595 9.04433 56.9078 13.1459 56.9078Z" stroke="white" stroke-width="2" stroke-miterlimit="10" stroke-linecap="round" stroke-linejoin="round"/>
<path d="M17.872 55.5627C20.402 57.1038 24.5827 61.0523 24.575 68.4902" stroke="white" stroke-width="2" stroke-miterlimit="10" stroke-linecap="round" stroke-linejoin="round"/>
<path d="M24.3145 68.7609C19.7218 72.5487 6.95781 71.9355 2.20045 69.5887C0.531069 68.7653 2.66669 58.1517 8.36535 55.5627" stroke="white" stroke-width="2" stroke-miterlimit="10" stroke-linecap="round" stroke-linejoin="round"/>
<path d="M46.2903 67.9152C50.3919 67.9152 53.7169 64.6024 53.7169 60.5158C53.7169 56.4293 50.3919 53.1165 46.2903 53.1165C42.1887 53.1165 38.8637 56.4293 38.8637 60.5158C38.8637 64.6024 42.1887 67.9152 46.2903 67.9152Z" stroke="white" stroke-width="2" stroke-miterlimit="10" stroke-linecap="round" stroke-linejoin="round"/>
<path d="M51.0163 66.5701C53.5464 68.1111 57.727 72.0596 57.7193 79.4975" stroke="white" stroke-width="2" stroke-miterlimit="10" stroke-linecap="round" stroke-linejoin="round"/>
<path d="M57.4589 79.7683C52.8661 83.556 40.1022 82.9429 35.3448 80.5961C33.6754 79.7727 35.811 69.1591 41.5097 66.5701" stroke="white" stroke-width="2" stroke-miterlimit="10" stroke-linecap="round" stroke-linejoin="round"/>
<path d="M79.4356 56.9078C83.5372 56.9078 86.8622 53.595 86.8622 49.5085C86.8622 45.4219 83.5372 42.1091 79.4356 42.1091C75.334 42.1091 72.009 45.4219 72.009 49.5085C72.009 53.595 75.334 56.9078 79.4356 56.9078Z" stroke="white" stroke-width="2" stroke-miterlimit="10" stroke-linecap="round" stroke-linejoin="round"/>
<path d="M84.1617 55.5627C86.6917 57.1038 90.8723 61.0523 90.8646 68.4902" stroke="white" stroke-width="2" stroke-miterlimit="10" stroke-linecap="round" stroke-linejoin="round"/>
<path d="M90.6042 68.7609C86.0114 72.5487 73.2474 71.9355 68.4901 69.5887C66.8207 68.7653 68.9563 58.1517 74.655 55.5627" stroke="white" stroke-width="2" stroke-miterlimit="10" stroke-linecap="round" stroke-linejoin="round"/>
<path d="M24.1937 36.7405C24.1937 41.6037 33.8387 45.5466 45.7377 45.5466C57.6366 45.5466 67.2817 41.6037 67.2817 36.7405" stroke="white" stroke-width="2" stroke-miterlimit="10" stroke-linecap="round" stroke-linejoin="round"/>
<path d="M35.1338 43C35.1338 40.7909 33.3429 39 31.1338 39C28.9247 39 27.1338 40.7909 27.1338 43C27.1338 45.2091 28.9247 47 31.1338 47C33.3429 47 35.1338 45.2091 35.1338 43Z" fill="#181818"/>
<path d="M34.1338 43C34.1338 41.3431 32.7907 40 31.1338 40C29.4769 40 28.1338 41.3431 28.1338 43C28.1338 44.6568 29.4769 46 31.1338 46C32.7907 46 34.1338 44.6568 34.1338 43Z" stroke="#181818" stroke-width="2" stroke-miterlimit="10"/>
<path d="M35.1338 43C35.1338 40.7909 33.3429 39 31.1338 39C28.9247 39 27.1338 40.7909 27.1338 43C27.1338 45.2091 28.9247 47 31.1338 47C33.3429 47 35.1338 45.2091 35.1338 43Z" stroke="#1CCB62" stroke-width="2" stroke-miterlimit="10"/>
<path d="M66.1445 43C66.1445 40.7909 64.3537 39 62.1445 39C59.9354 39 58.1445 40.7909 58.1445 43C58.1445 45.2091 59.9354 47 62.1445 47C64.3537 47 66.1445 45.2091 66.1445 43Z" fill="#181818"/>
<path d="M65.1445 43C65.1445 41.3431 63.8014 40 62.1445 40C60.4877 40 59.1445 41.3431 59.1445 43C59.1445 44.6568 60.4877 46 62.1445 46C63.8014 46 65.1445 44.6568 65.1445 43Z" stroke="#181818" stroke-width="2" stroke-miterlimit="10"/>
<path d="M66.1445 43C66.1445 40.7909 64.3537 39 62.1445 39C59.9354 39 58.1445 40.7909 58.1445 43C58.1445 45.2091 59.9354 47 62.1445 47C64.3537 47 66.1445 45.2091 66.1445 43Z" stroke="#1CCB62" stroke-width="2" stroke-miterlimit="10"/>
<path d="M50.6392 45.5173C50.6392 43.3082 48.8483 41.5173 46.6392 41.5173C44.4301 41.5173 42.6392 43.3082 42.6392 45.5173C42.6392 47.7265 44.4301 49.5173 46.6392 49.5173C48.8483 49.5173 50.6392 47.7265 50.6392 45.5173Z" fill="#181818"/>
<path d="M49.6392 45.5173C49.6392 43.8605 48.2961 42.5173 46.6392 42.5173C44.9823 42.5173 43.6392 43.8605 43.6392 45.5173C43.6392 47.1742 44.9823 48.5173 46.6392 48.5173C48.2961 48.5173 49.6392 47.1742 49.6392 45.5173Z" stroke="#181818" stroke-width="2" stroke-miterlimit="10"/>
<path d="M50.6392 45.5173C50.6392 43.3082 48.8483 41.5173 46.6392 41.5173C44.4301 41.5173 42.6392 43.3082 42.6392 45.5173C42.6392 47.7265 44.4301 49.5173 46.6392 49.5173C48.8483 49.5173 50.6392 47.7265 50.6392 45.5173Z" stroke="#1CCB62" stroke-width="2" stroke-miterlimit="10"/>
</g>
<defs>
<clipPath id="clip0">
<rect width="94" height="84" fill="white"/>
</clipPath>
</defs>
</svg>
