<svg width="178" height="180" viewBox="0 0 178 180" fill="none" xmlns="http://www.w3.org/2000/svg">
<path d="M29.2839 105.055L1.16882 153.306L30.9203 148.301L41.248 176.494L65.0548 135.014" stroke="white" stroke-width="2" stroke-miterlimit="10" stroke-linecap="round" stroke-linejoin="round"/>
<path d="M148.135 106.364L176.493 155.422L146.712 150.373L136.382 178.831L111.039 136.286" stroke="white" stroke-width="2" stroke-miterlimit="10" stroke-linecap="round" stroke-linejoin="round"/>
<path d="M157.792 70.13C157.792 83.7692 153.748 97.1021 146.17 108.443C138.593 119.783 127.822 128.622 115.221 133.842C102.62 139.061 88.7547 140.427 75.3776 137.766C62.0004 135.105 49.7127 128.537 40.0684 118.893C30.424 109.248 23.8561 96.9607 21.1952 83.5836C18.5343 70.2065 19.9 56.3407 25.1195 43.7397C30.339 31.1388 39.1779 20.3685 50.5185 12.791C61.8591 5.21344 75.192 1.16895 88.8312 1.16895C107.121 1.16895 124.661 8.43446 137.594 21.3672C150.527 34.2999 157.792 51.8404 157.792 70.13Z" stroke="white" stroke-width="2" stroke-miterlimit="10" stroke-linecap="round" stroke-linejoin="round"/>
<path d="M90 33.8962L101.688 57.2729H125.065L105.585 76.7526L113.377 104.026L90 89.4087L66.6234 104.026L74.4148 76.7526L54.9351 57.2729H78.3117L90 33.8962Z" stroke="white" stroke-width="2" stroke-miterlimit="10" stroke-linecap="round" stroke-linejoin="round"/>
<path d="M35.1339 150.571C35.1339 146.942 32.1938 144 28.5669 144C24.9401 144 22 146.942 22 150.571C22 154.201 24.9401 157.143 28.5669 157.143C32.1938 157.143 35.1339 154.201 35.1339 150.571Z" fill="#1CCB62"/>
<path d="M31.8712 150.596C31.8712 148.883 30.4843 147.495 28.7735 147.495C27.0628 147.495 25.6759 148.883 25.6759 150.596C25.6759 152.309 27.0628 153.697 28.7735 153.697C30.4843 153.697 31.8712 152.309 31.8712 150.596Z" stroke="#151515" stroke-width="3"/>
<path d="M35.1339 150.571C35.1339 146.942 32.1938 144 28.5669 144C24.9401 144 22 146.942 22 150.571C22 154.201 24.9401 157.143 28.5669 157.143C32.1938 157.143 35.1339 154.201 35.1339 150.571Z" stroke="#151515"/>
<path d="M155.134 150.571C155.134 146.942 152.194 144 148.567 144C144.94 144 142 146.942 142 150.571C142 154.201 144.94 157.143 148.567 157.143C152.194 157.143 155.134 154.201 155.134 150.571Z" fill="#1CCB62"/>
<path d="M151.871 150.596C151.871 148.883 150.484 147.495 148.774 147.495C147.063 147.495 145.676 148.883 145.676 150.596C145.676 152.309 147.063 153.697 148.774 153.697C150.484 153.697 151.871 152.309 151.871 150.596Z" stroke="#151515" stroke-width="3"/>
<path d="M155.134 150.571C155.134 146.942 152.194 144 148.567 144C144.94 144 142 146.942 142 150.571C142 154.201 144.94 157.143 148.567 157.143C152.194 157.143 155.134 154.201 155.134 150.571Z" stroke="#151515"/>
<path d="M96.0283 34.4365C96.0283 31.0679 93.2994 28.3372 89.9331 28.3372C86.5668 28.3372 83.8379 31.0679 83.8379 34.4365C83.8379 37.8051 86.5668 40.5359 89.9331 40.5359C93.2994 40.5359 96.0283 37.8051 96.0283 34.4365Z" fill="#1CCB62"/>
<path fill-rule="evenodd" clip-rule="evenodd" d="M88.642 34.4594C88.642 35.2816 89.3074 35.9455 90.1248 35.9455C90.9423 35.9455 91.6077 35.2816 91.6077 34.4594C91.6077 33.6371 90.9423 32.9733 90.1248 32.9733C89.3074 32.9733 88.642 33.6371 88.642 34.4594ZM90.1248 38.73C87.7666 38.73 85.8575 36.8165 85.8575 34.4594C85.8575 32.1023 87.7666 30.1888 90.1248 30.1888C92.4831 30.1888 94.3922 32.1023 94.3922 34.4594C94.3922 36.8165 92.4831 38.73 90.1248 38.73Z" fill="#151515"/>
<path fill-rule="evenodd" clip-rule="evenodd" d="M84.3019 34.4366C84.3019 37.5491 86.8234 40.0718 89.9331 40.0718C93.0428 40.0718 95.5642 37.5491 95.5642 34.4366C95.5642 31.324 93.0428 28.8013 89.9331 28.8013C86.8234 28.8013 84.3019 31.324 84.3019 34.4366ZM89.9331 41C86.3102 41 83.3738 38.0611 83.3738 34.4366C83.3738 30.812 86.3102 27.8731 89.9331 27.8731C93.556 27.8731 96.4924 30.812 96.4924 34.4366C96.4924 38.0611 93.556 41 89.9331 41Z" fill="#151515"/>
<path d="M61.6545 58.5635C61.6545 55.1949 58.9256 52.4641 55.5593 52.4641C52.193 52.4641 49.4641 55.1949 49.4641 58.5635C49.4641 61.9321 52.193 64.6628 55.5593 64.6628C58.9256 64.6628 61.6545 61.9321 61.6545 58.5635Z" fill="#1CCB62"/>
<path fill-rule="evenodd" clip-rule="evenodd" d="M54.2682 58.5863C54.2682 59.4086 54.9336 60.0724 55.7511 60.0724C56.5685 60.0724 57.2339 59.4086 57.2339 58.5863C57.2339 57.7641 56.5685 57.1002 55.7511 57.1002C54.9336 57.1002 54.2682 57.7641 54.2682 58.5863ZM55.7511 62.8569C53.3928 62.8569 51.4837 60.9434 51.4837 58.5863C51.4837 56.2292 53.3928 54.3157 55.7511 54.3157C58.1093 54.3157 60.0184 56.2292 60.0184 58.5863C60.0184 60.9434 58.1093 62.8569 55.7511 62.8569Z" fill="#151515"/>
<path fill-rule="evenodd" clip-rule="evenodd" d="M49.9282 58.5635C49.9282 61.6761 52.4496 64.1988 55.5593 64.1988C58.669 64.1988 61.1904 61.6761 61.1904 58.5635C61.1904 55.4509 58.669 52.9282 55.5593 52.9282C52.4496 52.9282 49.9282 55.4509 49.9282 58.5635ZM55.5593 65.127C51.9364 65.127 49 62.1881 49 58.5635C49 54.9389 51.9364 52.0001 55.5593 52.0001C59.1822 52.0001 62.1186 54.9389 62.1186 58.5635C62.1186 62.1881 59.1822 65.127 55.5593 65.127Z" fill="#151515"/>
<path d="M130.655 58.5635C130.655 55.1949 127.926 52.4641 124.559 52.4641C121.193 52.4641 118.464 55.1949 118.464 58.5635C118.464 61.9321 121.193 64.6628 124.559 64.6628C127.926 64.6628 130.655 61.9321 130.655 58.5635Z" fill="#1CCB62"/>
<path fill-rule="evenodd" clip-rule="evenodd" d="M123.268 58.5863C123.268 59.4086 123.934 60.0724 124.751 60.0724C125.569 60.0724 126.234 59.4086 126.234 58.5863C126.234 57.7641 125.569 57.1002 124.751 57.1002C123.934 57.1002 123.268 57.7641 123.268 58.5863ZM124.751 62.8569C122.393 62.8569 120.484 60.9434 120.484 58.5863C120.484 56.2292 122.393 54.3157 124.751 54.3157C127.109 54.3157 129.018 56.2292 129.018 58.5863C129.018 60.9434 127.109 62.8569 124.751 62.8569Z" fill="#151515"/>
<path fill-rule="evenodd" clip-rule="evenodd" d="M118.928 58.5635C118.928 61.6761 121.45 64.1988 124.559 64.1988C127.669 64.1988 130.19 61.6761 130.19 58.5635C130.19 55.4509 127.669 52.9282 124.559 52.9282C121.45 52.9282 118.928 55.4509 118.928 58.5635ZM124.559 65.127C120.936 65.127 118 62.1881 118 58.5635C118 54.9389 120.936 52.0001 124.559 52.0001C128.182 52.0001 131.119 54.9389 131.119 58.5635C131.119 62.1881 128.182 65.127 124.559 65.127Z" fill="#151515"/>
<path d="M118.655 103.563C118.655 100.195 115.926 97.4641 112.559 97.4641C109.193 97.4641 106.464 100.195 106.464 103.563C106.464 106.932 109.193 109.663 112.559 109.663C115.926 109.663 118.655 106.932 118.655 103.563Z" fill="#1CCB62"/>
<path fill-rule="evenodd" clip-rule="evenodd" d="M111.268 103.586C111.268 104.409 111.934 105.072 112.751 105.072C113.569 105.072 114.234 104.409 114.234 103.586C114.234 102.764 113.569 102.1 112.751 102.1C111.934 102.1 111.268 102.764 111.268 103.586ZM112.751 107.857C110.393 107.857 108.484 105.943 108.484 103.586C108.484 101.229 110.393 99.3157 112.751 99.3157C115.109 99.3157 117.018 101.229 117.018 103.586C117.018 105.943 115.109 107.857 112.751 107.857Z" fill="#151515"/>
<path fill-rule="evenodd" clip-rule="evenodd" d="M106.928 103.564C106.928 106.676 109.45 109.199 112.559 109.199C115.669 109.199 118.19 106.676 118.19 103.564C118.19 100.451 115.669 97.9282 112.559 97.9282C109.45 97.9282 106.928 100.451 106.928 103.564ZM112.559 110.127C108.936 110.127 106 107.188 106 103.564C106 99.9389 108.936 97.0001 112.559 97.0001C116.182 97.0001 119.119 99.9389 119.119 103.564C119.119 107.188 116.182 110.127 112.559 110.127Z" fill="#151515"/>
<path d="M73.6545 103.563C73.6545 100.195 70.9256 97.4641 67.5593 97.4641C64.193 97.4641 61.4641 100.195 61.4641 103.563C61.4641 106.932 64.193 109.663 67.5593 109.663C70.9256 109.663 73.6545 106.932 73.6545 103.563Z" fill="#1CCB62"/>
<path fill-rule="evenodd" clip-rule="evenodd" d="M66.2682 103.586C66.2682 104.409 66.9336 105.072 67.7511 105.072C68.5685 105.072 69.2339 104.409 69.2339 103.586C69.2339 102.764 68.5685 102.1 67.7511 102.1C66.9336 102.1 66.2682 102.764 66.2682 103.586ZM67.7511 107.857C65.3928 107.857 63.4837 105.943 63.4837 103.586C63.4837 101.229 65.3928 99.3157 67.7511 99.3157C70.1093 99.3157 72.0184 101.229 72.0184 103.586C72.0184 105.943 70.1093 107.857 67.7511 107.857Z" fill="#151515"/>
<path fill-rule="evenodd" clip-rule="evenodd" d="M61.9282 103.564C61.9282 106.676 64.4496 109.199 67.5593 109.199C70.669 109.199 73.1904 106.676 73.1904 103.564C73.1904 100.451 70.669 97.9282 67.5593 97.9282C64.4496 97.9282 61.9282 100.451 61.9282 103.564ZM67.5593 110.127C63.9364 110.127 61 107.188 61 103.564C61 99.9389 63.9364 97.0001 67.5593 97.0001C71.1822 97.0001 74.1186 99.9389 74.1186 103.564C74.1186 107.188 71.1822 110.127 67.5593 110.127Z" fill="#151515"/>
</svg>
