<svg width="176" height="179" viewBox="0 0 176 179" fill="none" xmlns="http://www.w3.org/2000/svg">
<path d="M174.25 91.2498C174.25 108.383 169.17 125.131 159.651 139.376C150.133 153.621 136.604 164.724 120.775 171.281C104.946 177.837 87.5289 179.553 70.7253 176.21C53.9217 172.868 38.4866 164.618 26.3719 152.503C14.2572 140.388 6.00696 124.953 2.66451 108.149C-0.677931 91.3459 1.03753 73.9285 7.59397 58.0998C14.1504 42.2712 25.2534 28.7422 39.4988 19.2237C53.7442 9.70522 70.4922 4.62476 87.625 4.62476C110.599 4.62476 132.633 13.7513 148.878 29.9966C165.123 46.242 174.25 68.2754 174.25 91.2498Z" stroke="white" stroke-width="2" stroke-miterlimit="10" stroke-linecap="round" stroke-linejoin="round"/>
<path d="M149.5 31.1589C149.5 31.1589 145.774 51.6339 130.868 59.0994C115.962 55.3689 107.223 54.6376 105.11 61.1874C102.997 67.7371 113.435 76.6336 113.435 76.6336C121.296 78.3729 123.531 88.5046 122.543 88.6981C124.318 101.087 108.505 107.598 108.505 111.324C108.505 115.05 117.822 116.92 112.231 122.516C109.075 125.767 105.264 128.31 101.051 129.977C101.051 148.627 82.4186 148.627 78.6926 148.627C74.9666 148.627 67.5123 133.705 67.5123 129.977C67.5123 126.248 69.7758 120.932 69.7758 117.201C69.7758 113.471 63.7841 107.594 63.7841 107.594C63.7841 92.6716 52.6038 96.4021 41.4258 96.4021C30.2478 96.4021 30.2501 81.4801 30.2501 81.4801C30.2501 81.4801 30.2501 55.3689 48.8823 51.6384C67.5146 47.9079 67.5146 55.3689 67.5146 55.3689C74.9688 62.8299 89.8751 55.3689 97.3271 55.3689C97.3271 55.3689 99.4758 36.6691 93.6011 32.9881C87.7263 29.3071 77.4641 23.4886 81.7413 16.8624C90.7413 2.91238 111.216 6.87688 111.216 6.87688" stroke="white" stroke-width="2" stroke-miterlimit="10" stroke-linecap="round" stroke-linejoin="round"/>
<path d="M156.009 31.5714C156.009 27.9421 153.069 25 149.442 25C145.815 25 142.875 27.9421 142.875 31.5714C142.875 35.2007 145.815 38.1428 149.442 38.1428C153.069 38.1428 156.009 35.2007 156.009 31.5714Z" fill="#1CCB62"/>
<path d="M152.746 31.596C152.746 29.8833 151.359 28.4949 149.649 28.4949C147.938 28.4949 146.551 29.8833 146.551 31.596C146.551 33.3087 147.938 34.6971 149.649 34.6971C151.359 34.6971 152.746 33.3087 152.746 31.596Z" stroke="#151515" stroke-width="3"/>
<path d="M156.009 31.5714C156.009 27.9421 153.069 25 149.442 25C145.815 25 142.875 27.9421 142.875 31.5714C142.875 35.2007 145.815 38.1428 149.442 38.1428C153.069 38.1428 156.009 35.2007 156.009 31.5714Z" stroke="#151515"/>
<path d="M117.009 7.5714C117.009 3.94211 114.069 0.999985 110.442 0.999985C106.815 0.999985 103.875 3.94211 103.875 7.5714C103.875 11.2007 106.815 14.1428 110.442 14.1428C114.069 14.1428 117.009 11.2007 117.009 7.5714Z" fill="#1CCB62"/>
<path d="M113.746 7.59602C113.746 5.88332 112.359 4.4949 110.649 4.4949C108.938 4.4949 107.551 5.88332 107.551 7.59602C107.551 9.30872 108.938 10.6971 110.649 10.6971C112.359 10.6971 113.746 9.30872 113.746 7.59602Z" stroke="#151515" stroke-width="3"/>
<path d="M117.009 7.5714C117.009 3.94211 114.069 0.999985 110.442 0.999985C106.815 0.999985 103.875 3.94211 103.875 7.5714C103.875 11.2007 106.815 14.1428 110.442 14.1428C114.069 14.1428 117.009 11.2007 117.009 7.5714Z" stroke="#151515"/>
<path d="M74.009 54.5714C74.009 50.9421 71.0689 48 67.442 48C63.8152 48 60.8751 50.9421 60.8751 54.5714C60.8751 58.2007 63.8152 61.1428 67.442 61.1428C71.0689 61.1428 74.009 58.2007 74.009 54.5714Z" fill="#1CCB62"/>
<path d="M70.7462 54.596C70.7462 52.8833 69.3594 51.4949 67.6486 51.4949C65.9378 51.4949 64.551 52.8833 64.551 54.596C64.551 56.3087 65.9378 57.6971 67.6486 57.6971C69.3594 57.6971 70.7462 56.3087 70.7462 54.596Z" stroke="#151515" stroke-width="3"/>
<path d="M74.009 54.5714C74.009 50.9421 71.0689 48 67.442 48C63.8152 48 60.8751 50.9421 60.8751 54.5714C60.8751 58.2007 63.8152 61.1428 67.442 61.1428C71.0689 61.1428 74.009 58.2007 74.009 54.5714Z" stroke="#151515"/>
<path d="M109.009 130.571C109.009 126.942 106.069 124 102.442 124C98.8152 124 95.8751 126.942 95.8751 130.571C95.8751 134.201 98.8152 137.143 102.442 137.143C106.069 137.143 109.009 134.201 109.009 130.571Z" fill="#1CCB62"/>
<path d="M105.746 130.596C105.746 128.883 104.359 127.495 102.649 127.495C100.938 127.495 99.551 128.883 99.551 130.596C99.551 132.309 100.938 133.697 102.649 133.697C104.359 133.697 105.746 132.309 105.746 130.596Z" stroke="#151515" stroke-width="3"/>
<path d="M109.009 130.571C109.009 126.942 106.069 124 102.442 124C98.8152 124 95.8751 126.942 95.8751 130.571C95.8751 134.201 98.8152 137.143 102.442 137.143C106.069 137.143 109.009 134.201 109.009 130.571Z" stroke="#151515"/>
<path d="M48.009 164.571C48.009 160.942 45.0689 158 41.442 158C37.8152 158 34.8751 160.942 34.8751 164.571C34.8751 168.201 37.8152 171.143 41.442 171.143C45.0689 171.143 48.009 168.201 48.009 164.571Z" fill="#1CCB62"/>
<path d="M44.7462 164.596C44.7462 162.883 43.3594 161.495 41.6486 161.495C39.9378 161.495 38.551 162.883 38.551 164.596C38.551 166.309 39.9378 167.697 41.6486 167.697C43.3594 167.697 44.7462 166.309 44.7462 164.596Z" stroke="#151515" stroke-width="3"/>
<path d="M48.009 164.571C48.009 160.942 45.0689 158 41.442 158C37.8152 158 34.8751 160.942 34.8751 164.571C34.8751 168.201 37.8152 171.143 41.442 171.143C45.0689 171.143 48.009 168.201 48.009 164.571Z" stroke="#151515"/>
</svg>
