<svg width="182" height="171" viewBox="0 0 182 171" fill="none" xmlns="http://www.w3.org/2000/svg">
<rect x="7" y="7.99976" width="168" height="50" rx="4" stroke="white" stroke-width="2"/>
<rect x="7" y="57.9998" width="168" height="50" rx="4" stroke="white" stroke-width="2"/>
<circle cx="36" cy="32.9998" r="9" stroke="white" stroke-width="2"/>
<line x1="90" y1="25.9998" x2="134" y2="25.9998" stroke="white" stroke-width="2" stroke-linecap="round"/>
<line x1="105" y1="37.9998" x2="149" y2="37.9998" stroke="white" stroke-width="2" stroke-linecap="round"/>
<circle cx="36" cy="82.9998" r="9" stroke="white" stroke-width="2"/>
<line x1="90" y1="75.9998" x2="134" y2="75.9998" stroke="white" stroke-width="2" stroke-linecap="round"/>
<line x1="105" y1="87.9998" x2="149" y2="87.9998" stroke="white" stroke-width="2" stroke-linecap="round"/>
<line x1="92" y1="109" x2="92" y2="164" stroke="white" stroke-width="2"/>
<line x1="153" y1="165" x2="29" y2="165" stroke="white" stroke-width="2" stroke-linecap="round"/>
<path d="M98.134 163.571C98.134 159.942 95.1938 157 91.567 157C87.9401 157 85 159.942 85 163.571C85 167.201 87.9401 170.143 91.567 170.143C95.1938 170.143 98.134 167.201 98.134 163.571Z" fill="#1CCB62"/>
<path d="M94.8712 163.596C94.8712 161.883 93.4843 160.495 91.7735 160.495C90.0628 160.495 88.6759 161.883 88.6759 163.596C88.6759 165.309 90.0628 166.697 91.7735 166.697C93.4843 166.697 94.8712 165.309 94.8712 163.596Z" stroke="#151515" stroke-width="3"/>
<path d="M98.134 163.571C98.134 159.942 95.1938 157 91.567 157C87.9401 157 85 159.942 85 163.571C85 167.201 87.9401 170.143 91.567 170.143C95.1938 170.143 98.134 167.201 98.134 163.571Z" stroke="#151515"/>
<path d="M181.134 58.5714C181.134 54.9421 178.194 52 174.567 52C170.94 52 168 54.9421 168 58.5714C168 62.2007 170.94 65.1428 174.567 65.1428C178.194 65.1428 181.134 62.2007 181.134 58.5714Z" fill="#1CCB62"/>
<path d="M177.871 58.596C177.871 56.8833 176.484 55.4949 174.774 55.4949C173.063 55.4949 171.676 56.8833 171.676 58.596C171.676 60.3087 173.063 61.6971 174.774 61.6971C176.484 61.6971 177.871 60.3087 177.871 58.596Z" stroke="#151515" stroke-width="3"/>
<path d="M181.134 58.5714C181.134 54.9421 178.194 52 174.567 52C170.94 52 168 54.9421 168 58.5714C168 62.2007 170.94 65.1428 174.567 65.1428C178.194 65.1428 181.134 62.2007 181.134 58.5714Z" stroke="#151515"/>
<path d="M14.134 58.5714C14.134 54.9421 11.1938 52 7.56698 52C3.94014 52 1 54.9421 1 58.5714C1 62.2007 3.94014 65.1428 7.56698 65.1428C11.1938 65.1428 14.134 62.2007 14.134 58.5714Z" fill="#1CCB62"/>
<path d="M10.8712 58.596C10.8712 56.8833 9.4843 55.4949 7.77353 55.4949C6.06276 55.4949 4.6759 56.8833 4.6759 58.596C4.6759 60.3087 6.06276 61.6971 7.77353 61.6971C9.4843 61.6971 10.8712 60.3087 10.8712 58.596Z" stroke="#151515" stroke-width="3"/>
<path d="M14.134 58.5714C14.134 54.9421 11.1938 52 7.56698 52C3.94014 52 1 54.9421 1 58.5714C1 62.2007 3.94014 65.1428 7.56698 65.1428C11.1938 65.1428 14.134 62.2007 14.134 58.5714Z" stroke="#151515"/>
<path d="M157.134 7.57139C157.134 3.94209 154.194 0.999958 150.567 0.999958C146.94 0.999958 144 3.94209 144 7.57139C144 11.2007 146.94 14.1428 150.567 14.1428C154.194 14.1428 157.134 11.2007 157.134 7.57139Z" fill="#1CCB62"/>
<path d="M153.871 7.59602C153.871 5.88332 152.484 4.4949 150.774 4.4949C149.063 4.4949 147.676 5.88332 147.676 7.59602C147.676 9.30872 149.063 10.6971 150.774 10.6971C152.484 10.6971 153.871 9.30872 153.871 7.59602Z" stroke="#151515" stroke-width="3"/>
<path d="M157.134 7.57139C157.134 3.94209 154.194 0.999958 150.567 0.999958C146.94 0.999958 144 3.94209 144 7.57139C144 11.2007 146.94 14.1428 150.567 14.1428C154.194 14.1428 157.134 11.2007 157.134 7.57139Z" stroke="#151515"/>
<path d="M95.7259 25.5632C95.7259 22.7078 93.4127 20.393 90.5593 20.393C87.7059 20.393 85.3927 22.7078 85.3927 25.5632C85.3927 28.4185 87.7059 30.7333 90.5593 30.7333C93.4127 30.7333 95.7259 28.4185 95.7259 25.5632Z" fill="#1CCB62"/>
<path fill-rule="evenodd" clip-rule="evenodd" d="M89.3603 25.5825C89.3603 26.2795 89.9243 26.8422 90.6172 26.8422C91.3102 26.8422 91.8742 26.2795 91.8742 25.5825C91.8742 24.8856 91.3102 24.3228 90.6172 24.3228C89.9243 24.3228 89.3603 24.8856 89.3603 25.5825ZM90.6172 29.2025C88.6182 29.2025 87 27.5805 87 25.5825C87 23.5845 88.6182 21.9626 90.6172 21.9626C92.6162 21.9626 94.2344 23.5845 94.2344 25.5825C94.2344 27.5805 92.6162 29.2025 90.6172 29.2025Z" fill="#151515"/>
<path fill-rule="evenodd" clip-rule="evenodd" d="M85.786 25.5632C85.786 28.2016 87.9233 30.34 90.5592 30.34C93.1952 30.34 95.3325 28.2016 95.3325 25.5632C95.3325 22.9248 93.1952 20.7865 90.5592 20.7865C87.9233 20.7865 85.786 22.9248 85.786 25.5632ZM90.5592 31.1267C87.4883 31.1267 84.9993 28.6356 84.9993 25.5632C84.9993 22.4908 87.4883 19.9997 90.5592 19.9997C93.6302 19.9997 96.1192 22.4908 96.1192 25.5632C96.1192 28.6356 93.6302 31.1267 90.5592 31.1267Z" fill="#151515"/>
<path d="M152.726 87.5632C152.726 84.7078 150.413 82.393 147.559 82.393C144.706 82.393 142.393 84.7078 142.393 87.5632C142.393 90.4185 144.706 92.7333 147.559 92.7333C150.413 92.7333 152.726 90.4185 152.726 87.5632Z" fill="#1CCB62"/>
<path fill-rule="evenodd" clip-rule="evenodd" d="M146.36 87.5825C146.36 88.2795 146.924 88.8422 147.617 88.8422C148.31 88.8422 148.874 88.2795 148.874 87.5825C148.874 86.8856 148.31 86.3228 147.617 86.3228C146.924 86.3228 146.36 86.8856 146.36 87.5825ZM147.617 91.2025C145.618 91.2025 144 89.5805 144 87.5825C144 85.5845 145.618 83.9626 147.617 83.9626C149.616 83.9626 151.234 85.5845 151.234 87.5825C151.234 89.5805 149.616 91.2025 147.617 91.2025Z" fill="#151515"/>
<path fill-rule="evenodd" clip-rule="evenodd" d="M142.786 87.5632C142.786 90.2016 144.923 92.34 147.559 92.34C150.195 92.34 152.332 90.2016 152.332 87.5632C152.332 84.9248 150.195 82.7865 147.559 82.7865C144.923 82.7865 142.786 84.9248 142.786 87.5632ZM147.559 93.1267C144.488 93.1267 141.999 90.6356 141.999 87.5632C141.999 84.4908 144.488 81.9997 147.559 81.9997C150.63 81.9997 153.119 84.4908 153.119 87.5632C153.119 90.6356 150.63 93.1267 147.559 93.1267Z" fill="#151515"/>
</svg>
