<svg width="178" height="179" viewBox="0 0 178 179" fill="none" xmlns="http://www.w3.org/2000/svg">
<path d="M54.7211 158.278L33.2081 174.055L55.1385 108.264L3.96704 64.4029H66.1026L88.033 5.92267L109.963 64.4029H172.099L120.927 108.264L142.858 174.055L122.813 159.354" stroke="white" stroke-width="2" stroke-miterlimit="10" stroke-linecap="round" stroke-linejoin="round"/>
<path d="M89.022 172.077H120.346C124.589 172.077 123.816 133.814 103.5 116" stroke="white" stroke-width="2" stroke-miterlimit="10" stroke-linecap="round" stroke-linejoin="round"/>
<path d="M89.0221 172.077H57.6981C53.479 172.077 54.0121 134.018 74 116" stroke="white" stroke-width="2" stroke-miterlimit="10" stroke-linecap="round" stroke-linejoin="round"/>
<path d="M88.5275 119.659C102.456 119.659 113.747 108.368 113.747 94.4393C113.747 80.5108 102.456 69.2195 88.5275 69.2195C74.599 69.2195 63.3077 80.5108 63.3077 94.4393C63.3077 108.368 74.599 119.659 88.5275 119.659Z" stroke="white" stroke-width="2" stroke-miterlimit="10" stroke-linecap="round" stroke-linejoin="round"/>
<path d="M62.134 158.571C62.134 154.942 59.1938 152 55.567 152C51.9401 152 49 154.942 49 158.571C49 162.201 51.9401 165.143 55.567 165.143C59.1938 165.143 62.134 162.201 62.134 158.571Z" fill="#1CCB62"/>
<path d="M58.8711 158.596C58.8711 156.883 57.4843 155.495 55.7735 155.495C54.0627 155.495 52.6759 156.883 52.6759 158.596C52.6759 160.309 54.0627 161.697 55.7735 161.697C57.4843 161.697 58.8711 160.309 58.8711 158.596Z" stroke="#151515" stroke-width="3"/>
<path d="M62.134 158.571C62.134 154.942 59.1938 152 55.567 152C51.9401 152 49 154.942 49 158.571C49 162.201 51.9401 165.143 55.567 165.143C59.1938 165.143 62.134 162.201 62.134 158.571Z" stroke="#151515"/>
<path d="M41.134 171.571C41.134 167.942 38.1938 165 34.567 165C30.9401 165 28 167.942 28 171.571C28 175.201 30.9401 178.143 34.567 178.143C38.1938 178.143 41.134 175.201 41.134 171.571Z" fill="#1CCB62"/>
<path d="M37.8711 171.596C37.8711 169.883 36.4843 168.495 34.7735 168.495C33.0627 168.495 31.6759 169.883 31.6759 171.596C31.6759 173.309 33.0627 174.697 34.7735 174.697C36.4843 174.697 37.8711 173.309 37.8711 171.596Z" stroke="#151515" stroke-width="3"/>
<path d="M41.134 171.571C41.134 167.942 38.1938 165 34.567 165C30.9401 165 28 167.942 28 171.571C28 175.201 30.9401 178.143 34.567 178.143C38.1938 178.143 41.134 175.201 41.134 171.571Z" stroke="#151515"/>
<path d="M146.134 171.571C146.134 167.942 143.194 165 139.567 165C135.94 165 133 167.942 133 171.571C133 175.201 135.94 178.143 139.567 178.143C143.194 178.143 146.134 175.201 146.134 171.571Z" fill="#1CCB62"/>
<path d="M142.871 171.596C142.871 169.883 141.484 168.495 139.774 168.495C138.063 168.495 136.676 169.883 136.676 171.596C136.676 173.309 138.063 174.697 139.774 174.697C141.484 174.697 142.871 173.309 142.871 171.596Z" stroke="#151515" stroke-width="3"/>
<path d="M146.134 171.571C146.134 167.942 143.194 165 139.567 165C135.94 165 133 167.942 133 171.571C133 175.201 135.94 178.143 139.567 178.143C143.194 178.143 146.134 175.201 146.134 171.571Z" stroke="#151515"/>
<path d="M177.134 65.5714C177.134 61.9421 174.194 59 170.567 59C166.94 59 164 61.9421 164 65.5714C164 69.2007 166.94 72.1428 170.567 72.1428C174.194 72.1428 177.134 69.2007 177.134 65.5714Z" fill="#1CCB62"/>
<path d="M173.871 65.596C173.871 63.8833 172.484 62.4949 170.774 62.4949C169.063 62.4949 167.676 63.8833 167.676 65.596C167.676 67.3087 169.063 68.6971 170.774 68.6971C172.484 68.6971 173.871 67.3087 173.871 65.596Z" stroke="#151515" stroke-width="3"/>
<path d="M177.134 65.5714C177.134 61.9421 174.194 59 170.567 59C166.94 59 164 61.9421 164 65.5714C164 69.2007 166.94 72.1428 170.567 72.1428C174.194 72.1428 177.134 69.2007 177.134 65.5714Z" stroke="#151515"/>
<path d="M94.634 8.57146C94.634 4.94215 91.6938 2.00003 88.067 2.00003C84.4401 2.00003 81.5 4.94215 81.5 8.57146C81.5 12.2008 84.4401 15.1429 88.067 15.1429C91.6938 15.1429 94.634 12.2008 94.634 8.57146Z" fill="#1CCB62"/>
<path d="M91.3711 8.59608C91.3711 6.88337 89.9843 5.49495 88.2735 5.49495C86.5627 5.49495 85.1759 6.88337 85.1759 8.59608C85.1759 10.3088 86.5627 11.6972 88.2735 11.6972C89.9843 11.6972 91.3711 10.3088 91.3711 8.59608Z" stroke="#151515" stroke-width="3"/>
<path d="M94.634 8.57146C94.634 4.94215 91.6938 2.00003 88.067 2.00003C84.4401 2.00003 81.5 4.94215 81.5 8.57146C81.5 12.2008 84.4401 15.1429 88.067 15.1429C91.6938 15.1429 94.634 12.2008 94.634 8.57146Z" stroke="#151515"/>
<path d="M14.134 65.5714C14.134 61.9421 11.1938 59 7.56698 59C3.94014 59 1 61.9421 1 65.5714C1 69.2007 3.94014 72.1428 7.56698 72.1428C11.1938 72.1428 14.134 69.2007 14.134 65.5714Z" fill="#1CCB62"/>
<path d="M10.8712 65.596C10.8712 63.8833 9.4843 62.4949 7.77353 62.4949C6.06276 62.4949 4.6759 63.8833 4.6759 65.596C4.6759 67.3087 6.06276 68.6971 7.77353 68.6971C9.4843 68.6971 10.8712 67.3087 10.8712 65.596Z" stroke="#151515" stroke-width="3"/>
<path d="M14.134 65.5714C14.134 61.9421 11.1938 59 7.56698 59C3.94014 59 1 61.9421 1 65.5714C1 69.2007 3.94014 72.1428 7.56698 72.1428C11.1938 72.1428 14.134 69.2007 14.134 65.5714Z" stroke="#151515"/>
<path d="M129.134 158.571C129.134 154.942 126.194 152 122.567 152C118.94 152 116 154.942 116 158.571C116 162.201 118.94 165.143 122.567 165.143C126.194 165.143 129.134 162.201 129.134 158.571Z" fill="#1CCB62"/>
<path d="M125.871 158.596C125.871 156.883 124.484 155.495 122.774 155.495C121.063 155.495 119.676 156.883 119.676 158.596C119.676 160.309 121.063 161.697 122.774 161.697C124.484 161.697 125.871 160.309 125.871 158.596Z" stroke="#151515" stroke-width="3"/>
<path d="M129.134 158.571C129.134 154.942 126.194 152 122.567 152C118.94 152 116 154.942 116 158.571C116 162.201 118.94 165.143 122.567 165.143C126.194 165.143 129.134 162.201 129.134 158.571Z" stroke="#151515"/>
</svg>
