<svg width="189" height="182" viewBox="0 0 189 182" fill="none" xmlns="http://www.w3.org/2000/svg">
<path d="M138.373 35.4681L94.4751 63.2341L50.5776 35.4681L94.4751 7.70216L138.373 35.4681Z" stroke="white" stroke-width="2" stroke-miterlimit="10" stroke-linecap="round" stroke-linejoin="round"/>
<path d="M94.332 63.418V153.158" stroke="white" stroke-width="2" stroke-miterlimit="10" stroke-linecap="round" stroke-linejoin="round"/>
<path d="M182.276 109.17V154.393" stroke="white" stroke-width="2" stroke-miterlimit="10" stroke-linecap="round" stroke-linejoin="round"/>
<path d="M138.556 135.816V179.928" stroke="white" stroke-width="2" stroke-miterlimit="10" stroke-linecap="round" stroke-linejoin="round"/>
<path d="M51.2131 135.326V179.437" stroke="white" stroke-width="2" stroke-miterlimit="10" stroke-linecap="round" stroke-linejoin="round"/>
<path d="M6.76215 109.326V153.34" stroke="white" stroke-width="2" stroke-miterlimit="10" stroke-linecap="round" stroke-linejoin="round"/>
<path d="M50.5776 35.7861V80.7632" stroke="white" stroke-width="2" stroke-miterlimit="10" stroke-linecap="round" stroke-linejoin="round"/>
<path d="M138.373 36.4256V80.7592" stroke="white" stroke-width="2" stroke-miterlimit="10" stroke-linecap="round" stroke-linejoin="round"/>
<path d="M182.27 109.192L138.373 136L94.4751 109.192L138.373 80.4683L182.27 109.192Z" stroke="white" stroke-width="2" stroke-miterlimit="10" stroke-linecap="round" stroke-linejoin="round"/>
<path d="M94.4751 109.192L50.5776 136L6.68005 109.192L50.5776 80.4683L94.4751 109.192Z" stroke="white" stroke-width="2" stroke-miterlimit="10" stroke-linecap="round" stroke-linejoin="round"/>
<path d="M94.4751 153.234L50.8868 180.043L6.68005 153.234" stroke="white" stroke-width="2" stroke-miterlimit="10" stroke-linecap="round" stroke-linejoin="round"/>
<path d="M182.472 154.247L138.718 180.043L94.4751 153.234" stroke="white" stroke-width="2" stroke-miterlimit="10" stroke-linecap="round" stroke-linejoin="round"/>
<path d="M101.134 7.57142C101.134 3.94212 98.1938 1 94.567 1C90.9401 1 88 3.94212 88 7.57142C88 11.2007 90.9401 14.1428 94.567 14.1428C98.1938 14.1428 101.134 11.2007 101.134 7.57142Z" fill="#1CCB62"/>
<path d="M97.8712 7.59602C97.8712 5.88332 96.4843 4.4949 94.7735 4.4949C93.0628 4.4949 91.6759 5.88332 91.6759 7.59602C91.6759 9.30872 93.0628 10.6971 94.7735 10.6971C96.4843 10.6971 97.8712 9.30872 97.8712 7.59602Z" stroke="#151515" stroke-width="3"/>
<path d="M101.134 7.57142C101.134 3.94212 98.1938 1 94.567 1C90.9401 1 88 3.94212 88 7.57142C88 11.2007 90.9401 14.1428 94.567 14.1428C98.1938 14.1428 101.134 11.2007 101.134 7.57142Z" stroke="#151515"/>
<path d="M57.134 80.5714C57.134 76.9421 54.1938 74 50.567 74C46.9401 74 44 76.9421 44 80.5714C44 84.2007 46.9401 87.1428 50.567 87.1428C54.1938 87.1428 57.134 84.2007 57.134 80.5714Z" fill="#1CCB62"/>
<path d="M53.8712 80.596C53.8712 78.8833 52.4843 77.4949 50.7735 77.4949C49.0628 77.4949 47.6759 78.8833 47.6759 80.596C47.6759 82.3087 49.0628 83.6971 50.7735 83.6971C52.4843 83.6971 53.8712 82.3087 53.8712 80.596Z" stroke="#151515" stroke-width="3"/>
<path d="M57.134 80.5714C57.134 76.9421 54.1938 74 50.567 74C46.9401 74 44 76.9421 44 80.5714C44 84.2007 46.9401 87.1428 50.567 87.1428C54.1938 87.1428 57.134 84.2007 57.134 80.5714Z" stroke="#151515"/>
<path d="M145.134 80.5714C145.134 76.9421 142.194 74 138.567 74C134.94 74 132 76.9421 132 80.5714C132 84.2007 134.94 87.1428 138.567 87.1428C142.194 87.1428 145.134 84.2007 145.134 80.5714Z" fill="#1CCB62"/>
<path d="M141.871 80.596C141.871 78.8833 140.484 77.4949 138.774 77.4949C137.063 77.4949 135.676 78.8833 135.676 80.596C135.676 82.3087 137.063 83.6971 138.774 83.6971C140.484 83.6971 141.871 82.3087 141.871 80.596Z" stroke="#151515" stroke-width="3"/>
<path d="M145.134 80.5714C145.134 76.9421 142.194 74 138.567 74C134.94 74 132 76.9421 132 80.5714C132 84.2007 134.94 87.1428 138.567 87.1428C142.194 87.1428 145.134 84.2007 145.134 80.5714Z" stroke="#151515"/>
<path d="M101.134 153.571C101.134 149.942 98.1938 147 94.567 147C90.9401 147 88 149.942 88 153.571C88 157.201 90.9401 160.143 94.567 160.143C98.1938 160.143 101.134 157.201 101.134 153.571Z" fill="#1CCB62"/>
<path d="M97.8712 153.596C97.8712 151.883 96.4843 150.495 94.7735 150.495C93.0628 150.495 91.6759 151.883 91.6759 153.596C91.6759 155.309 93.0628 156.697 94.7735 156.697C96.4843 156.697 97.8712 155.309 97.8712 153.596Z" stroke="#151515" stroke-width="3"/>
<path d="M101.134 153.571C101.134 149.942 98.1938 147 94.567 147C90.9401 147 88 149.942 88 153.571C88 157.201 90.9401 160.143 94.567 160.143C98.1938 160.143 101.134 157.201 101.134 153.571Z" stroke="#151515"/>
<path d="M188.134 153.571C188.134 149.942 185.194 147 181.567 147C177.94 147 175 149.942 175 153.571C175 157.201 177.94 160.143 181.567 160.143C185.194 160.143 188.134 157.201 188.134 153.571Z" fill="#1CCB62"/>
<path d="M184.871 153.596C184.871 151.883 183.484 150.495 181.774 150.495C180.063 150.495 178.676 151.883 178.676 153.596C178.676 155.309 180.063 156.697 181.774 156.697C183.484 156.697 184.871 155.309 184.871 153.596Z" stroke="#151515" stroke-width="3"/>
<path d="M188.134 153.571C188.134 149.942 185.194 147 181.567 147C177.94 147 175 149.942 175 153.571C175 157.201 177.94 160.143 181.567 160.143C185.194 160.143 188.134 157.201 188.134 153.571Z" stroke="#151515"/>
<path d="M14.134 153.571C14.134 149.942 11.1938 147 7.56698 147C3.94014 147 1 149.942 1 153.571C1 157.201 3.94014 160.143 7.56698 160.143C11.1938 160.143 14.134 157.201 14.134 153.571Z" fill="#1CCB62"/>
<path d="M10.8712 153.596C10.8712 151.883 9.48431 150.495 7.77354 150.495C6.06276 150.495 4.6759 151.883 4.6759 153.596C4.6759 155.309 6.06276 156.697 7.77354 156.697C9.48431 156.697 10.8712 155.309 10.8712 153.596Z" stroke="#151515" stroke-width="3"/>
<path d="M14.134 153.571C14.134 149.942 11.1938 147 7.56698 147C3.94014 147 1 149.942 1 153.571C1 157.201 3.94014 160.143 7.56698 160.143C11.1938 160.143 14.134 157.201 14.134 153.571Z" stroke="#151515"/>
</svg>
