<svg width="15" height="15" viewBox="0 0 15 15" fill="none" xmlns="http://www.w3.org/2000/svg">
<g clip-path="url(#clip0)">
<path d="M0.265059 7.23219L3.72136 8.52219L5.05916 12.8245C5.14476 13.1001 5.48171 13.2019 5.70536 13.0191L7.63196 11.4485C7.83391 11.2839 8.12156 11.2757 8.33261 11.4289L11.8075 13.9518C12.0468 14.1257 12.3857 13.9946 12.4457 13.7055L14.9913 1.46094C15.0568 1.14514 14.7465 0.881694 14.4458 0.997994L0.261009 6.47004C-0.0890413 6.60504 -0.0859913 7.10064 0.265059 7.23219ZM4.84356 7.83549L11.5985 3.67514C11.7199 3.60059 11.8448 3.76474 11.7405 3.86144L6.16576 9.04344C5.96981 9.22584 5.84341 9.46994 5.80761 9.73489L5.61771 11.1422C5.59256 11.3301 5.32861 11.3487 5.27676 11.1669L4.54641 8.60064C4.46276 8.30794 4.58466 7.99529 4.84356 7.83549Z" fill="white"/>
</g>
<defs>
<clipPath id="clip0">
<rect width="15" height="15" fill="white"/>
</clipPath>
</defs>
</svg>
